G75*
%MOIN*%
%OFA0B0*%
%FSLAX25Y25*%
%IPPOS*%
%LPD*%
%AMOC8*
5,1,8,0,0,1.08239X$1,22.5*
%
%ADD10C,0.00000*%
%ADD11C,0.01000*%
%ADD12C,0.00394*%
D10*
X0030201Y0040500D02*
X0030203Y0040658D01*
X0030209Y0040816D01*
X0030219Y0040974D01*
X0030233Y0041132D01*
X0030251Y0041289D01*
X0030272Y0041446D01*
X0030298Y0041602D01*
X0030328Y0041758D01*
X0030361Y0041913D01*
X0030399Y0042066D01*
X0030440Y0042219D01*
X0030485Y0042371D01*
X0030534Y0042522D01*
X0030587Y0042671D01*
X0030643Y0042819D01*
X0030703Y0042965D01*
X0030767Y0043110D01*
X0030835Y0043253D01*
X0030906Y0043395D01*
X0030980Y0043535D01*
X0031058Y0043672D01*
X0031140Y0043808D01*
X0031224Y0043942D01*
X0031313Y0044073D01*
X0031404Y0044202D01*
X0031499Y0044329D01*
X0031596Y0044454D01*
X0031697Y0044576D01*
X0031801Y0044695D01*
X0031908Y0044812D01*
X0032018Y0044926D01*
X0032131Y0045037D01*
X0032246Y0045146D01*
X0032364Y0045251D01*
X0032485Y0045353D01*
X0032608Y0045453D01*
X0032734Y0045549D01*
X0032862Y0045642D01*
X0032992Y0045732D01*
X0033125Y0045818D01*
X0033260Y0045902D01*
X0033396Y0045981D01*
X0033535Y0046058D01*
X0033676Y0046130D01*
X0033818Y0046200D01*
X0033962Y0046265D01*
X0034108Y0046327D01*
X0034255Y0046385D01*
X0034404Y0046440D01*
X0034554Y0046491D01*
X0034705Y0046538D01*
X0034857Y0046581D01*
X0035010Y0046620D01*
X0035165Y0046656D01*
X0035320Y0046687D01*
X0035476Y0046715D01*
X0035632Y0046739D01*
X0035789Y0046759D01*
X0035947Y0046775D01*
X0036104Y0046787D01*
X0036263Y0046795D01*
X0036421Y0046799D01*
X0036579Y0046799D01*
X0036737Y0046795D01*
X0036896Y0046787D01*
X0037053Y0046775D01*
X0037211Y0046759D01*
X0037368Y0046739D01*
X0037524Y0046715D01*
X0037680Y0046687D01*
X0037835Y0046656D01*
X0037990Y0046620D01*
X0038143Y0046581D01*
X0038295Y0046538D01*
X0038446Y0046491D01*
X0038596Y0046440D01*
X0038745Y0046385D01*
X0038892Y0046327D01*
X0039038Y0046265D01*
X0039182Y0046200D01*
X0039324Y0046130D01*
X0039465Y0046058D01*
X0039604Y0045981D01*
X0039740Y0045902D01*
X0039875Y0045818D01*
X0040008Y0045732D01*
X0040138Y0045642D01*
X0040266Y0045549D01*
X0040392Y0045453D01*
X0040515Y0045353D01*
X0040636Y0045251D01*
X0040754Y0045146D01*
X0040869Y0045037D01*
X0040982Y0044926D01*
X0041092Y0044812D01*
X0041199Y0044695D01*
X0041303Y0044576D01*
X0041404Y0044454D01*
X0041501Y0044329D01*
X0041596Y0044202D01*
X0041687Y0044073D01*
X0041776Y0043942D01*
X0041860Y0043808D01*
X0041942Y0043672D01*
X0042020Y0043535D01*
X0042094Y0043395D01*
X0042165Y0043253D01*
X0042233Y0043110D01*
X0042297Y0042965D01*
X0042357Y0042819D01*
X0042413Y0042671D01*
X0042466Y0042522D01*
X0042515Y0042371D01*
X0042560Y0042219D01*
X0042601Y0042066D01*
X0042639Y0041913D01*
X0042672Y0041758D01*
X0042702Y0041602D01*
X0042728Y0041446D01*
X0042749Y0041289D01*
X0042767Y0041132D01*
X0042781Y0040974D01*
X0042791Y0040816D01*
X0042797Y0040658D01*
X0042799Y0040500D01*
X0042797Y0040342D01*
X0042791Y0040184D01*
X0042781Y0040026D01*
X0042767Y0039868D01*
X0042749Y0039711D01*
X0042728Y0039554D01*
X0042702Y0039398D01*
X0042672Y0039242D01*
X0042639Y0039087D01*
X0042601Y0038934D01*
X0042560Y0038781D01*
X0042515Y0038629D01*
X0042466Y0038478D01*
X0042413Y0038329D01*
X0042357Y0038181D01*
X0042297Y0038035D01*
X0042233Y0037890D01*
X0042165Y0037747D01*
X0042094Y0037605D01*
X0042020Y0037465D01*
X0041942Y0037328D01*
X0041860Y0037192D01*
X0041776Y0037058D01*
X0041687Y0036927D01*
X0041596Y0036798D01*
X0041501Y0036671D01*
X0041404Y0036546D01*
X0041303Y0036424D01*
X0041199Y0036305D01*
X0041092Y0036188D01*
X0040982Y0036074D01*
X0040869Y0035963D01*
X0040754Y0035854D01*
X0040636Y0035749D01*
X0040515Y0035647D01*
X0040392Y0035547D01*
X0040266Y0035451D01*
X0040138Y0035358D01*
X0040008Y0035268D01*
X0039875Y0035182D01*
X0039740Y0035098D01*
X0039604Y0035019D01*
X0039465Y0034942D01*
X0039324Y0034870D01*
X0039182Y0034800D01*
X0039038Y0034735D01*
X0038892Y0034673D01*
X0038745Y0034615D01*
X0038596Y0034560D01*
X0038446Y0034509D01*
X0038295Y0034462D01*
X0038143Y0034419D01*
X0037990Y0034380D01*
X0037835Y0034344D01*
X0037680Y0034313D01*
X0037524Y0034285D01*
X0037368Y0034261D01*
X0037211Y0034241D01*
X0037053Y0034225D01*
X0036896Y0034213D01*
X0036737Y0034205D01*
X0036579Y0034201D01*
X0036421Y0034201D01*
X0036263Y0034205D01*
X0036104Y0034213D01*
X0035947Y0034225D01*
X0035789Y0034241D01*
X0035632Y0034261D01*
X0035476Y0034285D01*
X0035320Y0034313D01*
X0035165Y0034344D01*
X0035010Y0034380D01*
X0034857Y0034419D01*
X0034705Y0034462D01*
X0034554Y0034509D01*
X0034404Y0034560D01*
X0034255Y0034615D01*
X0034108Y0034673D01*
X0033962Y0034735D01*
X0033818Y0034800D01*
X0033676Y0034870D01*
X0033535Y0034942D01*
X0033396Y0035019D01*
X0033260Y0035098D01*
X0033125Y0035182D01*
X0032992Y0035268D01*
X0032862Y0035358D01*
X0032734Y0035451D01*
X0032608Y0035547D01*
X0032485Y0035647D01*
X0032364Y0035749D01*
X0032246Y0035854D01*
X0032131Y0035963D01*
X0032018Y0036074D01*
X0031908Y0036188D01*
X0031801Y0036305D01*
X0031697Y0036424D01*
X0031596Y0036546D01*
X0031499Y0036671D01*
X0031404Y0036798D01*
X0031313Y0036927D01*
X0031224Y0037058D01*
X0031140Y0037192D01*
X0031058Y0037328D01*
X0030980Y0037465D01*
X0030906Y0037605D01*
X0030835Y0037747D01*
X0030767Y0037890D01*
X0030703Y0038035D01*
X0030643Y0038181D01*
X0030587Y0038329D01*
X0030534Y0038478D01*
X0030485Y0038629D01*
X0030440Y0038781D01*
X0030399Y0038934D01*
X0030361Y0039087D01*
X0030328Y0039242D01*
X0030298Y0039398D01*
X0030272Y0039554D01*
X0030251Y0039711D01*
X0030233Y0039868D01*
X0030219Y0040026D01*
X0030209Y0040184D01*
X0030203Y0040342D01*
X0030201Y0040500D01*
X0210201Y0040500D02*
X0210203Y0040658D01*
X0210209Y0040816D01*
X0210219Y0040974D01*
X0210233Y0041132D01*
X0210251Y0041289D01*
X0210272Y0041446D01*
X0210298Y0041602D01*
X0210328Y0041758D01*
X0210361Y0041913D01*
X0210399Y0042066D01*
X0210440Y0042219D01*
X0210485Y0042371D01*
X0210534Y0042522D01*
X0210587Y0042671D01*
X0210643Y0042819D01*
X0210703Y0042965D01*
X0210767Y0043110D01*
X0210835Y0043253D01*
X0210906Y0043395D01*
X0210980Y0043535D01*
X0211058Y0043672D01*
X0211140Y0043808D01*
X0211224Y0043942D01*
X0211313Y0044073D01*
X0211404Y0044202D01*
X0211499Y0044329D01*
X0211596Y0044454D01*
X0211697Y0044576D01*
X0211801Y0044695D01*
X0211908Y0044812D01*
X0212018Y0044926D01*
X0212131Y0045037D01*
X0212246Y0045146D01*
X0212364Y0045251D01*
X0212485Y0045353D01*
X0212608Y0045453D01*
X0212734Y0045549D01*
X0212862Y0045642D01*
X0212992Y0045732D01*
X0213125Y0045818D01*
X0213260Y0045902D01*
X0213396Y0045981D01*
X0213535Y0046058D01*
X0213676Y0046130D01*
X0213818Y0046200D01*
X0213962Y0046265D01*
X0214108Y0046327D01*
X0214255Y0046385D01*
X0214404Y0046440D01*
X0214554Y0046491D01*
X0214705Y0046538D01*
X0214857Y0046581D01*
X0215010Y0046620D01*
X0215165Y0046656D01*
X0215320Y0046687D01*
X0215476Y0046715D01*
X0215632Y0046739D01*
X0215789Y0046759D01*
X0215947Y0046775D01*
X0216104Y0046787D01*
X0216263Y0046795D01*
X0216421Y0046799D01*
X0216579Y0046799D01*
X0216737Y0046795D01*
X0216896Y0046787D01*
X0217053Y0046775D01*
X0217211Y0046759D01*
X0217368Y0046739D01*
X0217524Y0046715D01*
X0217680Y0046687D01*
X0217835Y0046656D01*
X0217990Y0046620D01*
X0218143Y0046581D01*
X0218295Y0046538D01*
X0218446Y0046491D01*
X0218596Y0046440D01*
X0218745Y0046385D01*
X0218892Y0046327D01*
X0219038Y0046265D01*
X0219182Y0046200D01*
X0219324Y0046130D01*
X0219465Y0046058D01*
X0219604Y0045981D01*
X0219740Y0045902D01*
X0219875Y0045818D01*
X0220008Y0045732D01*
X0220138Y0045642D01*
X0220266Y0045549D01*
X0220392Y0045453D01*
X0220515Y0045353D01*
X0220636Y0045251D01*
X0220754Y0045146D01*
X0220869Y0045037D01*
X0220982Y0044926D01*
X0221092Y0044812D01*
X0221199Y0044695D01*
X0221303Y0044576D01*
X0221404Y0044454D01*
X0221501Y0044329D01*
X0221596Y0044202D01*
X0221687Y0044073D01*
X0221776Y0043942D01*
X0221860Y0043808D01*
X0221942Y0043672D01*
X0222020Y0043535D01*
X0222094Y0043395D01*
X0222165Y0043253D01*
X0222233Y0043110D01*
X0222297Y0042965D01*
X0222357Y0042819D01*
X0222413Y0042671D01*
X0222466Y0042522D01*
X0222515Y0042371D01*
X0222560Y0042219D01*
X0222601Y0042066D01*
X0222639Y0041913D01*
X0222672Y0041758D01*
X0222702Y0041602D01*
X0222728Y0041446D01*
X0222749Y0041289D01*
X0222767Y0041132D01*
X0222781Y0040974D01*
X0222791Y0040816D01*
X0222797Y0040658D01*
X0222799Y0040500D01*
X0222797Y0040342D01*
X0222791Y0040184D01*
X0222781Y0040026D01*
X0222767Y0039868D01*
X0222749Y0039711D01*
X0222728Y0039554D01*
X0222702Y0039398D01*
X0222672Y0039242D01*
X0222639Y0039087D01*
X0222601Y0038934D01*
X0222560Y0038781D01*
X0222515Y0038629D01*
X0222466Y0038478D01*
X0222413Y0038329D01*
X0222357Y0038181D01*
X0222297Y0038035D01*
X0222233Y0037890D01*
X0222165Y0037747D01*
X0222094Y0037605D01*
X0222020Y0037465D01*
X0221942Y0037328D01*
X0221860Y0037192D01*
X0221776Y0037058D01*
X0221687Y0036927D01*
X0221596Y0036798D01*
X0221501Y0036671D01*
X0221404Y0036546D01*
X0221303Y0036424D01*
X0221199Y0036305D01*
X0221092Y0036188D01*
X0220982Y0036074D01*
X0220869Y0035963D01*
X0220754Y0035854D01*
X0220636Y0035749D01*
X0220515Y0035647D01*
X0220392Y0035547D01*
X0220266Y0035451D01*
X0220138Y0035358D01*
X0220008Y0035268D01*
X0219875Y0035182D01*
X0219740Y0035098D01*
X0219604Y0035019D01*
X0219465Y0034942D01*
X0219324Y0034870D01*
X0219182Y0034800D01*
X0219038Y0034735D01*
X0218892Y0034673D01*
X0218745Y0034615D01*
X0218596Y0034560D01*
X0218446Y0034509D01*
X0218295Y0034462D01*
X0218143Y0034419D01*
X0217990Y0034380D01*
X0217835Y0034344D01*
X0217680Y0034313D01*
X0217524Y0034285D01*
X0217368Y0034261D01*
X0217211Y0034241D01*
X0217053Y0034225D01*
X0216896Y0034213D01*
X0216737Y0034205D01*
X0216579Y0034201D01*
X0216421Y0034201D01*
X0216263Y0034205D01*
X0216104Y0034213D01*
X0215947Y0034225D01*
X0215789Y0034241D01*
X0215632Y0034261D01*
X0215476Y0034285D01*
X0215320Y0034313D01*
X0215165Y0034344D01*
X0215010Y0034380D01*
X0214857Y0034419D01*
X0214705Y0034462D01*
X0214554Y0034509D01*
X0214404Y0034560D01*
X0214255Y0034615D01*
X0214108Y0034673D01*
X0213962Y0034735D01*
X0213818Y0034800D01*
X0213676Y0034870D01*
X0213535Y0034942D01*
X0213396Y0035019D01*
X0213260Y0035098D01*
X0213125Y0035182D01*
X0212992Y0035268D01*
X0212862Y0035358D01*
X0212734Y0035451D01*
X0212608Y0035547D01*
X0212485Y0035647D01*
X0212364Y0035749D01*
X0212246Y0035854D01*
X0212131Y0035963D01*
X0212018Y0036074D01*
X0211908Y0036188D01*
X0211801Y0036305D01*
X0211697Y0036424D01*
X0211596Y0036546D01*
X0211499Y0036671D01*
X0211404Y0036798D01*
X0211313Y0036927D01*
X0211224Y0037058D01*
X0211140Y0037192D01*
X0211058Y0037328D01*
X0210980Y0037465D01*
X0210906Y0037605D01*
X0210835Y0037747D01*
X0210767Y0037890D01*
X0210703Y0038035D01*
X0210643Y0038181D01*
X0210587Y0038329D01*
X0210534Y0038478D01*
X0210485Y0038629D01*
X0210440Y0038781D01*
X0210399Y0038934D01*
X0210361Y0039087D01*
X0210328Y0039242D01*
X0210298Y0039398D01*
X0210272Y0039554D01*
X0210251Y0039711D01*
X0210233Y0039868D01*
X0210219Y0040026D01*
X0210209Y0040184D01*
X0210203Y0040342D01*
X0210201Y0040500D01*
X0210201Y0338500D02*
X0210203Y0338658D01*
X0210209Y0338816D01*
X0210219Y0338974D01*
X0210233Y0339132D01*
X0210251Y0339289D01*
X0210272Y0339446D01*
X0210298Y0339602D01*
X0210328Y0339758D01*
X0210361Y0339913D01*
X0210399Y0340066D01*
X0210440Y0340219D01*
X0210485Y0340371D01*
X0210534Y0340522D01*
X0210587Y0340671D01*
X0210643Y0340819D01*
X0210703Y0340965D01*
X0210767Y0341110D01*
X0210835Y0341253D01*
X0210906Y0341395D01*
X0210980Y0341535D01*
X0211058Y0341672D01*
X0211140Y0341808D01*
X0211224Y0341942D01*
X0211313Y0342073D01*
X0211404Y0342202D01*
X0211499Y0342329D01*
X0211596Y0342454D01*
X0211697Y0342576D01*
X0211801Y0342695D01*
X0211908Y0342812D01*
X0212018Y0342926D01*
X0212131Y0343037D01*
X0212246Y0343146D01*
X0212364Y0343251D01*
X0212485Y0343353D01*
X0212608Y0343453D01*
X0212734Y0343549D01*
X0212862Y0343642D01*
X0212992Y0343732D01*
X0213125Y0343818D01*
X0213260Y0343902D01*
X0213396Y0343981D01*
X0213535Y0344058D01*
X0213676Y0344130D01*
X0213818Y0344200D01*
X0213962Y0344265D01*
X0214108Y0344327D01*
X0214255Y0344385D01*
X0214404Y0344440D01*
X0214554Y0344491D01*
X0214705Y0344538D01*
X0214857Y0344581D01*
X0215010Y0344620D01*
X0215165Y0344656D01*
X0215320Y0344687D01*
X0215476Y0344715D01*
X0215632Y0344739D01*
X0215789Y0344759D01*
X0215947Y0344775D01*
X0216104Y0344787D01*
X0216263Y0344795D01*
X0216421Y0344799D01*
X0216579Y0344799D01*
X0216737Y0344795D01*
X0216896Y0344787D01*
X0217053Y0344775D01*
X0217211Y0344759D01*
X0217368Y0344739D01*
X0217524Y0344715D01*
X0217680Y0344687D01*
X0217835Y0344656D01*
X0217990Y0344620D01*
X0218143Y0344581D01*
X0218295Y0344538D01*
X0218446Y0344491D01*
X0218596Y0344440D01*
X0218745Y0344385D01*
X0218892Y0344327D01*
X0219038Y0344265D01*
X0219182Y0344200D01*
X0219324Y0344130D01*
X0219465Y0344058D01*
X0219604Y0343981D01*
X0219740Y0343902D01*
X0219875Y0343818D01*
X0220008Y0343732D01*
X0220138Y0343642D01*
X0220266Y0343549D01*
X0220392Y0343453D01*
X0220515Y0343353D01*
X0220636Y0343251D01*
X0220754Y0343146D01*
X0220869Y0343037D01*
X0220982Y0342926D01*
X0221092Y0342812D01*
X0221199Y0342695D01*
X0221303Y0342576D01*
X0221404Y0342454D01*
X0221501Y0342329D01*
X0221596Y0342202D01*
X0221687Y0342073D01*
X0221776Y0341942D01*
X0221860Y0341808D01*
X0221942Y0341672D01*
X0222020Y0341535D01*
X0222094Y0341395D01*
X0222165Y0341253D01*
X0222233Y0341110D01*
X0222297Y0340965D01*
X0222357Y0340819D01*
X0222413Y0340671D01*
X0222466Y0340522D01*
X0222515Y0340371D01*
X0222560Y0340219D01*
X0222601Y0340066D01*
X0222639Y0339913D01*
X0222672Y0339758D01*
X0222702Y0339602D01*
X0222728Y0339446D01*
X0222749Y0339289D01*
X0222767Y0339132D01*
X0222781Y0338974D01*
X0222791Y0338816D01*
X0222797Y0338658D01*
X0222799Y0338500D01*
X0222797Y0338342D01*
X0222791Y0338184D01*
X0222781Y0338026D01*
X0222767Y0337868D01*
X0222749Y0337711D01*
X0222728Y0337554D01*
X0222702Y0337398D01*
X0222672Y0337242D01*
X0222639Y0337087D01*
X0222601Y0336934D01*
X0222560Y0336781D01*
X0222515Y0336629D01*
X0222466Y0336478D01*
X0222413Y0336329D01*
X0222357Y0336181D01*
X0222297Y0336035D01*
X0222233Y0335890D01*
X0222165Y0335747D01*
X0222094Y0335605D01*
X0222020Y0335465D01*
X0221942Y0335328D01*
X0221860Y0335192D01*
X0221776Y0335058D01*
X0221687Y0334927D01*
X0221596Y0334798D01*
X0221501Y0334671D01*
X0221404Y0334546D01*
X0221303Y0334424D01*
X0221199Y0334305D01*
X0221092Y0334188D01*
X0220982Y0334074D01*
X0220869Y0333963D01*
X0220754Y0333854D01*
X0220636Y0333749D01*
X0220515Y0333647D01*
X0220392Y0333547D01*
X0220266Y0333451D01*
X0220138Y0333358D01*
X0220008Y0333268D01*
X0219875Y0333182D01*
X0219740Y0333098D01*
X0219604Y0333019D01*
X0219465Y0332942D01*
X0219324Y0332870D01*
X0219182Y0332800D01*
X0219038Y0332735D01*
X0218892Y0332673D01*
X0218745Y0332615D01*
X0218596Y0332560D01*
X0218446Y0332509D01*
X0218295Y0332462D01*
X0218143Y0332419D01*
X0217990Y0332380D01*
X0217835Y0332344D01*
X0217680Y0332313D01*
X0217524Y0332285D01*
X0217368Y0332261D01*
X0217211Y0332241D01*
X0217053Y0332225D01*
X0216896Y0332213D01*
X0216737Y0332205D01*
X0216579Y0332201D01*
X0216421Y0332201D01*
X0216263Y0332205D01*
X0216104Y0332213D01*
X0215947Y0332225D01*
X0215789Y0332241D01*
X0215632Y0332261D01*
X0215476Y0332285D01*
X0215320Y0332313D01*
X0215165Y0332344D01*
X0215010Y0332380D01*
X0214857Y0332419D01*
X0214705Y0332462D01*
X0214554Y0332509D01*
X0214404Y0332560D01*
X0214255Y0332615D01*
X0214108Y0332673D01*
X0213962Y0332735D01*
X0213818Y0332800D01*
X0213676Y0332870D01*
X0213535Y0332942D01*
X0213396Y0333019D01*
X0213260Y0333098D01*
X0213125Y0333182D01*
X0212992Y0333268D01*
X0212862Y0333358D01*
X0212734Y0333451D01*
X0212608Y0333547D01*
X0212485Y0333647D01*
X0212364Y0333749D01*
X0212246Y0333854D01*
X0212131Y0333963D01*
X0212018Y0334074D01*
X0211908Y0334188D01*
X0211801Y0334305D01*
X0211697Y0334424D01*
X0211596Y0334546D01*
X0211499Y0334671D01*
X0211404Y0334798D01*
X0211313Y0334927D01*
X0211224Y0335058D01*
X0211140Y0335192D01*
X0211058Y0335328D01*
X0210980Y0335465D01*
X0210906Y0335605D01*
X0210835Y0335747D01*
X0210767Y0335890D01*
X0210703Y0336035D01*
X0210643Y0336181D01*
X0210587Y0336329D01*
X0210534Y0336478D01*
X0210485Y0336629D01*
X0210440Y0336781D01*
X0210399Y0336934D01*
X0210361Y0337087D01*
X0210328Y0337242D01*
X0210298Y0337398D01*
X0210272Y0337554D01*
X0210251Y0337711D01*
X0210233Y0337868D01*
X0210219Y0338026D01*
X0210209Y0338184D01*
X0210203Y0338342D01*
X0210201Y0338500D01*
X0030201Y0338500D02*
X0030203Y0338658D01*
X0030209Y0338816D01*
X0030219Y0338974D01*
X0030233Y0339132D01*
X0030251Y0339289D01*
X0030272Y0339446D01*
X0030298Y0339602D01*
X0030328Y0339758D01*
X0030361Y0339913D01*
X0030399Y0340066D01*
X0030440Y0340219D01*
X0030485Y0340371D01*
X0030534Y0340522D01*
X0030587Y0340671D01*
X0030643Y0340819D01*
X0030703Y0340965D01*
X0030767Y0341110D01*
X0030835Y0341253D01*
X0030906Y0341395D01*
X0030980Y0341535D01*
X0031058Y0341672D01*
X0031140Y0341808D01*
X0031224Y0341942D01*
X0031313Y0342073D01*
X0031404Y0342202D01*
X0031499Y0342329D01*
X0031596Y0342454D01*
X0031697Y0342576D01*
X0031801Y0342695D01*
X0031908Y0342812D01*
X0032018Y0342926D01*
X0032131Y0343037D01*
X0032246Y0343146D01*
X0032364Y0343251D01*
X0032485Y0343353D01*
X0032608Y0343453D01*
X0032734Y0343549D01*
X0032862Y0343642D01*
X0032992Y0343732D01*
X0033125Y0343818D01*
X0033260Y0343902D01*
X0033396Y0343981D01*
X0033535Y0344058D01*
X0033676Y0344130D01*
X0033818Y0344200D01*
X0033962Y0344265D01*
X0034108Y0344327D01*
X0034255Y0344385D01*
X0034404Y0344440D01*
X0034554Y0344491D01*
X0034705Y0344538D01*
X0034857Y0344581D01*
X0035010Y0344620D01*
X0035165Y0344656D01*
X0035320Y0344687D01*
X0035476Y0344715D01*
X0035632Y0344739D01*
X0035789Y0344759D01*
X0035947Y0344775D01*
X0036104Y0344787D01*
X0036263Y0344795D01*
X0036421Y0344799D01*
X0036579Y0344799D01*
X0036737Y0344795D01*
X0036896Y0344787D01*
X0037053Y0344775D01*
X0037211Y0344759D01*
X0037368Y0344739D01*
X0037524Y0344715D01*
X0037680Y0344687D01*
X0037835Y0344656D01*
X0037990Y0344620D01*
X0038143Y0344581D01*
X0038295Y0344538D01*
X0038446Y0344491D01*
X0038596Y0344440D01*
X0038745Y0344385D01*
X0038892Y0344327D01*
X0039038Y0344265D01*
X0039182Y0344200D01*
X0039324Y0344130D01*
X0039465Y0344058D01*
X0039604Y0343981D01*
X0039740Y0343902D01*
X0039875Y0343818D01*
X0040008Y0343732D01*
X0040138Y0343642D01*
X0040266Y0343549D01*
X0040392Y0343453D01*
X0040515Y0343353D01*
X0040636Y0343251D01*
X0040754Y0343146D01*
X0040869Y0343037D01*
X0040982Y0342926D01*
X0041092Y0342812D01*
X0041199Y0342695D01*
X0041303Y0342576D01*
X0041404Y0342454D01*
X0041501Y0342329D01*
X0041596Y0342202D01*
X0041687Y0342073D01*
X0041776Y0341942D01*
X0041860Y0341808D01*
X0041942Y0341672D01*
X0042020Y0341535D01*
X0042094Y0341395D01*
X0042165Y0341253D01*
X0042233Y0341110D01*
X0042297Y0340965D01*
X0042357Y0340819D01*
X0042413Y0340671D01*
X0042466Y0340522D01*
X0042515Y0340371D01*
X0042560Y0340219D01*
X0042601Y0340066D01*
X0042639Y0339913D01*
X0042672Y0339758D01*
X0042702Y0339602D01*
X0042728Y0339446D01*
X0042749Y0339289D01*
X0042767Y0339132D01*
X0042781Y0338974D01*
X0042791Y0338816D01*
X0042797Y0338658D01*
X0042799Y0338500D01*
X0042797Y0338342D01*
X0042791Y0338184D01*
X0042781Y0338026D01*
X0042767Y0337868D01*
X0042749Y0337711D01*
X0042728Y0337554D01*
X0042702Y0337398D01*
X0042672Y0337242D01*
X0042639Y0337087D01*
X0042601Y0336934D01*
X0042560Y0336781D01*
X0042515Y0336629D01*
X0042466Y0336478D01*
X0042413Y0336329D01*
X0042357Y0336181D01*
X0042297Y0336035D01*
X0042233Y0335890D01*
X0042165Y0335747D01*
X0042094Y0335605D01*
X0042020Y0335465D01*
X0041942Y0335328D01*
X0041860Y0335192D01*
X0041776Y0335058D01*
X0041687Y0334927D01*
X0041596Y0334798D01*
X0041501Y0334671D01*
X0041404Y0334546D01*
X0041303Y0334424D01*
X0041199Y0334305D01*
X0041092Y0334188D01*
X0040982Y0334074D01*
X0040869Y0333963D01*
X0040754Y0333854D01*
X0040636Y0333749D01*
X0040515Y0333647D01*
X0040392Y0333547D01*
X0040266Y0333451D01*
X0040138Y0333358D01*
X0040008Y0333268D01*
X0039875Y0333182D01*
X0039740Y0333098D01*
X0039604Y0333019D01*
X0039465Y0332942D01*
X0039324Y0332870D01*
X0039182Y0332800D01*
X0039038Y0332735D01*
X0038892Y0332673D01*
X0038745Y0332615D01*
X0038596Y0332560D01*
X0038446Y0332509D01*
X0038295Y0332462D01*
X0038143Y0332419D01*
X0037990Y0332380D01*
X0037835Y0332344D01*
X0037680Y0332313D01*
X0037524Y0332285D01*
X0037368Y0332261D01*
X0037211Y0332241D01*
X0037053Y0332225D01*
X0036896Y0332213D01*
X0036737Y0332205D01*
X0036579Y0332201D01*
X0036421Y0332201D01*
X0036263Y0332205D01*
X0036104Y0332213D01*
X0035947Y0332225D01*
X0035789Y0332241D01*
X0035632Y0332261D01*
X0035476Y0332285D01*
X0035320Y0332313D01*
X0035165Y0332344D01*
X0035010Y0332380D01*
X0034857Y0332419D01*
X0034705Y0332462D01*
X0034554Y0332509D01*
X0034404Y0332560D01*
X0034255Y0332615D01*
X0034108Y0332673D01*
X0033962Y0332735D01*
X0033818Y0332800D01*
X0033676Y0332870D01*
X0033535Y0332942D01*
X0033396Y0333019D01*
X0033260Y0333098D01*
X0033125Y0333182D01*
X0032992Y0333268D01*
X0032862Y0333358D01*
X0032734Y0333451D01*
X0032608Y0333547D01*
X0032485Y0333647D01*
X0032364Y0333749D01*
X0032246Y0333854D01*
X0032131Y0333963D01*
X0032018Y0334074D01*
X0031908Y0334188D01*
X0031801Y0334305D01*
X0031697Y0334424D01*
X0031596Y0334546D01*
X0031499Y0334671D01*
X0031404Y0334798D01*
X0031313Y0334927D01*
X0031224Y0335058D01*
X0031140Y0335192D01*
X0031058Y0335328D01*
X0030980Y0335465D01*
X0030906Y0335605D01*
X0030835Y0335747D01*
X0030767Y0335890D01*
X0030703Y0336035D01*
X0030643Y0336181D01*
X0030587Y0336329D01*
X0030534Y0336478D01*
X0030485Y0336629D01*
X0030440Y0336781D01*
X0030399Y0336934D01*
X0030361Y0337087D01*
X0030328Y0337242D01*
X0030298Y0337398D01*
X0030272Y0337554D01*
X0030251Y0337711D01*
X0030233Y0337868D01*
X0030219Y0338026D01*
X0030209Y0338184D01*
X0030203Y0338342D01*
X0030201Y0338500D01*
D11*
X0020500Y0332500D02*
X0020500Y0048500D01*
X0038500Y0026500D02*
X0212500Y0026500D01*
X0212983Y0026506D01*
X0213466Y0026523D01*
X0213949Y0026553D01*
X0214430Y0026593D01*
X0214911Y0026646D01*
X0215390Y0026710D01*
X0215867Y0026785D01*
X0216343Y0026873D01*
X0216816Y0026971D01*
X0217286Y0027081D01*
X0217754Y0027202D01*
X0218219Y0027335D01*
X0218680Y0027479D01*
X0219138Y0027634D01*
X0219592Y0027800D01*
X0220042Y0027977D01*
X0220487Y0028164D01*
X0220928Y0028363D01*
X0221364Y0028571D01*
X0221794Y0028791D01*
X0222220Y0029021D01*
X0222639Y0029261D01*
X0223053Y0029511D01*
X0223460Y0029771D01*
X0223861Y0030040D01*
X0224256Y0030320D01*
X0224643Y0030608D01*
X0225024Y0030907D01*
X0225397Y0031214D01*
X0225762Y0031530D01*
X0226120Y0031855D01*
X0226470Y0032188D01*
X0226812Y0032530D01*
X0227145Y0032880D01*
X0227470Y0033238D01*
X0227786Y0033603D01*
X0228093Y0033976D01*
X0228392Y0034357D01*
X0228680Y0034744D01*
X0228960Y0035139D01*
X0229229Y0035540D01*
X0229489Y0035947D01*
X0229739Y0036361D01*
X0229979Y0036780D01*
X0230209Y0037206D01*
X0230429Y0037636D01*
X0230637Y0038072D01*
X0230836Y0038513D01*
X0231023Y0038958D01*
X0231200Y0039408D01*
X0231366Y0039862D01*
X0231521Y0040320D01*
X0231665Y0040781D01*
X0231798Y0041246D01*
X0231919Y0041714D01*
X0232029Y0042184D01*
X0232127Y0042657D01*
X0232215Y0043133D01*
X0232290Y0043610D01*
X0232354Y0044089D01*
X0232407Y0044570D01*
X0232447Y0045051D01*
X0232477Y0045534D01*
X0232494Y0046017D01*
X0232500Y0046500D01*
X0232500Y0332500D01*
X0232494Y0333032D01*
X0232474Y0333563D01*
X0232442Y0334094D01*
X0232397Y0334623D01*
X0232340Y0335152D01*
X0232269Y0335679D01*
X0232186Y0336204D01*
X0232090Y0336727D01*
X0231982Y0337247D01*
X0231861Y0337765D01*
X0231727Y0338280D01*
X0231581Y0338791D01*
X0231423Y0339298D01*
X0231253Y0339802D01*
X0231070Y0340301D01*
X0230876Y0340796D01*
X0230669Y0341286D01*
X0230451Y0341771D01*
X0230221Y0342250D01*
X0229980Y0342724D01*
X0229727Y0343192D01*
X0229463Y0343653D01*
X0229188Y0344108D01*
X0228902Y0344556D01*
X0228606Y0344997D01*
X0228298Y0345431D01*
X0227981Y0345858D01*
X0227653Y0346276D01*
X0227315Y0346687D01*
X0226967Y0347089D01*
X0226610Y0347482D01*
X0226243Y0347867D01*
X0225867Y0348243D01*
X0225482Y0348610D01*
X0225089Y0348967D01*
X0224687Y0349315D01*
X0224276Y0349653D01*
X0223858Y0349981D01*
X0223431Y0350298D01*
X0222997Y0350606D01*
X0222556Y0350902D01*
X0222108Y0351188D01*
X0221653Y0351463D01*
X0221192Y0351727D01*
X0220724Y0351980D01*
X0220250Y0352221D01*
X0219771Y0352451D01*
X0219286Y0352669D01*
X0218796Y0352876D01*
X0218301Y0353070D01*
X0217802Y0353253D01*
X0217298Y0353423D01*
X0216791Y0353581D01*
X0216280Y0353727D01*
X0215765Y0353861D01*
X0215247Y0353982D01*
X0214727Y0354090D01*
X0214204Y0354186D01*
X0213679Y0354269D01*
X0213152Y0354340D01*
X0212623Y0354397D01*
X0212094Y0354442D01*
X0211563Y0354474D01*
X0211032Y0354494D01*
X0210500Y0354500D01*
X0042500Y0354500D01*
X0041968Y0354494D01*
X0041437Y0354474D01*
X0040906Y0354442D01*
X0040377Y0354397D01*
X0039848Y0354340D01*
X0039321Y0354269D01*
X0038796Y0354186D01*
X0038273Y0354090D01*
X0037753Y0353982D01*
X0037235Y0353861D01*
X0036720Y0353727D01*
X0036209Y0353581D01*
X0035702Y0353423D01*
X0035198Y0353253D01*
X0034699Y0353070D01*
X0034204Y0352876D01*
X0033714Y0352669D01*
X0033229Y0352451D01*
X0032750Y0352221D01*
X0032276Y0351980D01*
X0031808Y0351727D01*
X0031347Y0351463D01*
X0030892Y0351188D01*
X0030444Y0350902D01*
X0030003Y0350606D01*
X0029569Y0350298D01*
X0029142Y0349981D01*
X0028724Y0349653D01*
X0028313Y0349315D01*
X0027911Y0348967D01*
X0027518Y0348610D01*
X0027133Y0348243D01*
X0026757Y0347867D01*
X0026390Y0347482D01*
X0026033Y0347089D01*
X0025685Y0346687D01*
X0025347Y0346276D01*
X0025019Y0345858D01*
X0024702Y0345431D01*
X0024394Y0344997D01*
X0024098Y0344556D01*
X0023812Y0344108D01*
X0023537Y0343653D01*
X0023273Y0343192D01*
X0023020Y0342724D01*
X0022779Y0342250D01*
X0022549Y0341771D01*
X0022331Y0341286D01*
X0022124Y0340796D01*
X0021930Y0340301D01*
X0021747Y0339802D01*
X0021577Y0339298D01*
X0021419Y0338791D01*
X0021273Y0338280D01*
X0021139Y0337765D01*
X0021018Y0337247D01*
X0020910Y0336727D01*
X0020814Y0336204D01*
X0020731Y0335679D01*
X0020660Y0335152D01*
X0020603Y0334623D01*
X0020558Y0334094D01*
X0020526Y0333563D01*
X0020506Y0333032D01*
X0020500Y0332500D01*
X0020500Y0048500D02*
X0020457Y0048016D01*
X0020426Y0047531D01*
X0020407Y0047046D01*
X0020400Y0046560D01*
X0020405Y0046075D01*
X0020421Y0045589D01*
X0020449Y0045104D01*
X0020488Y0044620D01*
X0020539Y0044137D01*
X0020602Y0043656D01*
X0020677Y0043176D01*
X0020763Y0042698D01*
X0020861Y0042222D01*
X0020970Y0041748D01*
X0021090Y0041278D01*
X0021222Y0040810D01*
X0021365Y0040346D01*
X0021519Y0039886D01*
X0021685Y0039429D01*
X0021861Y0038976D01*
X0022048Y0038528D01*
X0022246Y0038085D01*
X0022455Y0037646D01*
X0022674Y0037213D01*
X0022904Y0036785D01*
X0023144Y0036362D01*
X0023394Y0035946D01*
X0023654Y0035536D01*
X0023924Y0035132D01*
X0024203Y0034734D01*
X0024492Y0034344D01*
X0024791Y0033961D01*
X0025098Y0033585D01*
X0025415Y0033216D01*
X0025740Y0032856D01*
X0026074Y0032503D01*
X0026417Y0032159D01*
X0026767Y0031823D01*
X0027126Y0031495D01*
X0027493Y0031176D01*
X0027867Y0030866D01*
X0028248Y0030566D01*
X0028637Y0030274D01*
X0029032Y0029992D01*
X0029434Y0029720D01*
X0029843Y0029458D01*
X0030258Y0029205D01*
X0030679Y0028963D01*
X0031106Y0028730D01*
X0031538Y0028509D01*
X0031975Y0028297D01*
X0032417Y0028097D01*
X0032865Y0027907D01*
X0033316Y0027728D01*
X0033772Y0027560D01*
X0034231Y0027403D01*
X0034695Y0027257D01*
X0035161Y0027122D01*
X0035631Y0026999D01*
X0036104Y0026887D01*
X0036579Y0026786D01*
X0037057Y0026697D01*
X0037536Y0026620D01*
X0038017Y0026554D01*
X0038500Y0026500D01*
D12*
X0115522Y0114113D02*
X0115522Y0116742D01*
X0115829Y0117092D01*
X0133574Y0117092D01*
X0133804Y0117216D01*
X0116046Y0128486D01*
X0115522Y0128855D01*
X0115522Y0132141D01*
X0115983Y0132337D01*
X0138329Y0132337D01*
X0138722Y0132072D01*
X0138722Y0129443D01*
X0138182Y0129326D01*
X0120437Y0129326D01*
X0120230Y0129199D01*
X0138716Y0117856D01*
X0138722Y0117202D01*
X0138722Y0114573D01*
X0138525Y0114113D01*
X0115522Y0114113D01*
X0115522Y0116742D01*
X0115829Y0117092D01*
X0133574Y0117092D01*
X0133804Y0117216D01*
X0116046Y0128486D01*
X0115522Y0128855D01*
X0115522Y0132141D01*
X0115983Y0132337D01*
X0138329Y0132337D01*
X0138722Y0132072D01*
X0138722Y0129443D01*
X0138182Y0129326D01*
X0120437Y0129326D01*
X0120230Y0129199D01*
X0138716Y0117856D01*
X0138722Y0117202D01*
X0138722Y0114573D01*
X0138525Y0114113D01*
X0115522Y0114113D01*
X0115522Y0114239D02*
X0138579Y0114239D01*
X0115522Y0114239D01*
X0115522Y0114631D02*
X0138722Y0114631D01*
X0115522Y0114631D01*
X0115522Y0115023D02*
X0138722Y0115023D01*
X0115522Y0115023D01*
X0115522Y0115415D02*
X0138722Y0115415D01*
X0115522Y0115415D01*
X0115522Y0115808D02*
X0138722Y0115808D01*
X0115522Y0115808D01*
X0115522Y0116200D02*
X0138722Y0116200D01*
X0115522Y0116200D01*
X0115522Y0116592D02*
X0138722Y0116592D01*
X0115522Y0116592D01*
X0115735Y0116984D02*
X0138722Y0116984D01*
X0115735Y0116984D01*
X0121191Y0125221D02*
X0126713Y0125221D01*
X0121191Y0125221D01*
X0120573Y0125613D02*
X0126074Y0125613D01*
X0120573Y0125613D01*
X0119955Y0126005D02*
X0125435Y0126005D01*
X0119955Y0126005D01*
X0119337Y0126397D02*
X0124795Y0126397D01*
X0119337Y0126397D01*
X0118719Y0126789D02*
X0124156Y0126789D01*
X0118719Y0126789D01*
X0118101Y0127182D02*
X0123517Y0127182D01*
X0118101Y0127182D01*
X0117483Y0127574D02*
X0122878Y0127574D01*
X0117483Y0127574D01*
X0116865Y0127966D02*
X0122238Y0127966D01*
X0116865Y0127966D01*
X0116247Y0128358D02*
X0121599Y0128358D01*
X0116247Y0128358D01*
X0115670Y0128751D02*
X0120960Y0128751D01*
X0115670Y0128751D01*
X0115522Y0129143D02*
X0120321Y0129143D01*
X0115522Y0129143D01*
X0115522Y0129535D02*
X0138722Y0129535D01*
X0115522Y0129535D01*
X0115522Y0129927D02*
X0138722Y0129927D01*
X0115522Y0129927D01*
X0115522Y0130319D02*
X0138722Y0130319D01*
X0115522Y0130319D01*
X0115522Y0130712D02*
X0138722Y0130712D01*
X0115522Y0130712D01*
X0115522Y0131104D02*
X0138722Y0131104D01*
X0115522Y0131104D01*
X0115522Y0131496D02*
X0138722Y0131496D01*
X0115522Y0131496D01*
X0115522Y0131888D02*
X0138722Y0131888D01*
X0115522Y0131888D01*
X0115851Y0132280D02*
X0138413Y0132280D01*
X0115851Y0132280D01*
X0115522Y0137078D02*
X0115522Y0139707D01*
X0115574Y0140311D01*
X0133315Y0140311D01*
X0133532Y0140384D01*
X0116128Y0146347D01*
X0115522Y0146572D01*
X0115522Y0149200D01*
X0115828Y0149637D01*
X0133880Y0155737D01*
X0133469Y0155778D01*
X0115729Y0155778D01*
X0115522Y0156228D01*
X0115522Y0158856D01*
X0115993Y0159042D01*
X0138333Y0159042D01*
X0138722Y0158774D01*
X0138722Y0154832D01*
X0138374Y0154425D01*
X0119677Y0148183D01*
X0119470Y0147975D01*
X0138167Y0141732D01*
X0138722Y0141475D01*
X0138722Y0137532D01*
X0138519Y0137078D01*
X0115522Y0137078D01*
X0115522Y0137379D02*
X0138653Y0137379D01*
X0138722Y0137771D02*
X0115522Y0137771D01*
X0115522Y0138164D02*
X0138722Y0138164D01*
X0138722Y0138556D02*
X0115522Y0138556D01*
X0115522Y0138948D02*
X0138722Y0138948D01*
X0138722Y0139340D02*
X0115522Y0139340D01*
X0115524Y0139732D02*
X0138722Y0139732D01*
X0138722Y0140125D02*
X0115558Y0140125D01*
X0118263Y0145616D02*
X0126536Y0145616D01*
X0125362Y0146008D02*
X0117118Y0146008D01*
X0115985Y0146400D02*
X0124187Y0146400D01*
X0123012Y0146792D02*
X0115522Y0146792D01*
X0115522Y0147185D02*
X0121838Y0147185D01*
X0120663Y0147577D02*
X0115522Y0147577D01*
X0115522Y0147969D02*
X0119488Y0147969D01*
X0120210Y0148361D02*
X0115522Y0148361D01*
X0115522Y0148753D02*
X0121385Y0148753D01*
X0122560Y0149146D02*
X0115522Y0149146D01*
X0115758Y0149538D02*
X0123735Y0149538D01*
X0124909Y0149930D02*
X0116694Y0149930D01*
X0117855Y0150322D02*
X0126084Y0150322D01*
X0127259Y0150714D02*
X0119015Y0150714D01*
X0120176Y0151107D02*
X0128434Y0151107D01*
X0129608Y0151499D02*
X0121337Y0151499D01*
X0122497Y0151891D02*
X0130783Y0151891D01*
X0131958Y0152283D02*
X0123658Y0152283D01*
X0124819Y0152675D02*
X0133132Y0152675D01*
X0134307Y0153068D02*
X0125979Y0153068D01*
X0127140Y0153460D02*
X0135482Y0153460D01*
X0136657Y0153852D02*
X0128301Y0153852D01*
X0129462Y0154244D02*
X0137831Y0154244D01*
X0138555Y0154637D02*
X0130622Y0154637D01*
X0131783Y0155029D02*
X0138722Y0155029D01*
X0138722Y0155421D02*
X0132944Y0155421D01*
X0138722Y0155813D02*
X0115712Y0155813D01*
X0115532Y0156205D02*
X0138722Y0156205D01*
X0138722Y0156598D02*
X0115522Y0156598D01*
X0115522Y0156990D02*
X0138722Y0156990D01*
X0138722Y0157382D02*
X0115522Y0157382D01*
X0115522Y0157774D02*
X0138722Y0157774D01*
X0138722Y0158166D02*
X0115522Y0158166D01*
X0115522Y0158559D02*
X0138722Y0158559D01*
X0138466Y0158951D02*
X0115762Y0158951D01*
X0115522Y0164048D02*
X0115522Y0164400D01*
X0115522Y0167030D01*
X0116151Y0167059D01*
X0125357Y0167059D01*
X0125506Y0167568D01*
X0125504Y0174802D01*
X0125387Y0175449D01*
X0125211Y0176082D01*
X0124956Y0176687D01*
X0124596Y0177236D01*
X0124112Y0177678D01*
X0123520Y0177958D01*
X0122884Y0178126D01*
X0122240Y0178260D01*
X0121591Y0178362D01*
X0120937Y0178435D01*
X0120281Y0178482D01*
X0119624Y0178500D01*
X0118967Y0178500D01*
X0117656Y0178597D01*
X0117002Y0178666D01*
X0116357Y0178792D01*
X0115724Y0178972D01*
X0115522Y0179484D01*
X0115522Y0182772D01*
X0116173Y0182779D01*
X0116630Y0182357D01*
X0117151Y0181958D01*
X0117758Y0181710D01*
X0118407Y0181610D01*
X0119063Y0181565D01*
X0119720Y0181541D01*
X0121692Y0181543D01*
X0122350Y0181523D01*
X0123003Y0181452D01*
X0123649Y0181331D01*
X0124284Y0181161D01*
X0124905Y0180944D01*
X0125485Y0180637D01*
X0125994Y0180222D01*
X0126426Y0179727D01*
X0126787Y0179178D01*
X0127050Y0179003D01*
X0129133Y0177587D01*
X0128742Y0177122D01*
X0128435Y0176543D01*
X0128267Y0175908D01*
X0128232Y0175252D01*
X0128263Y0174598D01*
X0128263Y0167364D01*
X0128263Y0167059D01*
X0135497Y0167059D01*
X0135996Y0167217D01*
X0135996Y0173793D01*
X0135984Y0174450D01*
X0135911Y0175103D01*
X0135787Y0175749D01*
X0135600Y0176379D01*
X0135331Y0176978D01*
X0134964Y0177523D01*
X0134498Y0177986D01*
X0133973Y0178381D01*
X0133390Y0178683D01*
X0132759Y0178865D01*
X0132105Y0178912D01*
X0131451Y0178847D01*
X0130817Y0178677D01*
X0130218Y0178406D01*
X0129666Y0178049D01*
X0129203Y0177656D01*
X0127116Y0179019D01*
X0127417Y0179547D01*
X0127798Y0180083D01*
X0128242Y0180567D01*
X0128758Y0180974D01*
X0129316Y0181320D01*
X0129911Y0181599D01*
X0130540Y0181791D01*
X0131185Y0181916D01*
X0131839Y0181984D01*
X0132496Y0182015D01*
X0133149Y0181958D01*
X0133794Y0181828D01*
X0134426Y0181650D01*
X0135042Y0181419D01*
X0135633Y0181131D01*
X0136190Y0180783D01*
X0136707Y0180377D01*
X0137176Y0179916D01*
X0137592Y0179408D01*
X0137950Y0178857D01*
X0138243Y0178268D01*
X0138466Y0177650D01*
X0138617Y0177010D01*
X0138701Y0176358D01*
X0138722Y0175701D01*
X0138722Y0164522D01*
X0138538Y0164048D01*
X0115522Y0164048D01*
X0115522Y0164050D02*
X0138539Y0164050D01*
X0138691Y0164442D02*
X0115522Y0164442D01*
X0115522Y0164834D02*
X0138722Y0164834D01*
X0138722Y0165226D02*
X0115522Y0165226D01*
X0115522Y0165618D02*
X0138722Y0165618D01*
X0138722Y0166011D02*
X0115522Y0166011D01*
X0115522Y0166403D02*
X0138722Y0166403D01*
X0138722Y0166795D02*
X0115522Y0166795D01*
X0118141Y0178561D02*
X0127700Y0178561D01*
X0127816Y0178561D02*
X0130561Y0178561D01*
X0129852Y0178169D02*
X0128417Y0178169D01*
X0128277Y0178169D02*
X0122676Y0178169D01*
X0123903Y0177777D02*
X0128854Y0177777D01*
X0129018Y0177777D02*
X0129345Y0177777D01*
X0128963Y0177385D02*
X0124433Y0177385D01*
X0124755Y0176993D02*
X0128673Y0176993D01*
X0128466Y0176600D02*
X0124992Y0176600D01*
X0125158Y0176208D02*
X0128346Y0176208D01*
X0128262Y0175816D02*
X0125285Y0175816D01*
X0125392Y0175424D02*
X0128241Y0175424D01*
X0128242Y0175032D02*
X0125463Y0175032D01*
X0125504Y0174639D02*
X0128261Y0174639D01*
X0128263Y0174247D02*
X0125504Y0174247D01*
X0125504Y0173855D02*
X0128263Y0173855D01*
X0128263Y0173463D02*
X0125505Y0173463D01*
X0125505Y0173071D02*
X0128263Y0173071D01*
X0128263Y0172678D02*
X0125505Y0172678D01*
X0125505Y0172286D02*
X0128263Y0172286D01*
X0128263Y0171894D02*
X0125505Y0171894D01*
X0125505Y0171502D02*
X0128263Y0171502D01*
X0128263Y0171109D02*
X0125505Y0171109D01*
X0125505Y0170717D02*
X0128263Y0170717D01*
X0128263Y0170325D02*
X0125505Y0170325D01*
X0125505Y0169933D02*
X0128263Y0169933D01*
X0128263Y0169541D02*
X0125505Y0169541D01*
X0125505Y0169148D02*
X0128263Y0169148D01*
X0128263Y0168756D02*
X0125505Y0168756D01*
X0125506Y0168364D02*
X0128263Y0168364D01*
X0128263Y0167972D02*
X0125506Y0167972D01*
X0125506Y0167580D02*
X0128263Y0167580D01*
X0128263Y0167187D02*
X0125395Y0167187D01*
X0127123Y0178954D02*
X0115787Y0178954D01*
X0115577Y0179346D02*
X0126676Y0179346D01*
X0126416Y0179738D02*
X0115522Y0179738D01*
X0115522Y0180130D02*
X0126074Y0180130D01*
X0125626Y0180523D02*
X0115522Y0180523D01*
X0115522Y0180915D02*
X0124961Y0180915D01*
X0123741Y0181307D02*
X0115522Y0181307D01*
X0115522Y0181699D02*
X0117831Y0181699D01*
X0116977Y0182091D02*
X0115522Y0182091D01*
X0115522Y0182484D02*
X0116493Y0182484D01*
X0118564Y0186014D02*
X0129110Y0186014D01*
X0129268Y0186086D02*
X0129837Y0186409D01*
X0130371Y0186788D01*
X0130858Y0187225D01*
X0131297Y0187711D01*
X0131698Y0188228D01*
X0132055Y0188776D01*
X0132359Y0189356D01*
X0132602Y0189964D01*
X0132778Y0190594D01*
X0132882Y0191241D01*
X0132921Y0191893D01*
X0132889Y0192547D01*
X0132798Y0193195D01*
X0132643Y0193831D01*
X0132429Y0194449D01*
X0132155Y0195044D01*
X0131825Y0195609D01*
X0131433Y0196133D01*
X0130978Y0196604D01*
X0130502Y0196997D01*
X0138360Y0196997D01*
X0138722Y0197291D01*
X0138722Y0199255D01*
X0138566Y0199755D01*
X0115645Y0199755D01*
X0115522Y0199223D01*
X0115522Y0197913D01*
X0115768Y0197504D01*
X0117078Y0197504D01*
X0117284Y0197422D01*
X0118885Y0195664D01*
X0119378Y0196016D01*
X0119959Y0196317D01*
X0120571Y0196548D01*
X0121203Y0196720D01*
X0121846Y0196844D01*
X0122495Y0196926D01*
X0123148Y0196975D01*
X0123803Y0196996D01*
X0124458Y0196989D01*
X0125111Y0196945D01*
X0125760Y0196856D01*
X0126399Y0196714D01*
X0127020Y0196509D01*
X0127613Y0196232D01*
X0128162Y0195875D01*
X0128651Y0195441D01*
X0129088Y0194953D01*
X0129461Y0194416D01*
X0129750Y0193829D01*
X0129936Y0193202D01*
X0130006Y0192552D01*
X0129973Y0191899D01*
X0129828Y0191261D01*
X0129574Y0190658D01*
X0129229Y0190102D01*
X0128814Y0189596D01*
X0128345Y0189139D01*
X0127815Y0188756D01*
X0127233Y0188458D01*
X0126614Y0188244D01*
X0125975Y0188104D01*
X0125325Y0188028D01*
X0124670Y0188006D01*
X0124016Y0188028D01*
X0123862Y0188024D01*
X0123207Y0188030D01*
X0122554Y0188074D01*
X0121905Y0188163D01*
X0121266Y0188302D01*
X0120642Y0188500D01*
X0120042Y0188761D01*
X0119476Y0189091D01*
X0118956Y0189488D01*
X0118479Y0189936D01*
X0118053Y0190433D01*
X0117698Y0190983D01*
X0117437Y0191582D01*
X0117292Y0192220D01*
X0117271Y0192874D01*
X0117374Y0193519D01*
X0117605Y0194131D01*
X0117944Y0194690D01*
X0118366Y0195191D01*
X0118809Y0195602D01*
X0117289Y0197376D01*
X0116789Y0197035D01*
X0116313Y0196587D01*
X0115905Y0196075D01*
X0115562Y0195517D01*
X0115276Y0194929D01*
X0115046Y0194316D01*
X0114880Y0193682D01*
X0114775Y0193036D01*
X0114732Y0192383D01*
X0114762Y0191730D01*
X0114834Y0191079D01*
X0114974Y0190440D01*
X0115182Y0189819D01*
X0115454Y0189224D01*
X0115783Y0188658D01*
X0116162Y0188124D01*
X0116584Y0187624D01*
X0117041Y0187155D01*
X0117527Y0186716D01*
X0118049Y0186321D01*
X0118611Y0185986D01*
X0119204Y0185708D01*
X0119819Y0185483D01*
X0120449Y0185305D01*
X0121090Y0185169D01*
X0121737Y0185070D01*
X0122388Y0185003D01*
X0123042Y0184964D01*
X0123696Y0184950D01*
X0124351Y0184957D01*
X0125006Y0184985D01*
X0125506Y0185017D01*
X0126153Y0185116D01*
X0126796Y0185241D01*
X0127432Y0185395D01*
X0128059Y0185585D01*
X0128672Y0185813D01*
X0129268Y0186086D01*
X0129831Y0186406D02*
X0117937Y0186406D01*
X0117436Y0186798D02*
X0130382Y0186798D01*
X0130819Y0187190D02*
X0117007Y0187190D01*
X0116624Y0187582D02*
X0131181Y0187582D01*
X0131502Y0187975D02*
X0116289Y0187975D01*
X0115990Y0188367D02*
X0121062Y0188367D01*
X0120047Y0188759D02*
X0115724Y0188759D01*
X0115496Y0189151D02*
X0119397Y0189151D01*
X0118897Y0189543D02*
X0115308Y0189543D01*
X0115143Y0189936D02*
X0118479Y0189936D01*
X0118143Y0190328D02*
X0115011Y0190328D01*
X0114913Y0190720D02*
X0117868Y0190720D01*
X0117642Y0191112D02*
X0114831Y0191112D01*
X0114787Y0191504D02*
X0117471Y0191504D01*
X0117366Y0191897D02*
X0114754Y0191897D01*
X0114736Y0192289D02*
X0117290Y0192289D01*
X0117277Y0192681D02*
X0114752Y0192681D01*
X0114781Y0193073D02*
X0117303Y0193073D01*
X0117365Y0193466D02*
X0114845Y0193466D01*
X0114926Y0193858D02*
X0117502Y0193858D01*
X0117677Y0194250D02*
X0115029Y0194250D01*
X0115168Y0194642D02*
X0117915Y0194642D01*
X0118234Y0195034D02*
X0115327Y0195034D01*
X0115518Y0195427D02*
X0118620Y0195427D01*
X0118624Y0195819D02*
X0115747Y0195819D01*
X0116013Y0196211D02*
X0118287Y0196211D01*
X0118387Y0196211D02*
X0119754Y0196211D01*
X0119101Y0195819D02*
X0118745Y0195819D01*
X0118030Y0196603D02*
X0120774Y0196603D01*
X0117951Y0196603D02*
X0116330Y0196603D01*
X0116747Y0196995D02*
X0117615Y0196995D01*
X0117672Y0196995D02*
X0123794Y0196995D01*
X0123829Y0196995D02*
X0130504Y0196995D01*
X0130979Y0196603D02*
X0126734Y0196603D01*
X0127645Y0196211D02*
X0131358Y0196211D01*
X0131668Y0195819D02*
X0128225Y0195819D01*
X0128664Y0195427D02*
X0131932Y0195427D01*
X0132160Y0195034D02*
X0129015Y0195034D01*
X0129304Y0194642D02*
X0132340Y0194642D01*
X0132498Y0194250D02*
X0129543Y0194250D01*
X0129736Y0193858D02*
X0132634Y0193858D01*
X0132732Y0193466D02*
X0129858Y0193466D01*
X0129950Y0193073D02*
X0132815Y0193073D01*
X0132870Y0192681D02*
X0129992Y0192681D01*
X0129993Y0192289D02*
X0132902Y0192289D01*
X0132921Y0191897D02*
X0129973Y0191897D01*
X0129883Y0191504D02*
X0132898Y0191504D01*
X0132861Y0191112D02*
X0129765Y0191112D01*
X0129600Y0190720D02*
X0132798Y0190720D01*
X0132704Y0190328D02*
X0129369Y0190328D01*
X0129093Y0189936D02*
X0132591Y0189936D01*
X0132434Y0189543D02*
X0128760Y0189543D01*
X0128357Y0189151D02*
X0132252Y0189151D01*
X0132044Y0188759D02*
X0127819Y0188759D01*
X0126969Y0188367D02*
X0131789Y0188367D01*
X0130238Y0181699D02*
X0134252Y0181699D01*
X0135271Y0181307D02*
X0129295Y0181307D01*
X0128682Y0180915D02*
X0135980Y0180915D01*
X0136522Y0180523D02*
X0128202Y0180523D01*
X0127841Y0180130D02*
X0136958Y0180130D01*
X0137321Y0179738D02*
X0127553Y0179738D01*
X0127302Y0179346D02*
X0137632Y0179346D01*
X0137887Y0178954D02*
X0127216Y0178954D01*
X0126737Y0185229D02*
X0120808Y0185229D01*
X0119440Y0185621D02*
X0128158Y0185621D01*
X0133625Y0178561D02*
X0138097Y0178561D01*
X0138279Y0178169D02*
X0134255Y0178169D01*
X0134708Y0177777D02*
X0138420Y0177777D01*
X0138529Y0177385D02*
X0135057Y0177385D01*
X0135321Y0176993D02*
X0138620Y0176993D01*
X0138670Y0176600D02*
X0135500Y0176600D01*
X0135651Y0176208D02*
X0138706Y0176208D01*
X0138718Y0175816D02*
X0135768Y0175816D01*
X0135850Y0175424D02*
X0138722Y0175424D01*
X0138722Y0175032D02*
X0135919Y0175032D01*
X0135963Y0174639D02*
X0138722Y0174639D01*
X0138722Y0174247D02*
X0135988Y0174247D01*
X0135995Y0173855D02*
X0138722Y0173855D01*
X0138722Y0173463D02*
X0135996Y0173463D01*
X0135996Y0173071D02*
X0138722Y0173071D01*
X0138722Y0172678D02*
X0135996Y0172678D01*
X0135996Y0172286D02*
X0138722Y0172286D01*
X0138722Y0171894D02*
X0135996Y0171894D01*
X0135996Y0171502D02*
X0138722Y0171502D01*
X0138722Y0171109D02*
X0135996Y0171109D01*
X0135996Y0170717D02*
X0138722Y0170717D01*
X0138722Y0170325D02*
X0135996Y0170325D01*
X0135996Y0169933D02*
X0138722Y0169933D01*
X0138722Y0169541D02*
X0135996Y0169541D01*
X0135996Y0169148D02*
X0138722Y0169148D01*
X0138722Y0168756D02*
X0135996Y0168756D01*
X0135996Y0168364D02*
X0138722Y0168364D01*
X0138722Y0167972D02*
X0135996Y0167972D01*
X0135996Y0167580D02*
X0138722Y0167580D01*
X0138722Y0167187D02*
X0135903Y0167187D01*
X0128886Y0144831D02*
X0120553Y0144831D01*
X0121698Y0144439D02*
X0130061Y0144439D01*
X0131235Y0144047D02*
X0122842Y0144047D01*
X0123987Y0143655D02*
X0132410Y0143655D01*
X0133585Y0143262D02*
X0125132Y0143262D01*
X0126277Y0142870D02*
X0134759Y0142870D01*
X0135934Y0142478D02*
X0127421Y0142478D01*
X0128566Y0142086D02*
X0137109Y0142086D01*
X0138251Y0141694D02*
X0129711Y0141694D01*
X0130856Y0141301D02*
X0138722Y0141301D01*
X0138722Y0140909D02*
X0132001Y0140909D01*
X0133145Y0140517D02*
X0138722Y0140517D01*
X0127711Y0145223D02*
X0119408Y0145223D01*
X0121809Y0124828D02*
X0127352Y0124828D01*
X0121809Y0124828D01*
X0122427Y0124436D02*
X0127992Y0124436D01*
X0122427Y0124436D01*
X0123045Y0124044D02*
X0128631Y0124044D01*
X0123045Y0124044D01*
X0123663Y0123652D02*
X0129270Y0123652D01*
X0123663Y0123652D01*
X0124281Y0123260D02*
X0129909Y0123260D01*
X0124281Y0123260D01*
X0124899Y0122867D02*
X0130549Y0122867D01*
X0124899Y0122867D01*
X0125517Y0122475D02*
X0131188Y0122475D01*
X0125517Y0122475D01*
X0126135Y0122083D02*
X0131827Y0122083D01*
X0126135Y0122083D01*
X0126753Y0121691D02*
X0132466Y0121691D01*
X0126753Y0121691D01*
X0127371Y0121299D02*
X0133106Y0121299D01*
X0127371Y0121299D01*
X0127989Y0120906D02*
X0133745Y0120906D01*
X0127989Y0120906D01*
X0128607Y0120514D02*
X0134384Y0120514D01*
X0128607Y0120514D01*
X0129225Y0120122D02*
X0135023Y0120122D01*
X0129225Y0120122D01*
X0129843Y0119730D02*
X0135663Y0119730D01*
X0129843Y0119730D01*
X0130461Y0119337D02*
X0136302Y0119337D01*
X0130461Y0119337D01*
X0131079Y0118945D02*
X0136941Y0118945D01*
X0131079Y0118945D01*
X0131697Y0118553D02*
X0137580Y0118553D01*
X0131697Y0118553D01*
X0132315Y0118161D02*
X0138220Y0118161D01*
X0132315Y0118161D01*
X0132933Y0117769D02*
X0138717Y0117769D01*
X0132933Y0117769D01*
X0133551Y0117376D02*
X0138720Y0117376D01*
X0133551Y0117376D01*
X0138722Y0197388D02*
X0117315Y0197388D01*
X0115602Y0197780D02*
X0138722Y0197780D01*
X0138722Y0198172D02*
X0115522Y0198172D01*
X0115522Y0198564D02*
X0138722Y0198564D01*
X0138722Y0198957D02*
X0115522Y0198957D01*
X0115551Y0199349D02*
X0138693Y0199349D01*
X0138570Y0199741D02*
X0115642Y0199741D01*
X0117253Y0204447D02*
X0132256Y0204447D01*
X0132256Y0204055D02*
X0118761Y0204055D01*
X0118459Y0204092D02*
X0119112Y0204013D01*
X0119769Y0203989D01*
X0119769Y0203989D01*
X0131608Y0203989D01*
X0132256Y0203998D01*
X0132256Y0206629D01*
X0131684Y0206714D01*
X0120502Y0206714D01*
X0119845Y0206730D01*
X0119194Y0206823D01*
X0118571Y0207027D01*
X0118014Y0207373D01*
X0117576Y0207861D01*
X0117266Y0208440D01*
X0117104Y0209075D01*
X0117081Y0209732D01*
X0117182Y0210380D01*
X0117365Y0211011D01*
X0117639Y0211608D01*
X0117985Y0212167D01*
X0118392Y0212683D01*
X0118849Y0213156D01*
X0119351Y0213580D01*
X0119908Y0213929D01*
X0120509Y0214194D01*
X0121143Y0214369D01*
X0121794Y0214460D01*
X0122451Y0214479D01*
X0131659Y0214479D01*
X0132257Y0214540D01*
X0132257Y0217170D01*
X0131633Y0217205D01*
X0115848Y0217205D01*
X0115522Y0216873D01*
X0115522Y0214900D01*
X0115760Y0214479D01*
X0117075Y0214479D01*
X0116933Y0214150D01*
X0116501Y0213655D01*
X0116113Y0213124D01*
X0115772Y0212562D01*
X0115478Y0211974D01*
X0115228Y0211365D01*
X0115028Y0210739D01*
X0114882Y0210098D01*
X0114794Y0209446D01*
X0114730Y0208793D01*
X0114764Y0208136D01*
X0114876Y0207489D01*
X0115071Y0206861D01*
X0115348Y0206265D01*
X0115701Y0205711D01*
X0116124Y0205208D01*
X0116629Y0204788D01*
X0117202Y0204466D01*
X0117818Y0204238D01*
X0118459Y0204092D01*
X0116567Y0204840D02*
X0132256Y0204840D01*
X0132256Y0205232D02*
X0116104Y0205232D01*
X0115774Y0205624D02*
X0132256Y0205624D01*
X0132256Y0206016D02*
X0115507Y0206016D01*
X0115281Y0206409D02*
X0132256Y0206409D01*
X0132257Y0214645D02*
X0115666Y0214645D01*
X0115522Y0215037D02*
X0132257Y0215037D01*
X0132257Y0215429D02*
X0115522Y0215429D01*
X0115522Y0215822D02*
X0132257Y0215822D01*
X0132257Y0216214D02*
X0115522Y0216214D01*
X0115522Y0216606D02*
X0132257Y0216606D01*
X0132257Y0216998D02*
X0115645Y0216998D01*
X0116977Y0214253D02*
X0120723Y0214253D01*
X0119798Y0213861D02*
X0116680Y0213861D01*
X0116365Y0213468D02*
X0119218Y0213468D01*
X0118772Y0213076D02*
X0116084Y0213076D01*
X0115847Y0212684D02*
X0118393Y0212684D01*
X0118083Y0212292D02*
X0115637Y0212292D01*
X0115448Y0211900D02*
X0117819Y0211900D01*
X0117592Y0211507D02*
X0115287Y0211507D01*
X0115148Y0211115D02*
X0117413Y0211115D01*
X0117282Y0210723D02*
X0115024Y0210723D01*
X0114935Y0210331D02*
X0117174Y0210331D01*
X0117113Y0209938D02*
X0114860Y0209938D01*
X0114807Y0209546D02*
X0117087Y0209546D01*
X0117101Y0209154D02*
X0114765Y0209154D01*
X0114731Y0208762D02*
X0117184Y0208762D01*
X0117304Y0208370D02*
X0114752Y0208370D01*
X0114792Y0207977D02*
X0117513Y0207977D01*
X0117823Y0207585D02*
X0114860Y0207585D01*
X0114968Y0207193D02*
X0118304Y0207193D01*
X0119348Y0206801D02*
X0115099Y0206801D01*
X0115522Y0221439D02*
X0115522Y0224129D01*
X0116114Y0224196D01*
X0131952Y0224196D01*
X0132256Y0223841D01*
X0132256Y0221862D01*
X0132019Y0221439D01*
X0115522Y0221439D01*
X0115522Y0221705D02*
X0132168Y0221705D01*
X0132256Y0222097D02*
X0115522Y0222097D01*
X0115522Y0222489D02*
X0132256Y0222489D01*
X0132256Y0222881D02*
X0115522Y0222881D01*
X0115522Y0223274D02*
X0132256Y0223274D01*
X0132256Y0223666D02*
X0115522Y0223666D01*
X0115522Y0224058D02*
X0132070Y0224058D01*
X0135236Y0224058D02*
X0138536Y0224058D01*
X0138417Y0224196D02*
X0135778Y0224196D01*
X0135236Y0224079D01*
X0135236Y0221439D01*
X0138485Y0221439D01*
X0138722Y0221862D01*
X0138722Y0223841D01*
X0138417Y0224196D01*
X0138722Y0223666D02*
X0135236Y0223666D01*
X0135236Y0223274D02*
X0138722Y0223274D01*
X0138722Y0222881D02*
X0135236Y0222881D01*
X0135236Y0222489D02*
X0138722Y0222489D01*
X0138722Y0222097D02*
X0135236Y0222097D01*
X0135236Y0221705D02*
X0138634Y0221705D01*
X0132256Y0228975D02*
X0132256Y0230939D01*
X0132076Y0231413D01*
X0130112Y0231413D01*
X0130507Y0231633D01*
X0131012Y0232048D01*
X0131422Y0232557D01*
X0131759Y0233118D01*
X0132042Y0233708D01*
X0132275Y0234319D01*
X0132458Y0234948D01*
X0132590Y0235589D01*
X0132672Y0236238D01*
X0132700Y0236892D01*
X0132687Y0237546D01*
X0132611Y0238196D01*
X0132462Y0238833D01*
X0132240Y0239449D01*
X0131948Y0240034D01*
X0131591Y0240583D01*
X0131148Y0241063D01*
X0130610Y0241434D01*
X0130008Y0241690D01*
X0129372Y0241843D01*
X0128722Y0241914D01*
X0128067Y0241920D01*
X0127413Y0241904D01*
X0115629Y0241904D01*
X0115522Y0241356D01*
X0115522Y0239392D01*
X0115963Y0239178D01*
X0127092Y0239178D01*
X0127746Y0239148D01*
X0128382Y0239001D01*
X0128960Y0238697D01*
X0129421Y0238236D01*
X0129773Y0237686D01*
X0130010Y0237076D01*
X0130121Y0236432D01*
X0130109Y0235779D01*
X0130024Y0235131D01*
X0129825Y0234508D01*
X0129540Y0233919D01*
X0129182Y0233372D01*
X0128762Y0232870D01*
X0128289Y0232418D01*
X0127750Y0232049D01*
X0127158Y0231770D01*
X0126532Y0231579D01*
X0125888Y0231465D01*
X0125235Y0231417D01*
X0116070Y0231413D01*
X0115522Y0231306D01*
X0115522Y0228688D01*
X0115522Y0228688D01*
X0131889Y0228688D01*
X0132256Y0228975D01*
X0132256Y0229157D02*
X0115522Y0229157D01*
X0115522Y0229549D02*
X0132256Y0229549D01*
X0132256Y0229941D02*
X0115522Y0229941D01*
X0115522Y0230333D02*
X0132256Y0230333D01*
X0132256Y0230726D02*
X0115522Y0230726D01*
X0115522Y0231118D02*
X0132188Y0231118D01*
X0131211Y0232295D02*
X0128109Y0232295D01*
X0128571Y0232687D02*
X0131500Y0232687D01*
X0131736Y0233079D02*
X0128937Y0233079D01*
X0129246Y0233471D02*
X0131928Y0233471D01*
X0132101Y0233863D02*
X0129503Y0233863D01*
X0129703Y0234256D02*
X0132251Y0234256D01*
X0132371Y0234648D02*
X0129869Y0234648D01*
X0129995Y0235040D02*
X0132477Y0235040D01*
X0132558Y0235432D02*
X0130063Y0235432D01*
X0130109Y0235824D02*
X0132620Y0235824D01*
X0132669Y0236217D02*
X0130117Y0236217D01*
X0130091Y0236609D02*
X0132688Y0236609D01*
X0132698Y0237001D02*
X0130023Y0237001D01*
X0129887Y0237393D02*
X0132690Y0237393D01*
X0132659Y0237786D02*
X0129710Y0237786D01*
X0129459Y0238178D02*
X0132613Y0238178D01*
X0132523Y0238570D02*
X0129087Y0238570D01*
X0128456Y0238962D02*
X0132415Y0238962D01*
X0132274Y0239354D02*
X0115600Y0239354D01*
X0115522Y0239747D02*
X0132091Y0239747D01*
X0131880Y0240139D02*
X0115522Y0240139D01*
X0115522Y0240531D02*
X0131625Y0240531D01*
X0131277Y0240923D02*
X0115522Y0240923D01*
X0115522Y0241315D02*
X0130781Y0241315D01*
X0129933Y0241708D02*
X0115591Y0241708D01*
X0114103Y0245997D02*
X0116846Y0247500D01*
X0116994Y0247554D01*
X0117233Y0247302D01*
X0117486Y0247063D01*
X0117752Y0246840D01*
X0118030Y0246631D01*
X0118173Y0246533D01*
X0118468Y0246349D01*
X0118773Y0246183D01*
X0119087Y0246035D01*
X0119247Y0245967D01*
X0119573Y0245846D01*
X0119905Y0245742D01*
X0120241Y0245657D01*
X0120582Y0245590D01*
X0120754Y0245563D01*
X0121271Y0245495D01*
X0121789Y0245440D01*
X0122309Y0245404D01*
X0122830Y0245384D01*
X0123177Y0245377D01*
X0123699Y0245387D01*
X0124219Y0245414D01*
X0124739Y0245457D01*
X0125256Y0245517D01*
X0125600Y0245567D01*
X0126114Y0245658D01*
X0126454Y0245729D01*
X0126960Y0245854D01*
X0127294Y0245950D01*
X0127789Y0246113D01*
X0128114Y0246235D01*
X0128435Y0246369D01*
X0128750Y0246514D01*
X0129060Y0246671D01*
X0129363Y0246841D01*
X0129659Y0247024D01*
X0129947Y0247219D01*
X0130225Y0247426D01*
X0130494Y0247647D01*
X0130752Y0247880D01*
X0130998Y0248125D01*
X0131091Y0248271D01*
X0131257Y0248576D01*
X0131486Y0249044D01*
X0131690Y0249524D01*
X0131866Y0250014D01*
X0132014Y0250514D01*
X0132096Y0250852D01*
X0132165Y0251192D01*
X0132221Y0251535D01*
X0132262Y0251880D01*
X0132290Y0252227D01*
X0132303Y0252574D01*
X0132302Y0252921D01*
X0132287Y0253268D01*
X0132257Y0253615D01*
X0132213Y0253959D01*
X0132154Y0254302D01*
X0132081Y0254641D01*
X0131993Y0254978D01*
X0131892Y0255310D01*
X0131776Y0255638D01*
X0131889Y0255735D01*
X0133262Y0256485D01*
X0134500Y0254196D01*
X0134584Y0254060D01*
X0139874Y0261597D01*
X0130670Y0261307D01*
X0130738Y0261162D01*
X0132059Y0258716D01*
X0132122Y0258570D01*
X0130572Y0257784D01*
X0130458Y0257898D01*
X0130227Y0258159D01*
X0129985Y0258408D01*
X0129601Y0258760D01*
X0129332Y0258980D01*
X0129053Y0259186D01*
X0128764Y0259380D01*
X0128466Y0259559D01*
X0128160Y0259724D01*
X0127847Y0259875D01*
X0127365Y0260072D01*
X0127037Y0260185D01*
X0126703Y0260283D01*
X0126365Y0260365D01*
X0126024Y0260432D01*
X0125681Y0260484D01*
X0124817Y0260578D01*
X0124471Y0260608D01*
X0124124Y0260628D01*
X0123603Y0260639D01*
X0123256Y0260633D01*
X0122735Y0260605D01*
X0122389Y0260573D01*
X0121872Y0260505D01*
X0121530Y0260446D01*
X0121021Y0260336D01*
X0120684Y0260249D01*
X0120186Y0260095D01*
X0119859Y0259977D01*
X0119537Y0259847D01*
X0119220Y0259705D01*
X0118909Y0259550D01*
X0118605Y0259381D01*
X0118309Y0259200D01*
X0118021Y0259006D01*
X0117742Y0258799D01*
X0117473Y0258579D01*
X0117215Y0258346D01*
X0116968Y0258101D01*
X0116734Y0257844D01*
X0116622Y0257712D01*
X0116410Y0257436D01*
X0116240Y0257133D01*
X0116082Y0256824D01*
X0115935Y0256509D01*
X0115800Y0256189D01*
X0115677Y0255864D01*
X0115567Y0255534D01*
X0115469Y0255201D01*
X0115345Y0254695D01*
X0115278Y0254354D01*
X0115224Y0254010D01*
X0115183Y0253665D01*
X0115155Y0253319D01*
X0115141Y0252972D01*
X0115139Y0252624D01*
X0115152Y0252277D01*
X0115177Y0251931D01*
X0115241Y0251413D01*
X0115301Y0251071D01*
X0115418Y0250563D01*
X0115513Y0250229D01*
X0115463Y0250106D01*
X0112674Y0248690D01*
X0112686Y0248559D01*
X0114010Y0246115D01*
X0114103Y0245997D01*
X0114084Y0246022D02*
X0114149Y0246022D01*
X0113848Y0246414D02*
X0114865Y0246414D01*
X0115581Y0246806D02*
X0113636Y0246806D01*
X0113423Y0247199D02*
X0116297Y0247199D01*
X0117342Y0247199D02*
X0129917Y0247199D01*
X0130426Y0247591D02*
X0113211Y0247591D01*
X0112998Y0247983D02*
X0130856Y0247983D01*
X0131148Y0248375D02*
X0112786Y0248375D01*
X0112827Y0248767D02*
X0131351Y0248767D01*
X0131535Y0249160D02*
X0113599Y0249160D01*
X0114371Y0249552D02*
X0131700Y0249552D01*
X0131841Y0249944D02*
X0115143Y0249944D01*
X0115482Y0250336D02*
X0131961Y0250336D01*
X0132066Y0250729D02*
X0115380Y0250729D01*
X0115293Y0251121D02*
X0132151Y0251121D01*
X0132217Y0251513D02*
X0115229Y0251513D01*
X0115180Y0251905D02*
X0132264Y0251905D01*
X0132293Y0252297D02*
X0115151Y0252297D01*
X0115140Y0252690D02*
X0132303Y0252690D01*
X0132295Y0253082D02*
X0115145Y0253082D01*
X0115168Y0253474D02*
X0132269Y0253474D01*
X0132225Y0253866D02*
X0115207Y0253866D01*
X0115263Y0254258D02*
X0132162Y0254258D01*
X0132079Y0254651D02*
X0115336Y0254651D01*
X0115430Y0255043D02*
X0131974Y0255043D01*
X0131847Y0255435D02*
X0115538Y0255435D01*
X0115665Y0255827D02*
X0132058Y0255827D01*
X0132775Y0256219D02*
X0115813Y0256219D01*
X0115983Y0256612D02*
X0136375Y0256612D01*
X0136650Y0257004D02*
X0116174Y0257004D01*
X0116388Y0257396D02*
X0136926Y0257396D01*
X0137201Y0257788D02*
X0130581Y0257788D01*
X0130568Y0257788D02*
X0116687Y0257788D01*
X0117048Y0258181D02*
X0130206Y0258181D01*
X0129806Y0258573D02*
X0117466Y0258573D01*
X0117965Y0258965D02*
X0129350Y0258965D01*
X0128797Y0259357D02*
X0118565Y0259357D01*
X0119319Y0259749D02*
X0128108Y0259749D01*
X0127164Y0260142D02*
X0120337Y0260142D01*
X0122088Y0260534D02*
X0125222Y0260534D01*
X0130865Y0260926D02*
X0139403Y0260926D01*
X0139678Y0261318D02*
X0131029Y0261318D01*
X0131077Y0260534D02*
X0139128Y0260534D01*
X0138852Y0260142D02*
X0131289Y0260142D01*
X0131501Y0259749D02*
X0138577Y0259749D01*
X0138302Y0259357D02*
X0131713Y0259357D01*
X0131925Y0258965D02*
X0138027Y0258965D01*
X0137751Y0258573D02*
X0132121Y0258573D01*
X0131354Y0258181D02*
X0137476Y0258181D01*
X0136100Y0256219D02*
X0133405Y0256219D01*
X0133618Y0255827D02*
X0135824Y0255827D01*
X0135549Y0255435D02*
X0133830Y0255435D01*
X0134042Y0255043D02*
X0135274Y0255043D01*
X0134999Y0254651D02*
X0134254Y0254651D01*
X0134467Y0254258D02*
X0134723Y0254258D01*
X0129301Y0246806D02*
X0117796Y0246806D01*
X0118364Y0246414D02*
X0128534Y0246414D01*
X0127513Y0246022D02*
X0119117Y0246022D01*
X0120381Y0245630D02*
X0125956Y0245630D01*
X0127438Y0231902D02*
X0130835Y0231902D01*
X0130286Y0231510D02*
X0126142Y0231510D01*
X0131988Y0228765D02*
X0115522Y0228765D01*
M02*
