%
M48
M72
T01C0.0236
T02C0.0400
T03C0.0500
T04C0.0650
T05C0.0700
T06C0.1260
%
T01
X5550Y7550
X6850Y11350
X7450Y11850
X7050Y12450
X6750Y13850
X7450Y14050
X6750Y15450
X6350Y17150
X7350Y17750
X7950Y18250
X7250Y19000
X6250Y18950
X6300Y20550
X6300Y21900
X7350Y22750
X8200Y21750
X8450Y21050
X8550Y19550
X8550Y19150
X5000Y20900
X7300Y24650
X7950Y25000
X6310Y25070
X5300Y24900
X4776Y28000
X5800Y29050
X7100Y29050
X8124Y28000
X9950Y29250
X9950Y29850
X17050Y16550
X18050Y10050
X19050Y10050
X19550Y10050
X19050Y5050
X18550Y4550
X18050Y5050
X16050Y5050
X15550Y4550
X15050Y5050
X15050Y10050
X11250Y9050
X9250Y7550
X9350Y11950
X9550Y13350
X8550Y13750
X11150Y11950
X5050Y16350
X4350Y15750
X2950Y11150
X2950Y10850
T02
X3550Y16550
X3550Y17550
X3550Y18550
X3550Y19550
X3550Y20550
X3550Y21550
X3550Y22550
X3550Y23550
X3550Y24550
X3550Y25550
X3550Y26550
X3550Y27550
X3550Y28550
X3550Y29550
X3550Y30550
X9550Y30550
X9550Y29550
X9550Y28550
X9550Y27550
X9550Y26550
X9550Y25550
X9550Y24550
X9550Y23550
X9550Y22550
X9550Y19550
X9550Y18550
X9550Y17550
X9550Y16550
X9550Y15550
X9550Y14550
X15550Y14050
X15550Y13050
X15550Y12050
X15550Y11050
X15550Y10050
X15550Y9050
X15550Y8050
X15550Y7050
X15550Y6050
X15550Y5050
X18550Y5050
X18550Y6050
X18550Y7050
X18550Y8050
X18550Y9050
X18550Y10050
X18550Y11050
X18550Y12050
X18550Y13050
X18550Y14050
X18550Y17550
X18550Y18550
X18550Y19550
X18550Y20550
X18550Y21550
X18550Y22550
X18550Y23550
X18550Y24550
X18550Y25550
X18550Y26550
X18550Y27550
X18550Y28550
X18550Y29550
X18550Y30550
X15550Y30550
X15550Y29550
X15550Y28550
X15550Y27550
X15550Y26550
X15550Y25550
X15550Y24550
X15550Y23550
X15550Y22550
X15550Y21550
X15550Y20550
X15550Y19550
X15550Y18550
X15550Y17550
T03
X21450Y18550
X21450Y23550
X21450Y28550
X21450Y13050
X21450Y7050
X10650Y4750
X5950Y4750
T04
X5330Y31830
X6550Y33050
X7770Y31830
X7770Y34270
X5330Y34270
X11130Y34270
X12350Y33050
X11130Y31830
X13570Y31830
X13570Y34270
X17080Y34270
X18300Y33050
X17080Y31830
X19520Y31830
X19520Y34270
T05
X20446Y29554
X20446Y27546
X20446Y24554
X20446Y22546
X22454Y22546
X22454Y24554
X22454Y27546
X22454Y29554
X22454Y19554
X22454Y17546
X20446Y17546
X20446Y19554
X20446Y14054
X20446Y12046
X22454Y12046
X22454Y14054
X22454Y8054
X22454Y6046
X20446Y6046
X20446Y8054
X11654Y5754
X11654Y3746
X9646Y3746
X9646Y5754
X6954Y5754
X6954Y3746
X4946Y3746
X4946Y5754
T06
X3650Y4050
X21650Y4050
X21650Y33850
X3650Y33850
M30
