G75*
%MOIN*%
%OFA0B0*%
%FSLAX25Y25*%
%IPPOS*%
%LPD*%
%AMOC8*
5,1,8,0,0,1.08239X$1,22.5*
%
%ADD10C,0.00000*%
%ADD11C,0.01000*%
%ADD12C,0.00394*%
%ADD13R,0.01000X0.00334*%
%ADD14R,0.00670X0.00334*%
%ADD15R,0.00660X0.00334*%
%ADD16R,0.00660X0.00333*%
%ADD17R,0.01000X0.00333*%
%ADD18R,0.02660X0.00333*%
%ADD19R,0.00670X0.00333*%
%ADD20R,0.04660X0.00333*%
%ADD21R,0.03000X0.00333*%
%ADD22R,0.00330X0.00333*%
%ADD23R,0.02670X0.00333*%
%ADD24R,0.01340X0.00333*%
%ADD25R,0.01330X0.00333*%
%ADD26R,0.01330X0.00334*%
%ADD27R,0.00340X0.00333*%
%ADD28R,0.00340X0.00334*%
%ADD29R,0.04660X0.00334*%
%ADD30R,0.01340X0.00334*%
%ADD31R,0.00330X0.00334*%
%ADD32R,0.02000X0.00334*%
%ADD33R,0.02000X0.00333*%
%ADD34R,0.01670X0.00333*%
%ADD35R,0.01670X0.00334*%
%ADD36R,0.05000X0.00334*%
%ADD37R,0.02660X0.00334*%
%ADD38R,0.02670X0.00334*%
%ADD39R,0.02340X0.00334*%
%ADD40R,0.02330X0.00334*%
%ADD41R,0.05670X0.00333*%
%ADD42R,0.03670X0.00334*%
%ADD43R,0.05670X0.00334*%
%ADD44R,0.01660X0.00333*%
%ADD45R,0.03330X0.00333*%
%ADD46R,0.03000X0.00334*%
%ADD47R,0.01660X0.00334*%
%ADD48R,0.02340X0.00333*%
%ADD49R,0.02330X0.00333*%
%ADD50R,0.04000X0.00333*%
%ADD51R,0.03670X0.00333*%
%ADD52R,0.03340X0.00333*%
%ADD53R,0.04000X0.00334*%
%ADD54R,0.03330X0.00334*%
D10*
X0030201Y0040500D02*
X0030203Y0040658D01*
X0030209Y0040816D01*
X0030219Y0040974D01*
X0030233Y0041132D01*
X0030251Y0041289D01*
X0030272Y0041446D01*
X0030298Y0041602D01*
X0030328Y0041758D01*
X0030361Y0041913D01*
X0030399Y0042066D01*
X0030440Y0042219D01*
X0030485Y0042371D01*
X0030534Y0042522D01*
X0030587Y0042671D01*
X0030643Y0042819D01*
X0030703Y0042965D01*
X0030767Y0043110D01*
X0030835Y0043253D01*
X0030906Y0043395D01*
X0030980Y0043535D01*
X0031058Y0043672D01*
X0031140Y0043808D01*
X0031224Y0043942D01*
X0031313Y0044073D01*
X0031404Y0044202D01*
X0031499Y0044329D01*
X0031596Y0044454D01*
X0031697Y0044576D01*
X0031801Y0044695D01*
X0031908Y0044812D01*
X0032018Y0044926D01*
X0032131Y0045037D01*
X0032246Y0045146D01*
X0032364Y0045251D01*
X0032485Y0045353D01*
X0032608Y0045453D01*
X0032734Y0045549D01*
X0032862Y0045642D01*
X0032992Y0045732D01*
X0033125Y0045818D01*
X0033260Y0045902D01*
X0033396Y0045981D01*
X0033535Y0046058D01*
X0033676Y0046130D01*
X0033818Y0046200D01*
X0033962Y0046265D01*
X0034108Y0046327D01*
X0034255Y0046385D01*
X0034404Y0046440D01*
X0034554Y0046491D01*
X0034705Y0046538D01*
X0034857Y0046581D01*
X0035010Y0046620D01*
X0035165Y0046656D01*
X0035320Y0046687D01*
X0035476Y0046715D01*
X0035632Y0046739D01*
X0035789Y0046759D01*
X0035947Y0046775D01*
X0036104Y0046787D01*
X0036263Y0046795D01*
X0036421Y0046799D01*
X0036579Y0046799D01*
X0036737Y0046795D01*
X0036896Y0046787D01*
X0037053Y0046775D01*
X0037211Y0046759D01*
X0037368Y0046739D01*
X0037524Y0046715D01*
X0037680Y0046687D01*
X0037835Y0046656D01*
X0037990Y0046620D01*
X0038143Y0046581D01*
X0038295Y0046538D01*
X0038446Y0046491D01*
X0038596Y0046440D01*
X0038745Y0046385D01*
X0038892Y0046327D01*
X0039038Y0046265D01*
X0039182Y0046200D01*
X0039324Y0046130D01*
X0039465Y0046058D01*
X0039604Y0045981D01*
X0039740Y0045902D01*
X0039875Y0045818D01*
X0040008Y0045732D01*
X0040138Y0045642D01*
X0040266Y0045549D01*
X0040392Y0045453D01*
X0040515Y0045353D01*
X0040636Y0045251D01*
X0040754Y0045146D01*
X0040869Y0045037D01*
X0040982Y0044926D01*
X0041092Y0044812D01*
X0041199Y0044695D01*
X0041303Y0044576D01*
X0041404Y0044454D01*
X0041501Y0044329D01*
X0041596Y0044202D01*
X0041687Y0044073D01*
X0041776Y0043942D01*
X0041860Y0043808D01*
X0041942Y0043672D01*
X0042020Y0043535D01*
X0042094Y0043395D01*
X0042165Y0043253D01*
X0042233Y0043110D01*
X0042297Y0042965D01*
X0042357Y0042819D01*
X0042413Y0042671D01*
X0042466Y0042522D01*
X0042515Y0042371D01*
X0042560Y0042219D01*
X0042601Y0042066D01*
X0042639Y0041913D01*
X0042672Y0041758D01*
X0042702Y0041602D01*
X0042728Y0041446D01*
X0042749Y0041289D01*
X0042767Y0041132D01*
X0042781Y0040974D01*
X0042791Y0040816D01*
X0042797Y0040658D01*
X0042799Y0040500D01*
X0042797Y0040342D01*
X0042791Y0040184D01*
X0042781Y0040026D01*
X0042767Y0039868D01*
X0042749Y0039711D01*
X0042728Y0039554D01*
X0042702Y0039398D01*
X0042672Y0039242D01*
X0042639Y0039087D01*
X0042601Y0038934D01*
X0042560Y0038781D01*
X0042515Y0038629D01*
X0042466Y0038478D01*
X0042413Y0038329D01*
X0042357Y0038181D01*
X0042297Y0038035D01*
X0042233Y0037890D01*
X0042165Y0037747D01*
X0042094Y0037605D01*
X0042020Y0037465D01*
X0041942Y0037328D01*
X0041860Y0037192D01*
X0041776Y0037058D01*
X0041687Y0036927D01*
X0041596Y0036798D01*
X0041501Y0036671D01*
X0041404Y0036546D01*
X0041303Y0036424D01*
X0041199Y0036305D01*
X0041092Y0036188D01*
X0040982Y0036074D01*
X0040869Y0035963D01*
X0040754Y0035854D01*
X0040636Y0035749D01*
X0040515Y0035647D01*
X0040392Y0035547D01*
X0040266Y0035451D01*
X0040138Y0035358D01*
X0040008Y0035268D01*
X0039875Y0035182D01*
X0039740Y0035098D01*
X0039604Y0035019D01*
X0039465Y0034942D01*
X0039324Y0034870D01*
X0039182Y0034800D01*
X0039038Y0034735D01*
X0038892Y0034673D01*
X0038745Y0034615D01*
X0038596Y0034560D01*
X0038446Y0034509D01*
X0038295Y0034462D01*
X0038143Y0034419D01*
X0037990Y0034380D01*
X0037835Y0034344D01*
X0037680Y0034313D01*
X0037524Y0034285D01*
X0037368Y0034261D01*
X0037211Y0034241D01*
X0037053Y0034225D01*
X0036896Y0034213D01*
X0036737Y0034205D01*
X0036579Y0034201D01*
X0036421Y0034201D01*
X0036263Y0034205D01*
X0036104Y0034213D01*
X0035947Y0034225D01*
X0035789Y0034241D01*
X0035632Y0034261D01*
X0035476Y0034285D01*
X0035320Y0034313D01*
X0035165Y0034344D01*
X0035010Y0034380D01*
X0034857Y0034419D01*
X0034705Y0034462D01*
X0034554Y0034509D01*
X0034404Y0034560D01*
X0034255Y0034615D01*
X0034108Y0034673D01*
X0033962Y0034735D01*
X0033818Y0034800D01*
X0033676Y0034870D01*
X0033535Y0034942D01*
X0033396Y0035019D01*
X0033260Y0035098D01*
X0033125Y0035182D01*
X0032992Y0035268D01*
X0032862Y0035358D01*
X0032734Y0035451D01*
X0032608Y0035547D01*
X0032485Y0035647D01*
X0032364Y0035749D01*
X0032246Y0035854D01*
X0032131Y0035963D01*
X0032018Y0036074D01*
X0031908Y0036188D01*
X0031801Y0036305D01*
X0031697Y0036424D01*
X0031596Y0036546D01*
X0031499Y0036671D01*
X0031404Y0036798D01*
X0031313Y0036927D01*
X0031224Y0037058D01*
X0031140Y0037192D01*
X0031058Y0037328D01*
X0030980Y0037465D01*
X0030906Y0037605D01*
X0030835Y0037747D01*
X0030767Y0037890D01*
X0030703Y0038035D01*
X0030643Y0038181D01*
X0030587Y0038329D01*
X0030534Y0038478D01*
X0030485Y0038629D01*
X0030440Y0038781D01*
X0030399Y0038934D01*
X0030361Y0039087D01*
X0030328Y0039242D01*
X0030298Y0039398D01*
X0030272Y0039554D01*
X0030251Y0039711D01*
X0030233Y0039868D01*
X0030219Y0040026D01*
X0030209Y0040184D01*
X0030203Y0040342D01*
X0030201Y0040500D01*
X0210201Y0040500D02*
X0210203Y0040658D01*
X0210209Y0040816D01*
X0210219Y0040974D01*
X0210233Y0041132D01*
X0210251Y0041289D01*
X0210272Y0041446D01*
X0210298Y0041602D01*
X0210328Y0041758D01*
X0210361Y0041913D01*
X0210399Y0042066D01*
X0210440Y0042219D01*
X0210485Y0042371D01*
X0210534Y0042522D01*
X0210587Y0042671D01*
X0210643Y0042819D01*
X0210703Y0042965D01*
X0210767Y0043110D01*
X0210835Y0043253D01*
X0210906Y0043395D01*
X0210980Y0043535D01*
X0211058Y0043672D01*
X0211140Y0043808D01*
X0211224Y0043942D01*
X0211313Y0044073D01*
X0211404Y0044202D01*
X0211499Y0044329D01*
X0211596Y0044454D01*
X0211697Y0044576D01*
X0211801Y0044695D01*
X0211908Y0044812D01*
X0212018Y0044926D01*
X0212131Y0045037D01*
X0212246Y0045146D01*
X0212364Y0045251D01*
X0212485Y0045353D01*
X0212608Y0045453D01*
X0212734Y0045549D01*
X0212862Y0045642D01*
X0212992Y0045732D01*
X0213125Y0045818D01*
X0213260Y0045902D01*
X0213396Y0045981D01*
X0213535Y0046058D01*
X0213676Y0046130D01*
X0213818Y0046200D01*
X0213962Y0046265D01*
X0214108Y0046327D01*
X0214255Y0046385D01*
X0214404Y0046440D01*
X0214554Y0046491D01*
X0214705Y0046538D01*
X0214857Y0046581D01*
X0215010Y0046620D01*
X0215165Y0046656D01*
X0215320Y0046687D01*
X0215476Y0046715D01*
X0215632Y0046739D01*
X0215789Y0046759D01*
X0215947Y0046775D01*
X0216104Y0046787D01*
X0216263Y0046795D01*
X0216421Y0046799D01*
X0216579Y0046799D01*
X0216737Y0046795D01*
X0216896Y0046787D01*
X0217053Y0046775D01*
X0217211Y0046759D01*
X0217368Y0046739D01*
X0217524Y0046715D01*
X0217680Y0046687D01*
X0217835Y0046656D01*
X0217990Y0046620D01*
X0218143Y0046581D01*
X0218295Y0046538D01*
X0218446Y0046491D01*
X0218596Y0046440D01*
X0218745Y0046385D01*
X0218892Y0046327D01*
X0219038Y0046265D01*
X0219182Y0046200D01*
X0219324Y0046130D01*
X0219465Y0046058D01*
X0219604Y0045981D01*
X0219740Y0045902D01*
X0219875Y0045818D01*
X0220008Y0045732D01*
X0220138Y0045642D01*
X0220266Y0045549D01*
X0220392Y0045453D01*
X0220515Y0045353D01*
X0220636Y0045251D01*
X0220754Y0045146D01*
X0220869Y0045037D01*
X0220982Y0044926D01*
X0221092Y0044812D01*
X0221199Y0044695D01*
X0221303Y0044576D01*
X0221404Y0044454D01*
X0221501Y0044329D01*
X0221596Y0044202D01*
X0221687Y0044073D01*
X0221776Y0043942D01*
X0221860Y0043808D01*
X0221942Y0043672D01*
X0222020Y0043535D01*
X0222094Y0043395D01*
X0222165Y0043253D01*
X0222233Y0043110D01*
X0222297Y0042965D01*
X0222357Y0042819D01*
X0222413Y0042671D01*
X0222466Y0042522D01*
X0222515Y0042371D01*
X0222560Y0042219D01*
X0222601Y0042066D01*
X0222639Y0041913D01*
X0222672Y0041758D01*
X0222702Y0041602D01*
X0222728Y0041446D01*
X0222749Y0041289D01*
X0222767Y0041132D01*
X0222781Y0040974D01*
X0222791Y0040816D01*
X0222797Y0040658D01*
X0222799Y0040500D01*
X0222797Y0040342D01*
X0222791Y0040184D01*
X0222781Y0040026D01*
X0222767Y0039868D01*
X0222749Y0039711D01*
X0222728Y0039554D01*
X0222702Y0039398D01*
X0222672Y0039242D01*
X0222639Y0039087D01*
X0222601Y0038934D01*
X0222560Y0038781D01*
X0222515Y0038629D01*
X0222466Y0038478D01*
X0222413Y0038329D01*
X0222357Y0038181D01*
X0222297Y0038035D01*
X0222233Y0037890D01*
X0222165Y0037747D01*
X0222094Y0037605D01*
X0222020Y0037465D01*
X0221942Y0037328D01*
X0221860Y0037192D01*
X0221776Y0037058D01*
X0221687Y0036927D01*
X0221596Y0036798D01*
X0221501Y0036671D01*
X0221404Y0036546D01*
X0221303Y0036424D01*
X0221199Y0036305D01*
X0221092Y0036188D01*
X0220982Y0036074D01*
X0220869Y0035963D01*
X0220754Y0035854D01*
X0220636Y0035749D01*
X0220515Y0035647D01*
X0220392Y0035547D01*
X0220266Y0035451D01*
X0220138Y0035358D01*
X0220008Y0035268D01*
X0219875Y0035182D01*
X0219740Y0035098D01*
X0219604Y0035019D01*
X0219465Y0034942D01*
X0219324Y0034870D01*
X0219182Y0034800D01*
X0219038Y0034735D01*
X0218892Y0034673D01*
X0218745Y0034615D01*
X0218596Y0034560D01*
X0218446Y0034509D01*
X0218295Y0034462D01*
X0218143Y0034419D01*
X0217990Y0034380D01*
X0217835Y0034344D01*
X0217680Y0034313D01*
X0217524Y0034285D01*
X0217368Y0034261D01*
X0217211Y0034241D01*
X0217053Y0034225D01*
X0216896Y0034213D01*
X0216737Y0034205D01*
X0216579Y0034201D01*
X0216421Y0034201D01*
X0216263Y0034205D01*
X0216104Y0034213D01*
X0215947Y0034225D01*
X0215789Y0034241D01*
X0215632Y0034261D01*
X0215476Y0034285D01*
X0215320Y0034313D01*
X0215165Y0034344D01*
X0215010Y0034380D01*
X0214857Y0034419D01*
X0214705Y0034462D01*
X0214554Y0034509D01*
X0214404Y0034560D01*
X0214255Y0034615D01*
X0214108Y0034673D01*
X0213962Y0034735D01*
X0213818Y0034800D01*
X0213676Y0034870D01*
X0213535Y0034942D01*
X0213396Y0035019D01*
X0213260Y0035098D01*
X0213125Y0035182D01*
X0212992Y0035268D01*
X0212862Y0035358D01*
X0212734Y0035451D01*
X0212608Y0035547D01*
X0212485Y0035647D01*
X0212364Y0035749D01*
X0212246Y0035854D01*
X0212131Y0035963D01*
X0212018Y0036074D01*
X0211908Y0036188D01*
X0211801Y0036305D01*
X0211697Y0036424D01*
X0211596Y0036546D01*
X0211499Y0036671D01*
X0211404Y0036798D01*
X0211313Y0036927D01*
X0211224Y0037058D01*
X0211140Y0037192D01*
X0211058Y0037328D01*
X0210980Y0037465D01*
X0210906Y0037605D01*
X0210835Y0037747D01*
X0210767Y0037890D01*
X0210703Y0038035D01*
X0210643Y0038181D01*
X0210587Y0038329D01*
X0210534Y0038478D01*
X0210485Y0038629D01*
X0210440Y0038781D01*
X0210399Y0038934D01*
X0210361Y0039087D01*
X0210328Y0039242D01*
X0210298Y0039398D01*
X0210272Y0039554D01*
X0210251Y0039711D01*
X0210233Y0039868D01*
X0210219Y0040026D01*
X0210209Y0040184D01*
X0210203Y0040342D01*
X0210201Y0040500D01*
X0210201Y0338500D02*
X0210203Y0338658D01*
X0210209Y0338816D01*
X0210219Y0338974D01*
X0210233Y0339132D01*
X0210251Y0339289D01*
X0210272Y0339446D01*
X0210298Y0339602D01*
X0210328Y0339758D01*
X0210361Y0339913D01*
X0210399Y0340066D01*
X0210440Y0340219D01*
X0210485Y0340371D01*
X0210534Y0340522D01*
X0210587Y0340671D01*
X0210643Y0340819D01*
X0210703Y0340965D01*
X0210767Y0341110D01*
X0210835Y0341253D01*
X0210906Y0341395D01*
X0210980Y0341535D01*
X0211058Y0341672D01*
X0211140Y0341808D01*
X0211224Y0341942D01*
X0211313Y0342073D01*
X0211404Y0342202D01*
X0211499Y0342329D01*
X0211596Y0342454D01*
X0211697Y0342576D01*
X0211801Y0342695D01*
X0211908Y0342812D01*
X0212018Y0342926D01*
X0212131Y0343037D01*
X0212246Y0343146D01*
X0212364Y0343251D01*
X0212485Y0343353D01*
X0212608Y0343453D01*
X0212734Y0343549D01*
X0212862Y0343642D01*
X0212992Y0343732D01*
X0213125Y0343818D01*
X0213260Y0343902D01*
X0213396Y0343981D01*
X0213535Y0344058D01*
X0213676Y0344130D01*
X0213818Y0344200D01*
X0213962Y0344265D01*
X0214108Y0344327D01*
X0214255Y0344385D01*
X0214404Y0344440D01*
X0214554Y0344491D01*
X0214705Y0344538D01*
X0214857Y0344581D01*
X0215010Y0344620D01*
X0215165Y0344656D01*
X0215320Y0344687D01*
X0215476Y0344715D01*
X0215632Y0344739D01*
X0215789Y0344759D01*
X0215947Y0344775D01*
X0216104Y0344787D01*
X0216263Y0344795D01*
X0216421Y0344799D01*
X0216579Y0344799D01*
X0216737Y0344795D01*
X0216896Y0344787D01*
X0217053Y0344775D01*
X0217211Y0344759D01*
X0217368Y0344739D01*
X0217524Y0344715D01*
X0217680Y0344687D01*
X0217835Y0344656D01*
X0217990Y0344620D01*
X0218143Y0344581D01*
X0218295Y0344538D01*
X0218446Y0344491D01*
X0218596Y0344440D01*
X0218745Y0344385D01*
X0218892Y0344327D01*
X0219038Y0344265D01*
X0219182Y0344200D01*
X0219324Y0344130D01*
X0219465Y0344058D01*
X0219604Y0343981D01*
X0219740Y0343902D01*
X0219875Y0343818D01*
X0220008Y0343732D01*
X0220138Y0343642D01*
X0220266Y0343549D01*
X0220392Y0343453D01*
X0220515Y0343353D01*
X0220636Y0343251D01*
X0220754Y0343146D01*
X0220869Y0343037D01*
X0220982Y0342926D01*
X0221092Y0342812D01*
X0221199Y0342695D01*
X0221303Y0342576D01*
X0221404Y0342454D01*
X0221501Y0342329D01*
X0221596Y0342202D01*
X0221687Y0342073D01*
X0221776Y0341942D01*
X0221860Y0341808D01*
X0221942Y0341672D01*
X0222020Y0341535D01*
X0222094Y0341395D01*
X0222165Y0341253D01*
X0222233Y0341110D01*
X0222297Y0340965D01*
X0222357Y0340819D01*
X0222413Y0340671D01*
X0222466Y0340522D01*
X0222515Y0340371D01*
X0222560Y0340219D01*
X0222601Y0340066D01*
X0222639Y0339913D01*
X0222672Y0339758D01*
X0222702Y0339602D01*
X0222728Y0339446D01*
X0222749Y0339289D01*
X0222767Y0339132D01*
X0222781Y0338974D01*
X0222791Y0338816D01*
X0222797Y0338658D01*
X0222799Y0338500D01*
X0222797Y0338342D01*
X0222791Y0338184D01*
X0222781Y0338026D01*
X0222767Y0337868D01*
X0222749Y0337711D01*
X0222728Y0337554D01*
X0222702Y0337398D01*
X0222672Y0337242D01*
X0222639Y0337087D01*
X0222601Y0336934D01*
X0222560Y0336781D01*
X0222515Y0336629D01*
X0222466Y0336478D01*
X0222413Y0336329D01*
X0222357Y0336181D01*
X0222297Y0336035D01*
X0222233Y0335890D01*
X0222165Y0335747D01*
X0222094Y0335605D01*
X0222020Y0335465D01*
X0221942Y0335328D01*
X0221860Y0335192D01*
X0221776Y0335058D01*
X0221687Y0334927D01*
X0221596Y0334798D01*
X0221501Y0334671D01*
X0221404Y0334546D01*
X0221303Y0334424D01*
X0221199Y0334305D01*
X0221092Y0334188D01*
X0220982Y0334074D01*
X0220869Y0333963D01*
X0220754Y0333854D01*
X0220636Y0333749D01*
X0220515Y0333647D01*
X0220392Y0333547D01*
X0220266Y0333451D01*
X0220138Y0333358D01*
X0220008Y0333268D01*
X0219875Y0333182D01*
X0219740Y0333098D01*
X0219604Y0333019D01*
X0219465Y0332942D01*
X0219324Y0332870D01*
X0219182Y0332800D01*
X0219038Y0332735D01*
X0218892Y0332673D01*
X0218745Y0332615D01*
X0218596Y0332560D01*
X0218446Y0332509D01*
X0218295Y0332462D01*
X0218143Y0332419D01*
X0217990Y0332380D01*
X0217835Y0332344D01*
X0217680Y0332313D01*
X0217524Y0332285D01*
X0217368Y0332261D01*
X0217211Y0332241D01*
X0217053Y0332225D01*
X0216896Y0332213D01*
X0216737Y0332205D01*
X0216579Y0332201D01*
X0216421Y0332201D01*
X0216263Y0332205D01*
X0216104Y0332213D01*
X0215947Y0332225D01*
X0215789Y0332241D01*
X0215632Y0332261D01*
X0215476Y0332285D01*
X0215320Y0332313D01*
X0215165Y0332344D01*
X0215010Y0332380D01*
X0214857Y0332419D01*
X0214705Y0332462D01*
X0214554Y0332509D01*
X0214404Y0332560D01*
X0214255Y0332615D01*
X0214108Y0332673D01*
X0213962Y0332735D01*
X0213818Y0332800D01*
X0213676Y0332870D01*
X0213535Y0332942D01*
X0213396Y0333019D01*
X0213260Y0333098D01*
X0213125Y0333182D01*
X0212992Y0333268D01*
X0212862Y0333358D01*
X0212734Y0333451D01*
X0212608Y0333547D01*
X0212485Y0333647D01*
X0212364Y0333749D01*
X0212246Y0333854D01*
X0212131Y0333963D01*
X0212018Y0334074D01*
X0211908Y0334188D01*
X0211801Y0334305D01*
X0211697Y0334424D01*
X0211596Y0334546D01*
X0211499Y0334671D01*
X0211404Y0334798D01*
X0211313Y0334927D01*
X0211224Y0335058D01*
X0211140Y0335192D01*
X0211058Y0335328D01*
X0210980Y0335465D01*
X0210906Y0335605D01*
X0210835Y0335747D01*
X0210767Y0335890D01*
X0210703Y0336035D01*
X0210643Y0336181D01*
X0210587Y0336329D01*
X0210534Y0336478D01*
X0210485Y0336629D01*
X0210440Y0336781D01*
X0210399Y0336934D01*
X0210361Y0337087D01*
X0210328Y0337242D01*
X0210298Y0337398D01*
X0210272Y0337554D01*
X0210251Y0337711D01*
X0210233Y0337868D01*
X0210219Y0338026D01*
X0210209Y0338184D01*
X0210203Y0338342D01*
X0210201Y0338500D01*
X0030201Y0338500D02*
X0030203Y0338658D01*
X0030209Y0338816D01*
X0030219Y0338974D01*
X0030233Y0339132D01*
X0030251Y0339289D01*
X0030272Y0339446D01*
X0030298Y0339602D01*
X0030328Y0339758D01*
X0030361Y0339913D01*
X0030399Y0340066D01*
X0030440Y0340219D01*
X0030485Y0340371D01*
X0030534Y0340522D01*
X0030587Y0340671D01*
X0030643Y0340819D01*
X0030703Y0340965D01*
X0030767Y0341110D01*
X0030835Y0341253D01*
X0030906Y0341395D01*
X0030980Y0341535D01*
X0031058Y0341672D01*
X0031140Y0341808D01*
X0031224Y0341942D01*
X0031313Y0342073D01*
X0031404Y0342202D01*
X0031499Y0342329D01*
X0031596Y0342454D01*
X0031697Y0342576D01*
X0031801Y0342695D01*
X0031908Y0342812D01*
X0032018Y0342926D01*
X0032131Y0343037D01*
X0032246Y0343146D01*
X0032364Y0343251D01*
X0032485Y0343353D01*
X0032608Y0343453D01*
X0032734Y0343549D01*
X0032862Y0343642D01*
X0032992Y0343732D01*
X0033125Y0343818D01*
X0033260Y0343902D01*
X0033396Y0343981D01*
X0033535Y0344058D01*
X0033676Y0344130D01*
X0033818Y0344200D01*
X0033962Y0344265D01*
X0034108Y0344327D01*
X0034255Y0344385D01*
X0034404Y0344440D01*
X0034554Y0344491D01*
X0034705Y0344538D01*
X0034857Y0344581D01*
X0035010Y0344620D01*
X0035165Y0344656D01*
X0035320Y0344687D01*
X0035476Y0344715D01*
X0035632Y0344739D01*
X0035789Y0344759D01*
X0035947Y0344775D01*
X0036104Y0344787D01*
X0036263Y0344795D01*
X0036421Y0344799D01*
X0036579Y0344799D01*
X0036737Y0344795D01*
X0036896Y0344787D01*
X0037053Y0344775D01*
X0037211Y0344759D01*
X0037368Y0344739D01*
X0037524Y0344715D01*
X0037680Y0344687D01*
X0037835Y0344656D01*
X0037990Y0344620D01*
X0038143Y0344581D01*
X0038295Y0344538D01*
X0038446Y0344491D01*
X0038596Y0344440D01*
X0038745Y0344385D01*
X0038892Y0344327D01*
X0039038Y0344265D01*
X0039182Y0344200D01*
X0039324Y0344130D01*
X0039465Y0344058D01*
X0039604Y0343981D01*
X0039740Y0343902D01*
X0039875Y0343818D01*
X0040008Y0343732D01*
X0040138Y0343642D01*
X0040266Y0343549D01*
X0040392Y0343453D01*
X0040515Y0343353D01*
X0040636Y0343251D01*
X0040754Y0343146D01*
X0040869Y0343037D01*
X0040982Y0342926D01*
X0041092Y0342812D01*
X0041199Y0342695D01*
X0041303Y0342576D01*
X0041404Y0342454D01*
X0041501Y0342329D01*
X0041596Y0342202D01*
X0041687Y0342073D01*
X0041776Y0341942D01*
X0041860Y0341808D01*
X0041942Y0341672D01*
X0042020Y0341535D01*
X0042094Y0341395D01*
X0042165Y0341253D01*
X0042233Y0341110D01*
X0042297Y0340965D01*
X0042357Y0340819D01*
X0042413Y0340671D01*
X0042466Y0340522D01*
X0042515Y0340371D01*
X0042560Y0340219D01*
X0042601Y0340066D01*
X0042639Y0339913D01*
X0042672Y0339758D01*
X0042702Y0339602D01*
X0042728Y0339446D01*
X0042749Y0339289D01*
X0042767Y0339132D01*
X0042781Y0338974D01*
X0042791Y0338816D01*
X0042797Y0338658D01*
X0042799Y0338500D01*
X0042797Y0338342D01*
X0042791Y0338184D01*
X0042781Y0338026D01*
X0042767Y0337868D01*
X0042749Y0337711D01*
X0042728Y0337554D01*
X0042702Y0337398D01*
X0042672Y0337242D01*
X0042639Y0337087D01*
X0042601Y0336934D01*
X0042560Y0336781D01*
X0042515Y0336629D01*
X0042466Y0336478D01*
X0042413Y0336329D01*
X0042357Y0336181D01*
X0042297Y0336035D01*
X0042233Y0335890D01*
X0042165Y0335747D01*
X0042094Y0335605D01*
X0042020Y0335465D01*
X0041942Y0335328D01*
X0041860Y0335192D01*
X0041776Y0335058D01*
X0041687Y0334927D01*
X0041596Y0334798D01*
X0041501Y0334671D01*
X0041404Y0334546D01*
X0041303Y0334424D01*
X0041199Y0334305D01*
X0041092Y0334188D01*
X0040982Y0334074D01*
X0040869Y0333963D01*
X0040754Y0333854D01*
X0040636Y0333749D01*
X0040515Y0333647D01*
X0040392Y0333547D01*
X0040266Y0333451D01*
X0040138Y0333358D01*
X0040008Y0333268D01*
X0039875Y0333182D01*
X0039740Y0333098D01*
X0039604Y0333019D01*
X0039465Y0332942D01*
X0039324Y0332870D01*
X0039182Y0332800D01*
X0039038Y0332735D01*
X0038892Y0332673D01*
X0038745Y0332615D01*
X0038596Y0332560D01*
X0038446Y0332509D01*
X0038295Y0332462D01*
X0038143Y0332419D01*
X0037990Y0332380D01*
X0037835Y0332344D01*
X0037680Y0332313D01*
X0037524Y0332285D01*
X0037368Y0332261D01*
X0037211Y0332241D01*
X0037053Y0332225D01*
X0036896Y0332213D01*
X0036737Y0332205D01*
X0036579Y0332201D01*
X0036421Y0332201D01*
X0036263Y0332205D01*
X0036104Y0332213D01*
X0035947Y0332225D01*
X0035789Y0332241D01*
X0035632Y0332261D01*
X0035476Y0332285D01*
X0035320Y0332313D01*
X0035165Y0332344D01*
X0035010Y0332380D01*
X0034857Y0332419D01*
X0034705Y0332462D01*
X0034554Y0332509D01*
X0034404Y0332560D01*
X0034255Y0332615D01*
X0034108Y0332673D01*
X0033962Y0332735D01*
X0033818Y0332800D01*
X0033676Y0332870D01*
X0033535Y0332942D01*
X0033396Y0333019D01*
X0033260Y0333098D01*
X0033125Y0333182D01*
X0032992Y0333268D01*
X0032862Y0333358D01*
X0032734Y0333451D01*
X0032608Y0333547D01*
X0032485Y0333647D01*
X0032364Y0333749D01*
X0032246Y0333854D01*
X0032131Y0333963D01*
X0032018Y0334074D01*
X0031908Y0334188D01*
X0031801Y0334305D01*
X0031697Y0334424D01*
X0031596Y0334546D01*
X0031499Y0334671D01*
X0031404Y0334798D01*
X0031313Y0334927D01*
X0031224Y0335058D01*
X0031140Y0335192D01*
X0031058Y0335328D01*
X0030980Y0335465D01*
X0030906Y0335605D01*
X0030835Y0335747D01*
X0030767Y0335890D01*
X0030703Y0336035D01*
X0030643Y0336181D01*
X0030587Y0336329D01*
X0030534Y0336478D01*
X0030485Y0336629D01*
X0030440Y0336781D01*
X0030399Y0336934D01*
X0030361Y0337087D01*
X0030328Y0337242D01*
X0030298Y0337398D01*
X0030272Y0337554D01*
X0030251Y0337711D01*
X0030233Y0337868D01*
X0030219Y0338026D01*
X0030209Y0338184D01*
X0030203Y0338342D01*
X0030201Y0338500D01*
D11*
X0020500Y0332500D02*
X0020500Y0048500D01*
X0038500Y0026500D02*
X0212500Y0026500D01*
X0212983Y0026506D01*
X0213466Y0026523D01*
X0213949Y0026553D01*
X0214430Y0026593D01*
X0214911Y0026646D01*
X0215390Y0026710D01*
X0215867Y0026785D01*
X0216343Y0026873D01*
X0216816Y0026971D01*
X0217286Y0027081D01*
X0217754Y0027202D01*
X0218219Y0027335D01*
X0218680Y0027479D01*
X0219138Y0027634D01*
X0219592Y0027800D01*
X0220042Y0027977D01*
X0220487Y0028164D01*
X0220928Y0028363D01*
X0221364Y0028571D01*
X0221794Y0028791D01*
X0222220Y0029021D01*
X0222639Y0029261D01*
X0223053Y0029511D01*
X0223460Y0029771D01*
X0223861Y0030040D01*
X0224256Y0030320D01*
X0224643Y0030608D01*
X0225024Y0030907D01*
X0225397Y0031214D01*
X0225762Y0031530D01*
X0226120Y0031855D01*
X0226470Y0032188D01*
X0226812Y0032530D01*
X0227145Y0032880D01*
X0227470Y0033238D01*
X0227786Y0033603D01*
X0228093Y0033976D01*
X0228392Y0034357D01*
X0228680Y0034744D01*
X0228960Y0035139D01*
X0229229Y0035540D01*
X0229489Y0035947D01*
X0229739Y0036361D01*
X0229979Y0036780D01*
X0230209Y0037206D01*
X0230429Y0037636D01*
X0230637Y0038072D01*
X0230836Y0038513D01*
X0231023Y0038958D01*
X0231200Y0039408D01*
X0231366Y0039862D01*
X0231521Y0040320D01*
X0231665Y0040781D01*
X0231798Y0041246D01*
X0231919Y0041714D01*
X0232029Y0042184D01*
X0232127Y0042657D01*
X0232215Y0043133D01*
X0232290Y0043610D01*
X0232354Y0044089D01*
X0232407Y0044570D01*
X0232447Y0045051D01*
X0232477Y0045534D01*
X0232494Y0046017D01*
X0232500Y0046500D01*
X0232500Y0332500D01*
X0232494Y0333032D01*
X0232474Y0333563D01*
X0232442Y0334094D01*
X0232397Y0334623D01*
X0232340Y0335152D01*
X0232269Y0335679D01*
X0232186Y0336204D01*
X0232090Y0336727D01*
X0231982Y0337247D01*
X0231861Y0337765D01*
X0231727Y0338280D01*
X0231581Y0338791D01*
X0231423Y0339298D01*
X0231253Y0339802D01*
X0231070Y0340301D01*
X0230876Y0340796D01*
X0230669Y0341286D01*
X0230451Y0341771D01*
X0230221Y0342250D01*
X0229980Y0342724D01*
X0229727Y0343192D01*
X0229463Y0343653D01*
X0229188Y0344108D01*
X0228902Y0344556D01*
X0228606Y0344997D01*
X0228298Y0345431D01*
X0227981Y0345858D01*
X0227653Y0346276D01*
X0227315Y0346687D01*
X0226967Y0347089D01*
X0226610Y0347482D01*
X0226243Y0347867D01*
X0225867Y0348243D01*
X0225482Y0348610D01*
X0225089Y0348967D01*
X0224687Y0349315D01*
X0224276Y0349653D01*
X0223858Y0349981D01*
X0223431Y0350298D01*
X0222997Y0350606D01*
X0222556Y0350902D01*
X0222108Y0351188D01*
X0221653Y0351463D01*
X0221192Y0351727D01*
X0220724Y0351980D01*
X0220250Y0352221D01*
X0219771Y0352451D01*
X0219286Y0352669D01*
X0218796Y0352876D01*
X0218301Y0353070D01*
X0217802Y0353253D01*
X0217298Y0353423D01*
X0216791Y0353581D01*
X0216280Y0353727D01*
X0215765Y0353861D01*
X0215247Y0353982D01*
X0214727Y0354090D01*
X0214204Y0354186D01*
X0213679Y0354269D01*
X0213152Y0354340D01*
X0212623Y0354397D01*
X0212094Y0354442D01*
X0211563Y0354474D01*
X0211032Y0354494D01*
X0210500Y0354500D01*
X0042500Y0354500D01*
X0041968Y0354494D01*
X0041437Y0354474D01*
X0040906Y0354442D01*
X0040377Y0354397D01*
X0039848Y0354340D01*
X0039321Y0354269D01*
X0038796Y0354186D01*
X0038273Y0354090D01*
X0037753Y0353982D01*
X0037235Y0353861D01*
X0036720Y0353727D01*
X0036209Y0353581D01*
X0035702Y0353423D01*
X0035198Y0353253D01*
X0034699Y0353070D01*
X0034204Y0352876D01*
X0033714Y0352669D01*
X0033229Y0352451D01*
X0032750Y0352221D01*
X0032276Y0351980D01*
X0031808Y0351727D01*
X0031347Y0351463D01*
X0030892Y0351188D01*
X0030444Y0350902D01*
X0030003Y0350606D01*
X0029569Y0350298D01*
X0029142Y0349981D01*
X0028724Y0349653D01*
X0028313Y0349315D01*
X0027911Y0348967D01*
X0027518Y0348610D01*
X0027133Y0348243D01*
X0026757Y0347867D01*
X0026390Y0347482D01*
X0026033Y0347089D01*
X0025685Y0346687D01*
X0025347Y0346276D01*
X0025019Y0345858D01*
X0024702Y0345431D01*
X0024394Y0344997D01*
X0024098Y0344556D01*
X0023812Y0344108D01*
X0023537Y0343653D01*
X0023273Y0343192D01*
X0023020Y0342724D01*
X0022779Y0342250D01*
X0022549Y0341771D01*
X0022331Y0341286D01*
X0022124Y0340796D01*
X0021930Y0340301D01*
X0021747Y0339802D01*
X0021577Y0339298D01*
X0021419Y0338791D01*
X0021273Y0338280D01*
X0021139Y0337765D01*
X0021018Y0337247D01*
X0020910Y0336727D01*
X0020814Y0336204D01*
X0020731Y0335679D01*
X0020660Y0335152D01*
X0020603Y0334623D01*
X0020558Y0334094D01*
X0020526Y0333563D01*
X0020506Y0333032D01*
X0020500Y0332500D01*
X0020500Y0048500D02*
X0020457Y0048016D01*
X0020426Y0047531D01*
X0020407Y0047046D01*
X0020400Y0046560D01*
X0020405Y0046075D01*
X0020421Y0045589D01*
X0020449Y0045104D01*
X0020488Y0044620D01*
X0020539Y0044137D01*
X0020602Y0043656D01*
X0020677Y0043176D01*
X0020763Y0042698D01*
X0020861Y0042222D01*
X0020970Y0041748D01*
X0021090Y0041278D01*
X0021222Y0040810D01*
X0021365Y0040346D01*
X0021519Y0039886D01*
X0021685Y0039429D01*
X0021861Y0038976D01*
X0022048Y0038528D01*
X0022246Y0038085D01*
X0022455Y0037646D01*
X0022674Y0037213D01*
X0022904Y0036785D01*
X0023144Y0036362D01*
X0023394Y0035946D01*
X0023654Y0035536D01*
X0023924Y0035132D01*
X0024203Y0034734D01*
X0024492Y0034344D01*
X0024791Y0033961D01*
X0025098Y0033585D01*
X0025415Y0033216D01*
X0025740Y0032856D01*
X0026074Y0032503D01*
X0026417Y0032159D01*
X0026767Y0031823D01*
X0027126Y0031495D01*
X0027493Y0031176D01*
X0027867Y0030866D01*
X0028248Y0030566D01*
X0028637Y0030274D01*
X0029032Y0029992D01*
X0029434Y0029720D01*
X0029843Y0029458D01*
X0030258Y0029205D01*
X0030679Y0028963D01*
X0031106Y0028730D01*
X0031538Y0028509D01*
X0031975Y0028297D01*
X0032417Y0028097D01*
X0032865Y0027907D01*
X0033316Y0027728D01*
X0033772Y0027560D01*
X0034231Y0027403D01*
X0034695Y0027257D01*
X0035161Y0027122D01*
X0035631Y0026999D01*
X0036104Y0026887D01*
X0036579Y0026786D01*
X0037057Y0026697D01*
X0037536Y0026620D01*
X0038017Y0026554D01*
X0038500Y0026500D01*
D12*
X0106613Y0132143D02*
X0106613Y0132355D01*
X0106613Y0144115D01*
X0106664Y0144717D01*
X0107317Y0144717D01*
X0107598Y0144344D01*
X0107997Y0144533D01*
X0108607Y0144756D01*
X0109256Y0144731D01*
X0109845Y0144459D01*
X0110278Y0143976D01*
X0110466Y0143355D01*
X0110506Y0142703D01*
X0110510Y0142050D01*
X0110485Y0141397D01*
X0110362Y0140758D01*
X0109992Y0140226D01*
X0109441Y0139883D01*
X0108799Y0139786D01*
X0108171Y0139947D01*
X0107680Y0140294D01*
X0108177Y0140837D01*
X0108559Y0140765D01*
X0109173Y0140948D01*
X0109476Y0141512D01*
X0109530Y0142162D01*
X0109510Y0142815D01*
X0109328Y0143436D01*
X0108794Y0143776D01*
X0108150Y0143723D01*
X0107718Y0143259D01*
X0107605Y0142618D01*
X0107604Y0141965D01*
X0107710Y0141323D01*
X0108096Y0140883D01*
X0107636Y0140274D01*
X0107597Y0139766D01*
X0107594Y0136499D01*
X0108102Y0136901D01*
X0108729Y0137069D01*
X0109374Y0136996D01*
X0109940Y0136678D01*
X0110336Y0136165D01*
X0110501Y0135537D01*
X0110507Y0134883D01*
X0110507Y0132270D01*
X0109981Y0132143D01*
X0109526Y0132342D01*
X0109526Y0134955D01*
X0109410Y0135591D01*
X0108942Y0136026D01*
X0108300Y0136063D01*
X0107774Y0135701D01*
X0107595Y0135082D01*
X0107594Y0132469D01*
X0107266Y0132143D01*
X0106613Y0132143D01*
X0106613Y0132280D02*
X0107405Y0132280D01*
X0107594Y0132673D02*
X0106613Y0132673D01*
X0106613Y0133065D02*
X0107594Y0133065D01*
X0107594Y0133457D02*
X0106613Y0133457D01*
X0106613Y0133849D02*
X0107594Y0133849D01*
X0107594Y0134242D02*
X0106613Y0134242D01*
X0106613Y0134634D02*
X0107595Y0134634D01*
X0107595Y0135026D02*
X0106613Y0135026D01*
X0106613Y0135418D02*
X0107692Y0135418D01*
X0107934Y0135810D02*
X0106613Y0135810D01*
X0106613Y0136203D02*
X0110307Y0136203D01*
X0110429Y0135810D02*
X0109174Y0135810D01*
X0109442Y0135418D02*
X0110502Y0135418D01*
X0110506Y0135026D02*
X0109514Y0135026D01*
X0109526Y0134634D02*
X0110507Y0134634D01*
X0110507Y0134242D02*
X0109526Y0134242D01*
X0109526Y0133849D02*
X0110507Y0133849D01*
X0110507Y0133457D02*
X0109526Y0133457D01*
X0109526Y0133065D02*
X0110507Y0133065D01*
X0110507Y0132673D02*
X0109526Y0132673D01*
X0109666Y0132280D02*
X0110507Y0132280D01*
X0111618Y0132785D02*
X0111405Y0133396D01*
X0111464Y0134041D01*
X0111799Y0134594D01*
X0112354Y0134925D01*
X0112997Y0135019D01*
X0114303Y0135019D01*
X0114330Y0135637D01*
X0113922Y0136090D01*
X0113275Y0136153D01*
X0112645Y0136018D01*
X0112162Y0135970D01*
X0111646Y0136367D01*
X0112121Y0136808D01*
X0112731Y0137030D01*
X0113381Y0137075D01*
X0114029Y0137012D01*
X0114642Y0136795D01*
X0115106Y0136347D01*
X0115304Y0135731D01*
X0115318Y0135078D01*
X0115318Y0132468D01*
X0114989Y0132144D01*
X0114337Y0132144D01*
X0114337Y0132375D01*
X0113904Y0133090D01*
X0114303Y0133485D01*
X0114337Y0133855D01*
X0114040Y0134211D01*
X0113388Y0134211D01*
X0112740Y0134156D01*
X0112323Y0133706D01*
X0112591Y0133154D01*
X0113219Y0133010D01*
X0113820Y0133052D01*
X0114293Y0132402D01*
X0113977Y0132247D01*
X0113347Y0132093D01*
X0112697Y0132121D01*
X0112086Y0132339D01*
X0111618Y0132785D01*
X0111736Y0132673D02*
X0114096Y0132673D01*
X0114156Y0132673D02*
X0115318Y0132673D01*
X0115318Y0133065D02*
X0113919Y0133065D01*
X0114275Y0133457D02*
X0115318Y0133457D01*
X0115318Y0133849D02*
X0114336Y0133849D01*
X0115318Y0134242D02*
X0111586Y0134242D01*
X0111446Y0133849D02*
X0112456Y0133849D01*
X0112443Y0133457D02*
X0111411Y0133457D01*
X0111520Y0133065D02*
X0112978Y0133065D01*
X0112250Y0132280D02*
X0114045Y0132280D01*
X0114337Y0132280D02*
X0115128Y0132280D01*
X0116395Y0132280D02*
X0117187Y0132280D01*
X0117045Y0132144D02*
X0116395Y0132144D01*
X0116395Y0136690D01*
X0116717Y0137018D01*
X0117366Y0137018D01*
X0117461Y0136576D01*
X0117988Y0136947D01*
X0118621Y0137075D01*
X0119254Y0136957D01*
X0119588Y0136587D01*
X0119170Y0136090D01*
X0118680Y0136031D01*
X0118042Y0136057D01*
X0117531Y0135682D01*
X0117376Y0135060D01*
X0117376Y0132462D01*
X0117045Y0132144D01*
X0117376Y0132673D02*
X0116395Y0132673D01*
X0116395Y0133065D02*
X0117376Y0133065D01*
X0117376Y0133457D02*
X0116395Y0133457D01*
X0116395Y0133849D02*
X0117376Y0133849D01*
X0117376Y0134242D02*
X0116395Y0134242D01*
X0116395Y0134634D02*
X0117376Y0134634D01*
X0117376Y0135026D02*
X0116395Y0135026D01*
X0116395Y0135418D02*
X0117465Y0135418D01*
X0117706Y0135810D02*
X0116395Y0135810D01*
X0116395Y0136203D02*
X0119264Y0136203D01*
X0119581Y0136595D02*
X0117488Y0136595D01*
X0117457Y0136595D02*
X0116395Y0136595D01*
X0116686Y0136987D02*
X0117373Y0136987D01*
X0118184Y0136987D02*
X0119092Y0136987D01*
X0119912Y0136203D02*
X0122117Y0136203D01*
X0122213Y0136203D02*
X0123598Y0136203D01*
X0123598Y0136595D02*
X0122617Y0136595D01*
X0122617Y0136585D02*
X0122617Y0138523D01*
X0122813Y0138990D01*
X0123475Y0138990D01*
X0123598Y0138450D01*
X0123598Y0132488D01*
X0123279Y0132144D01*
X0122617Y0132144D01*
X0122617Y0132474D01*
X0122246Y0132345D01*
X0121632Y0132109D01*
X0120974Y0132126D01*
X0120375Y0132398D01*
X0119935Y0132888D01*
X0119747Y0133518D01*
X0119708Y0134179D01*
X0119705Y0134841D01*
X0119732Y0135503D01*
X0119871Y0136148D01*
X0120265Y0136674D01*
X0120836Y0136999D01*
X0121491Y0137070D01*
X0122119Y0136875D01*
X0122576Y0136564D01*
X0121935Y0136059D01*
X0121655Y0136096D01*
X0121034Y0135907D01*
X0120735Y0135331D01*
X0120685Y0134672D01*
X0120708Y0134010D01*
X0120912Y0133387D01*
X0121475Y0133078D01*
X0122122Y0133164D01*
X0122520Y0133671D01*
X0122613Y0134325D01*
X0122606Y0134987D01*
X0122466Y0135631D01*
X0122021Y0136020D01*
X0122617Y0136585D01*
X0122530Y0136595D02*
X0120205Y0136595D01*
X0120814Y0136987D02*
X0121759Y0136987D01*
X0122617Y0136987D02*
X0123598Y0136987D01*
X0123598Y0137379D02*
X0122617Y0137379D01*
X0122617Y0137771D02*
X0123598Y0137771D01*
X0123598Y0138164D02*
X0122617Y0138164D01*
X0122631Y0138556D02*
X0123574Y0138556D01*
X0123485Y0138948D02*
X0122795Y0138948D01*
X0123281Y0140263D02*
X0122771Y0140661D01*
X0123232Y0141115D01*
X0123709Y0141113D01*
X0124280Y0140813D01*
X0124917Y0140710D01*
X0125553Y0140803D01*
X0125950Y0141271D01*
X0125629Y0141765D01*
X0124988Y0141847D01*
X0124343Y0141909D01*
X0123733Y0142115D01*
X0123273Y0142560D01*
X0123091Y0143176D01*
X0123179Y0143813D01*
X0123543Y0144341D01*
X0124105Y0144655D01*
X0124740Y0144771D01*
X0125386Y0144745D01*
X0126014Y0144591D01*
X0126586Y0144290D01*
X0126589Y0143842D01*
X0126157Y0143440D01*
X0125584Y0143738D01*
X0124949Y0143852D01*
X0124321Y0143731D01*
X0124080Y0143175D01*
X0124576Y0142821D01*
X0125221Y0142768D01*
X0125865Y0142698D01*
X0126449Y0142432D01*
X0126826Y0141915D01*
X0126934Y0141280D01*
X0126782Y0140657D01*
X0126352Y0140180D01*
X0125769Y0139904D01*
X0125132Y0139793D01*
X0124486Y0139816D01*
X0123859Y0139974D01*
X0123281Y0140263D01*
X0123557Y0140125D02*
X0126235Y0140125D01*
X0126656Y0140517D02*
X0122955Y0140517D01*
X0123023Y0140909D02*
X0124097Y0140909D01*
X0123818Y0142086D02*
X0126702Y0142086D01*
X0126864Y0141694D02*
X0125676Y0141694D01*
X0125930Y0141301D02*
X0126931Y0141301D01*
X0126844Y0140909D02*
X0125644Y0140909D01*
X0126349Y0142478D02*
X0123358Y0142478D01*
X0123181Y0142870D02*
X0124507Y0142870D01*
X0124117Y0143262D02*
X0123103Y0143262D01*
X0123157Y0143655D02*
X0124287Y0143655D01*
X0123718Y0144439D02*
X0126303Y0144439D01*
X0126588Y0144047D02*
X0123340Y0144047D01*
X0125744Y0143655D02*
X0126388Y0143655D01*
X0127588Y0143262D02*
X0128636Y0143262D01*
X0128573Y0143190D02*
X0128477Y0142543D01*
X0128482Y0141885D01*
X0128632Y0141251D01*
X0129122Y0140835D01*
X0129769Y0140801D01*
X0130308Y0141151D01*
X0130512Y0141767D01*
X0130529Y0142229D01*
X0131508Y0142154D01*
X0131474Y0141547D01*
X0131316Y0140911D01*
X0130945Y0140371D01*
X0130418Y0139983D01*
X0129789Y0139803D01*
X0129133Y0139814D01*
X0128512Y0140021D01*
X0128002Y0140432D01*
X0127657Y0140987D01*
X0127520Y0141629D01*
X0127492Y0142286D01*
X0127493Y0142433D01*
X0127538Y0143089D01*
X0127719Y0143718D01*
X0128110Y0144243D01*
X0128652Y0144610D01*
X0129288Y0144767D01*
X0129943Y0144736D01*
X0130555Y0144505D01*
X0131049Y0144075D01*
X0131371Y0143506D01*
X0131491Y0142861D01*
X0131509Y0142252D01*
X0130528Y0142327D01*
X0130496Y0142934D01*
X0130222Y0143521D01*
X0129634Y0143789D01*
X0128996Y0143675D01*
X0128573Y0143190D01*
X0128525Y0142870D02*
X0127523Y0142870D01*
X0127496Y0142478D02*
X0128477Y0142478D01*
X0128481Y0142086D02*
X0127500Y0142086D01*
X0127517Y0141694D02*
X0128528Y0141694D01*
X0128620Y0141301D02*
X0127590Y0141301D01*
X0127705Y0140909D02*
X0129034Y0140909D01*
X0129936Y0140909D02*
X0131315Y0140909D01*
X0131413Y0141301D02*
X0130358Y0141301D01*
X0130488Y0141694D02*
X0131483Y0141694D01*
X0131504Y0142086D02*
X0130524Y0142086D01*
X0130520Y0142478D02*
X0131502Y0142478D01*
X0131489Y0142870D02*
X0130499Y0142870D01*
X0130343Y0143262D02*
X0131416Y0143262D01*
X0131287Y0143655D02*
X0129929Y0143655D01*
X0128978Y0143655D02*
X0127700Y0143655D01*
X0127964Y0144047D02*
X0131065Y0144047D01*
X0130631Y0144439D02*
X0128400Y0144439D01*
X0127949Y0140517D02*
X0131045Y0140517D01*
X0130611Y0140125D02*
X0128383Y0140125D01*
X0127942Y0136981D02*
X0128956Y0133852D01*
X0129155Y0133971D01*
X0129848Y0136510D01*
X0130118Y0137018D01*
X0130776Y0137018D01*
X0130902Y0136629D01*
X0129500Y0132242D01*
X0128914Y0132144D01*
X0128504Y0132476D01*
X0127751Y0134998D01*
X0127549Y0135504D01*
X0126607Y0132352D01*
X0126104Y0132144D01*
X0125609Y0132366D01*
X0124207Y0136754D01*
X0124503Y0137018D01*
X0125161Y0137018D01*
X0126028Y0133845D01*
X0126233Y0133976D01*
X0127044Y0136480D01*
X0127311Y0137018D01*
X0127942Y0136981D01*
X0127848Y0136987D02*
X0127295Y0136987D01*
X0127101Y0136595D02*
X0128067Y0136595D01*
X0128194Y0136203D02*
X0126954Y0136203D01*
X0126827Y0135810D02*
X0128321Y0135810D01*
X0128448Y0135418D02*
X0127583Y0135418D01*
X0127523Y0135418D02*
X0126700Y0135418D01*
X0126573Y0135026D02*
X0127406Y0135026D01*
X0127740Y0135026D02*
X0128575Y0135026D01*
X0128702Y0134634D02*
X0127859Y0134634D01*
X0127977Y0134242D02*
X0128829Y0134242D01*
X0129229Y0134242D02*
X0130139Y0134242D01*
X0130264Y0134634D02*
X0129336Y0134634D01*
X0129443Y0135026D02*
X0130390Y0135026D01*
X0130515Y0135418D02*
X0129550Y0135418D01*
X0129657Y0135810D02*
X0130640Y0135810D01*
X0130765Y0136203D02*
X0129765Y0136203D01*
X0129893Y0136595D02*
X0130891Y0136595D01*
X0130786Y0136987D02*
X0130102Y0136987D01*
X0131354Y0136367D02*
X0131828Y0136808D01*
X0132438Y0137030D01*
X0133088Y0137075D01*
X0133737Y0137012D01*
X0134349Y0136795D01*
X0134814Y0136347D01*
X0135011Y0135731D01*
X0135025Y0135078D01*
X0135025Y0132468D01*
X0134697Y0132144D01*
X0134045Y0132144D01*
X0134044Y0132375D01*
X0133612Y0133090D01*
X0134011Y0133486D01*
X0134045Y0133855D01*
X0133748Y0134211D01*
X0133095Y0134211D01*
X0132448Y0134156D01*
X0132031Y0133706D01*
X0132299Y0133154D01*
X0132928Y0133010D01*
X0133528Y0133052D01*
X0134000Y0132402D01*
X0133684Y0132246D01*
X0133054Y0132093D01*
X0132404Y0132121D01*
X0131793Y0132339D01*
X0131325Y0132786D01*
X0131112Y0133396D01*
X0131171Y0134042D01*
X0131507Y0134594D01*
X0132062Y0134925D01*
X0132705Y0135019D01*
X0134010Y0135019D01*
X0134038Y0135637D01*
X0133630Y0136090D01*
X0132982Y0136153D01*
X0132352Y0136017D01*
X0131869Y0135971D01*
X0131354Y0136367D01*
X0131567Y0136203D02*
X0134860Y0136203D01*
X0134986Y0135810D02*
X0133882Y0135810D01*
X0134028Y0135418D02*
X0135018Y0135418D01*
X0135025Y0135026D02*
X0134011Y0135026D01*
X0135025Y0134634D02*
X0131574Y0134634D01*
X0131293Y0134242D02*
X0135025Y0134242D01*
X0135025Y0133849D02*
X0134044Y0133849D01*
X0133982Y0133457D02*
X0135025Y0133457D01*
X0135025Y0133065D02*
X0133627Y0133065D01*
X0133804Y0132673D02*
X0131443Y0132673D01*
X0131227Y0133065D02*
X0132686Y0133065D01*
X0132151Y0133457D02*
X0131118Y0133457D01*
X0131154Y0133849D02*
X0132164Y0133849D01*
X0131958Y0132280D02*
X0133753Y0132280D01*
X0134044Y0132280D02*
X0134836Y0132280D01*
X0135025Y0132673D02*
X0133864Y0132673D01*
X0136103Y0132673D02*
X0137083Y0132673D01*
X0137083Y0132462D02*
X0136753Y0132144D01*
X0136103Y0132144D01*
X0136103Y0136690D01*
X0136425Y0137018D01*
X0137074Y0137018D01*
X0137169Y0136576D01*
X0137696Y0136947D01*
X0138328Y0137075D01*
X0138962Y0136957D01*
X0139296Y0136588D01*
X0138878Y0136090D01*
X0138388Y0136031D01*
X0137750Y0136058D01*
X0137239Y0135682D01*
X0137083Y0135060D01*
X0137083Y0132462D01*
X0136895Y0132280D02*
X0136103Y0132280D01*
X0136103Y0133065D02*
X0137083Y0133065D01*
X0137083Y0133457D02*
X0136103Y0133457D01*
X0136103Y0133849D02*
X0137083Y0133849D01*
X0137083Y0134242D02*
X0136103Y0134242D01*
X0136103Y0134634D02*
X0137083Y0134634D01*
X0137083Y0135026D02*
X0136103Y0135026D01*
X0136103Y0135418D02*
X0137173Y0135418D01*
X0137414Y0135810D02*
X0136103Y0135810D01*
X0136103Y0136203D02*
X0138972Y0136203D01*
X0139289Y0136595D02*
X0137196Y0136595D01*
X0137165Y0136595D02*
X0136103Y0136595D01*
X0136394Y0136987D02*
X0137081Y0136987D01*
X0137892Y0136987D02*
X0138800Y0136987D01*
X0139861Y0136291D02*
X0140317Y0136747D01*
X0140905Y0137013D01*
X0141549Y0137072D01*
X0142180Y0136935D01*
X0142735Y0136604D01*
X0143148Y0136108D01*
X0143378Y0135505D01*
X0143428Y0134860D01*
X0143428Y0134211D01*
X0143086Y0134211D01*
X0140540Y0134211D01*
X0140440Y0135019D01*
X0142336Y0135019D01*
X0142342Y0135543D01*
X0141929Y0136027D01*
X0141302Y0136148D01*
X0140721Y0135889D01*
X0140425Y0135323D01*
X0140396Y0135068D01*
X0140490Y0134162D01*
X0140483Y0133674D01*
X0140887Y0133181D01*
X0141505Y0133010D01*
X0142135Y0133140D01*
X0142660Y0133447D01*
X0143154Y0133026D01*
X0143036Y0132586D01*
X0142480Y0132256D01*
X0141852Y0132101D01*
X0141205Y0132109D01*
X0140581Y0132279D01*
X0140048Y0132641D01*
X0139678Y0133170D01*
X0139479Y0133786D01*
X0139411Y0134431D01*
X0139438Y0135078D01*
X0139575Y0135711D01*
X0139861Y0136291D01*
X0139817Y0136203D02*
X0143070Y0136203D01*
X0143262Y0135810D02*
X0142114Y0135810D01*
X0142341Y0135418D02*
X0143385Y0135418D01*
X0143415Y0135026D02*
X0142337Y0135026D01*
X0143428Y0134634D02*
X0140487Y0134634D01*
X0140441Y0134634D02*
X0139420Y0134634D01*
X0139436Y0135026D02*
X0140400Y0135026D01*
X0140475Y0135418D02*
X0139512Y0135418D01*
X0139624Y0135810D02*
X0140680Y0135810D01*
X0140165Y0136595D02*
X0142742Y0136595D01*
X0141939Y0136987D02*
X0140849Y0136987D01*
X0140536Y0134242D02*
X0143428Y0134242D01*
X0143109Y0133065D02*
X0141770Y0133065D01*
X0141307Y0133065D02*
X0139751Y0133065D01*
X0139585Y0133457D02*
X0140660Y0133457D01*
X0140485Y0133849D02*
X0139473Y0133849D01*
X0139431Y0134242D02*
X0140482Y0134242D01*
X0140026Y0132673D02*
X0143059Y0132673D01*
X0142521Y0132280D02*
X0140579Y0132280D01*
X0134557Y0136595D02*
X0131599Y0136595D01*
X0132321Y0136987D02*
X0133808Y0136987D01*
X0133958Y0139786D02*
X0133328Y0139926D01*
X0132799Y0140295D01*
X0132458Y0140842D01*
X0132349Y0141478D01*
X0132348Y0144075D01*
X0132354Y0144719D01*
X0133003Y0144719D01*
X0133329Y0144395D01*
X0133329Y0141798D01*
X0133497Y0141180D01*
X0134009Y0140805D01*
X0134648Y0140825D01*
X0135129Y0141239D01*
X0135262Y0141867D01*
X0135262Y0144464D01*
X0135656Y0144719D01*
X0136242Y0144655D01*
X0136242Y0140110D01*
X0135860Y0139843D01*
X0135262Y0139894D01*
X0135135Y0140242D01*
X0134595Y0139892D01*
X0133958Y0139786D01*
X0133043Y0140125D02*
X0134954Y0140125D01*
X0135178Y0140125D02*
X0136242Y0140125D01*
X0136242Y0140517D02*
X0132660Y0140517D01*
X0132446Y0140909D02*
X0133867Y0140909D01*
X0133464Y0141301D02*
X0132379Y0141301D01*
X0132349Y0141694D02*
X0133357Y0141694D01*
X0133329Y0142086D02*
X0132349Y0142086D01*
X0132348Y0142478D02*
X0133329Y0142478D01*
X0133329Y0142870D02*
X0132348Y0142870D01*
X0132348Y0143262D02*
X0133329Y0143262D01*
X0133329Y0143655D02*
X0132348Y0143655D01*
X0132348Y0144047D02*
X0133329Y0144047D01*
X0133285Y0144439D02*
X0132352Y0144439D01*
X0135262Y0144439D02*
X0136242Y0144439D01*
X0136242Y0144047D02*
X0135262Y0144047D01*
X0135262Y0143655D02*
X0136242Y0143655D01*
X0136242Y0143262D02*
X0135262Y0143262D01*
X0135262Y0142870D02*
X0136242Y0142870D01*
X0136242Y0142478D02*
X0135262Y0142478D01*
X0135262Y0142086D02*
X0136242Y0142086D01*
X0136242Y0141694D02*
X0135225Y0141694D01*
X0135142Y0141301D02*
X0136242Y0141301D01*
X0136242Y0140909D02*
X0134746Y0140909D01*
X0137318Y0140909D02*
X0138299Y0140909D01*
X0138299Y0140517D02*
X0137318Y0140517D01*
X0137318Y0140125D02*
X0138260Y0140125D01*
X0138299Y0140162D02*
X0137967Y0139844D01*
X0137318Y0139844D01*
X0137318Y0144391D01*
X0137639Y0144719D01*
X0138289Y0144719D01*
X0138384Y0144277D01*
X0138910Y0144648D01*
X0139543Y0144776D01*
X0140177Y0144657D01*
X0140511Y0144288D01*
X0140093Y0143791D01*
X0139603Y0143731D01*
X0138965Y0143757D01*
X0138454Y0143382D01*
X0138299Y0142760D01*
X0138299Y0140162D01*
X0138299Y0141301D02*
X0137318Y0141301D01*
X0137318Y0141694D02*
X0138299Y0141694D01*
X0138299Y0142086D02*
X0137318Y0142086D01*
X0137318Y0142478D02*
X0138299Y0142478D01*
X0138326Y0142870D02*
X0137318Y0142870D01*
X0137318Y0143262D02*
X0138424Y0143262D01*
X0138825Y0143655D02*
X0137318Y0143655D01*
X0137318Y0144047D02*
X0140308Y0144047D01*
X0140375Y0144439D02*
X0138614Y0144439D01*
X0138349Y0144439D02*
X0137365Y0144439D01*
X0140663Y0143383D02*
X0140967Y0143960D01*
X0141437Y0144412D01*
X0142030Y0144685D01*
X0142676Y0144776D01*
X0143323Y0144687D01*
X0143913Y0144409D01*
X0144406Y0143980D01*
X0144012Y0143538D01*
X0143538Y0143485D01*
X0142959Y0143774D01*
X0142309Y0143742D01*
X0141769Y0143392D01*
X0141516Y0142795D01*
X0141473Y0142142D01*
X0141588Y0141500D01*
X0141968Y0140979D01*
X0142581Y0140773D01*
X0143221Y0140873D01*
X0143730Y0141276D01*
X0144218Y0140840D01*
X0144211Y0140386D01*
X0143674Y0140015D01*
X0143053Y0139814D01*
X0142400Y0139804D01*
X0141769Y0139969D01*
X0141220Y0140321D01*
X0140817Y0140834D01*
X0140583Y0141444D01*
X0140494Y0142092D01*
X0140517Y0142746D01*
X0140663Y0143383D01*
X0140635Y0143262D02*
X0141714Y0143262D01*
X0141548Y0142870D02*
X0140546Y0142870D01*
X0140508Y0142478D02*
X0141495Y0142478D01*
X0141483Y0142086D02*
X0140495Y0142086D01*
X0140549Y0141694D02*
X0141553Y0141694D01*
X0141733Y0141301D02*
X0140637Y0141301D01*
X0140788Y0140909D02*
X0142176Y0140909D01*
X0141526Y0140125D02*
X0143833Y0140125D01*
X0144213Y0140517D02*
X0141066Y0140517D01*
X0143267Y0140909D02*
X0144140Y0140909D01*
X0144830Y0141301D02*
X0145833Y0141301D01*
X0145773Y0141374D02*
X0146177Y0140881D01*
X0146795Y0140710D01*
X0147425Y0140839D01*
X0147951Y0141147D01*
X0148445Y0140726D01*
X0148327Y0140285D01*
X0147771Y0139956D01*
X0147143Y0139801D01*
X0146496Y0139809D01*
X0145872Y0139979D01*
X0145339Y0140341D01*
X0144969Y0140870D01*
X0144770Y0141486D01*
X0144702Y0142130D01*
X0144729Y0142778D01*
X0144866Y0143411D01*
X0145152Y0143991D01*
X0145608Y0144447D01*
X0146196Y0144712D01*
X0146840Y0144772D01*
X0147471Y0144634D01*
X0148026Y0144304D01*
X0148440Y0143808D01*
X0148670Y0143205D01*
X0148720Y0142559D01*
X0148720Y0141911D01*
X0148377Y0141911D01*
X0145831Y0141911D01*
X0145730Y0142718D01*
X0147627Y0142718D01*
X0147633Y0143243D01*
X0147220Y0143727D01*
X0146593Y0143847D01*
X0146012Y0143589D01*
X0145716Y0143022D01*
X0145687Y0142767D01*
X0145781Y0141861D01*
X0145773Y0141374D01*
X0145779Y0141694D02*
X0144748Y0141694D01*
X0144707Y0142086D02*
X0145758Y0142086D01*
X0145809Y0142086D02*
X0148720Y0142086D01*
X0148720Y0142478D02*
X0145760Y0142478D01*
X0145717Y0142478D02*
X0144717Y0142478D01*
X0144749Y0142870D02*
X0145698Y0142870D01*
X0145841Y0143262D02*
X0144834Y0143262D01*
X0144986Y0143655D02*
X0146160Y0143655D01*
X0145600Y0144439D02*
X0147799Y0144439D01*
X0148240Y0144047D02*
X0145208Y0144047D01*
X0144330Y0144047D02*
X0141057Y0144047D01*
X0140806Y0143655D02*
X0142174Y0143655D01*
X0143198Y0143655D02*
X0144116Y0143655D01*
X0143849Y0144439D02*
X0141497Y0144439D01*
X0136835Y0148843D02*
X0136308Y0148522D01*
X0135763Y0148886D01*
X0133055Y0150745D01*
X0132480Y0151022D01*
X0131894Y0150730D01*
X0131315Y0150421D01*
X0130728Y0150134D01*
X0130392Y0150657D01*
X0127378Y0157938D01*
X0127633Y0158438D01*
X0128172Y0158811D01*
X0128691Y0159212D01*
X0129156Y0159676D01*
X0129556Y0160196D01*
X0129886Y0160763D01*
X0130141Y0161368D01*
X0130314Y0162001D01*
X0130404Y0162651D01*
X0130410Y0163307D01*
X0130332Y0163959D01*
X0130170Y0164595D01*
X0129928Y0165205D01*
X0129608Y0165778D01*
X0129218Y0166305D01*
X0128762Y0166778D01*
X0128250Y0167188D01*
X0127690Y0167529D01*
X0127090Y0167795D01*
X0126460Y0167981D01*
X0125812Y0168083D01*
X0125156Y0168102D01*
X0124503Y0168037D01*
X0123864Y0167888D01*
X0123249Y0167657D01*
X0122670Y0167349D01*
X0122135Y0166968D01*
X0121654Y0166523D01*
X0121234Y0166019D01*
X0120881Y0165465D01*
X0120604Y0164870D01*
X0120406Y0164245D01*
X0120291Y0163599D01*
X0120259Y0162943D01*
X0120312Y0162289D01*
X0120448Y0161647D01*
X0120667Y0161028D01*
X0120964Y0160443D01*
X0121334Y0159901D01*
X0121771Y0159411D01*
X0122267Y0158981D01*
X0122795Y0158593D01*
X0123327Y0158219D01*
X0123159Y0157602D01*
X0120145Y0150321D01*
X0119620Y0150283D01*
X0118461Y0150902D01*
X0117862Y0150911D01*
X0114614Y0148681D01*
X0114049Y0148636D01*
X0111263Y0151422D01*
X0110813Y0151898D01*
X0111068Y0152472D01*
X0113297Y0155721D01*
X0113229Y0156340D01*
X0112009Y0159389D01*
X0111516Y0159742D01*
X0107643Y0160463D01*
X0107164Y0160791D01*
X0107168Y0165388D01*
X0107718Y0165652D01*
X0111592Y0166373D01*
X0112111Y0166697D01*
X0113405Y0169715D01*
X0110341Y0173317D01*
X0113996Y0177411D01*
X0114552Y0177463D01*
X0117801Y0175233D01*
X0118348Y0174872D01*
X0118971Y0175026D01*
X0121402Y0176021D01*
X0121933Y0176368D01*
X0122778Y0180886D01*
X0123222Y0181225D01*
X0127162Y0181225D01*
X0127801Y0181156D01*
X0127966Y0180529D01*
X0128688Y0176655D01*
X0129005Y0176132D01*
X0132044Y0174888D01*
X0132635Y0175067D01*
X0135884Y0177297D01*
X0136453Y0177587D01*
X0136938Y0177154D01*
X0139725Y0174368D01*
X0139732Y0173808D01*
X0137503Y0170559D01*
X0137188Y0169993D01*
X0137415Y0169381D01*
X0138450Y0166967D01*
X0138798Y0166432D01*
X0139442Y0166306D01*
X0143316Y0165586D01*
X0143316Y0165586D01*
X0143513Y0165024D01*
X0143513Y0161084D01*
X0143322Y0160517D01*
X0139448Y0159796D01*
X0138818Y0159635D01*
X0138532Y0159051D01*
X0137556Y0156612D01*
X0137319Y0156000D01*
X0137585Y0155421D01*
X0139814Y0152172D01*
X0139621Y0151629D01*
X0136835Y0148843D01*
X0136687Y0148753D02*
X0135962Y0148753D01*
X0135385Y0149146D02*
X0137137Y0149146D01*
X0137529Y0149538D02*
X0134814Y0149538D01*
X0134242Y0149930D02*
X0137922Y0149930D01*
X0138314Y0150322D02*
X0133671Y0150322D01*
X0133099Y0150714D02*
X0138706Y0150714D01*
X0139098Y0151107D02*
X0130206Y0151107D01*
X0130043Y0151499D02*
X0139491Y0151499D01*
X0139714Y0151891D02*
X0129881Y0151891D01*
X0129719Y0152283D02*
X0139738Y0152283D01*
X0139469Y0152675D02*
X0129556Y0152675D01*
X0129394Y0153068D02*
X0139200Y0153068D01*
X0138930Y0153460D02*
X0129232Y0153460D01*
X0129070Y0153852D02*
X0138661Y0153852D01*
X0138392Y0154244D02*
X0128907Y0154244D01*
X0128745Y0154637D02*
X0138123Y0154637D01*
X0137854Y0155029D02*
X0128583Y0155029D01*
X0128420Y0155421D02*
X0137585Y0155421D01*
X0137405Y0155813D02*
X0128258Y0155813D01*
X0128096Y0156205D02*
X0137399Y0156205D01*
X0137551Y0156598D02*
X0127933Y0156598D01*
X0127771Y0156990D02*
X0137707Y0156990D01*
X0137864Y0157382D02*
X0127609Y0157382D01*
X0127446Y0157774D02*
X0138021Y0157774D01*
X0138178Y0158166D02*
X0127494Y0158166D01*
X0127807Y0158559D02*
X0138336Y0158559D01*
X0138493Y0158951D02*
X0128353Y0158951D01*
X0128823Y0159343D02*
X0138675Y0159343D01*
X0139211Y0159735D02*
X0129201Y0159735D01*
X0129503Y0160128D02*
X0141229Y0160128D01*
X0143323Y0160520D02*
X0129745Y0160520D01*
X0129949Y0160912D02*
X0143455Y0160912D01*
X0143513Y0161304D02*
X0130114Y0161304D01*
X0130231Y0161696D02*
X0143513Y0161696D01*
X0143513Y0162089D02*
X0130326Y0162089D01*
X0130381Y0162481D02*
X0143513Y0162481D01*
X0143513Y0162873D02*
X0130406Y0162873D01*
X0130410Y0163265D02*
X0143513Y0163265D01*
X0143513Y0163657D02*
X0130368Y0163657D01*
X0130309Y0164050D02*
X0143513Y0164050D01*
X0143513Y0164442D02*
X0130209Y0164442D01*
X0130075Y0164834D02*
X0143513Y0164834D01*
X0143442Y0165226D02*
X0129916Y0165226D01*
X0129697Y0165618D02*
X0143141Y0165618D01*
X0141032Y0166011D02*
X0129436Y0166011D01*
X0129123Y0166403D02*
X0138949Y0166403D01*
X0138562Y0166795D02*
X0128740Y0166795D01*
X0128251Y0167187D02*
X0138356Y0167187D01*
X0138187Y0167580D02*
X0127576Y0167580D01*
X0126492Y0167972D02*
X0138019Y0167972D01*
X0137851Y0168364D02*
X0112826Y0168364D01*
X0112658Y0167972D02*
X0124224Y0167972D01*
X0123103Y0167580D02*
X0112490Y0167580D01*
X0112322Y0167187D02*
X0122443Y0167187D01*
X0121948Y0166795D02*
X0112154Y0166795D01*
X0111641Y0166403D02*
X0121554Y0166403D01*
X0121229Y0166011D02*
X0109646Y0166011D01*
X0107648Y0165618D02*
X0120979Y0165618D01*
X0120770Y0165226D02*
X0107167Y0165226D01*
X0107167Y0164834D02*
X0120592Y0164834D01*
X0120468Y0164442D02*
X0107167Y0164442D01*
X0107166Y0164050D02*
X0120371Y0164050D01*
X0120301Y0163657D02*
X0107166Y0163657D01*
X0107166Y0163265D02*
X0120275Y0163265D01*
X0120265Y0162873D02*
X0107165Y0162873D01*
X0107165Y0162481D02*
X0120296Y0162481D01*
X0120354Y0162089D02*
X0107165Y0162089D01*
X0107164Y0161696D02*
X0120437Y0161696D01*
X0120569Y0161304D02*
X0107164Y0161304D01*
X0107164Y0160912D02*
X0120726Y0160912D01*
X0120925Y0160520D02*
X0107560Y0160520D01*
X0109447Y0160128D02*
X0121180Y0160128D01*
X0121482Y0159735D02*
X0111526Y0159735D01*
X0112027Y0159343D02*
X0121850Y0159343D01*
X0122308Y0158951D02*
X0112184Y0158951D01*
X0112341Y0158559D02*
X0122844Y0158559D01*
X0123313Y0158166D02*
X0112498Y0158166D01*
X0112655Y0157774D02*
X0123206Y0157774D01*
X0123068Y0157382D02*
X0112812Y0157382D01*
X0112969Y0156990D02*
X0122905Y0156990D01*
X0122743Y0156598D02*
X0113126Y0156598D01*
X0113244Y0156205D02*
X0122581Y0156205D01*
X0122418Y0155813D02*
X0113287Y0155813D01*
X0113091Y0155421D02*
X0122256Y0155421D01*
X0122094Y0155029D02*
X0112822Y0155029D01*
X0112553Y0154637D02*
X0121932Y0154637D01*
X0121769Y0154244D02*
X0112284Y0154244D01*
X0112015Y0153852D02*
X0121607Y0153852D01*
X0121445Y0153460D02*
X0111746Y0153460D01*
X0111476Y0153068D02*
X0121282Y0153068D01*
X0121120Y0152675D02*
X0111207Y0152675D01*
X0110984Y0152283D02*
X0120958Y0152283D01*
X0120795Y0151891D02*
X0110820Y0151891D01*
X0111190Y0151499D02*
X0120633Y0151499D01*
X0120471Y0151107D02*
X0111578Y0151107D01*
X0111971Y0150714D02*
X0117577Y0150714D01*
X0117005Y0150322D02*
X0112363Y0150322D01*
X0112755Y0149930D02*
X0116434Y0149930D01*
X0115862Y0149538D02*
X0113147Y0149538D01*
X0113540Y0149146D02*
X0115291Y0149146D01*
X0114720Y0148753D02*
X0113932Y0148753D01*
X0113508Y0144772D02*
X0114140Y0144634D01*
X0114694Y0144304D01*
X0115108Y0143808D01*
X0115338Y0143205D01*
X0115388Y0142559D01*
X0115388Y0141911D01*
X0115046Y0141911D01*
X0112500Y0141911D01*
X0112399Y0142718D01*
X0114296Y0142718D01*
X0114302Y0143242D01*
X0113889Y0143727D01*
X0113262Y0143847D01*
X0112681Y0143589D01*
X0112384Y0143022D01*
X0112355Y0142767D01*
X0112450Y0141861D01*
X0112442Y0141374D01*
X0112845Y0140881D01*
X0113463Y0140710D01*
X0114093Y0140839D01*
X0114619Y0141147D01*
X0115113Y0140727D01*
X0114996Y0140286D01*
X0114440Y0139956D01*
X0113812Y0139801D01*
X0113165Y0139809D01*
X0112541Y0139979D01*
X0112008Y0140341D01*
X0111637Y0140870D01*
X0111439Y0141486D01*
X0111371Y0142130D01*
X0111398Y0142778D01*
X0111535Y0143411D01*
X0111821Y0143991D01*
X0112277Y0144447D01*
X0112865Y0144712D01*
X0113508Y0144772D01*
X0114468Y0144439D02*
X0112269Y0144439D01*
X0111877Y0144047D02*
X0114909Y0144047D01*
X0115167Y0143655D02*
X0113951Y0143655D01*
X0114285Y0143262D02*
X0115316Y0143262D01*
X0115364Y0142870D02*
X0114298Y0142870D01*
X0115388Y0142478D02*
X0112429Y0142478D01*
X0112386Y0142478D02*
X0111386Y0142478D01*
X0111376Y0142086D02*
X0112427Y0142086D01*
X0112478Y0142086D02*
X0115388Y0142086D01*
X0116225Y0142086D02*
X0117206Y0142086D01*
X0117206Y0142478D02*
X0116225Y0142478D01*
X0116225Y0142870D02*
X0117236Y0142870D01*
X0117206Y0142759D02*
X0117206Y0140162D01*
X0116874Y0139844D01*
X0116225Y0139844D01*
X0116225Y0144389D01*
X0116544Y0144719D01*
X0117193Y0144719D01*
X0117289Y0144274D01*
X0117815Y0144647D01*
X0118447Y0144776D01*
X0119082Y0144662D01*
X0119624Y0144314D01*
X0119986Y0143780D01*
X0120118Y0143148D01*
X0120119Y0139902D01*
X0119528Y0139844D01*
X0119139Y0140103D01*
X0119139Y0142700D01*
X0119003Y0143328D01*
X0118520Y0143739D01*
X0117881Y0143755D01*
X0117371Y0143378D01*
X0117206Y0142759D01*
X0117340Y0143262D02*
X0116225Y0143262D01*
X0116225Y0143655D02*
X0117745Y0143655D01*
X0117522Y0144439D02*
X0119429Y0144439D01*
X0119806Y0144047D02*
X0116225Y0144047D01*
X0116274Y0144439D02*
X0117254Y0144439D01*
X0118619Y0143655D02*
X0120013Y0143655D01*
X0120094Y0143262D02*
X0119017Y0143262D01*
X0119102Y0142870D02*
X0120118Y0142870D01*
X0120118Y0142478D02*
X0119139Y0142478D01*
X0119139Y0142086D02*
X0120118Y0142086D01*
X0120118Y0141694D02*
X0119139Y0141694D01*
X0119139Y0141301D02*
X0120119Y0141301D01*
X0120119Y0140909D02*
X0119139Y0140909D01*
X0119139Y0140517D02*
X0120119Y0140517D01*
X0120119Y0140125D02*
X0119139Y0140125D01*
X0117167Y0140125D02*
X0116225Y0140125D01*
X0116225Y0140517D02*
X0117206Y0140517D01*
X0117206Y0140909D02*
X0116225Y0140909D01*
X0116225Y0141301D02*
X0117206Y0141301D01*
X0117206Y0141694D02*
X0116225Y0141694D01*
X0114899Y0140909D02*
X0114213Y0140909D01*
X0115057Y0140517D02*
X0111885Y0140517D01*
X0111625Y0140909D02*
X0112822Y0140909D01*
X0112501Y0141301D02*
X0111499Y0141301D01*
X0111417Y0141694D02*
X0112447Y0141694D01*
X0112367Y0142870D02*
X0111418Y0142870D01*
X0111502Y0143262D02*
X0112510Y0143262D01*
X0112829Y0143655D02*
X0111655Y0143655D01*
X0110472Y0143262D02*
X0109379Y0143262D01*
X0109494Y0142870D02*
X0110496Y0142870D01*
X0110508Y0142478D02*
X0109520Y0142478D01*
X0109523Y0142086D02*
X0110509Y0142086D01*
X0110496Y0141694D02*
X0109491Y0141694D01*
X0109363Y0141301D02*
X0110467Y0141301D01*
X0110391Y0140909D02*
X0109043Y0140909D01*
X0108073Y0140909D02*
X0106613Y0140909D01*
X0106613Y0140517D02*
X0107819Y0140517D01*
X0107884Y0140517D02*
X0110195Y0140517D01*
X0109830Y0140125D02*
X0107919Y0140125D01*
X0107624Y0140125D02*
X0106613Y0140125D01*
X0106613Y0139732D02*
X0107597Y0139732D01*
X0107597Y0139340D02*
X0106613Y0139340D01*
X0106613Y0138948D02*
X0107596Y0138948D01*
X0107596Y0138556D02*
X0106613Y0138556D01*
X0106613Y0138164D02*
X0107595Y0138164D01*
X0107595Y0137771D02*
X0106613Y0137771D01*
X0106613Y0137379D02*
X0107595Y0137379D01*
X0107594Y0136987D02*
X0106613Y0136987D01*
X0106613Y0136595D02*
X0107594Y0136595D01*
X0107715Y0136595D02*
X0110005Y0136595D01*
X0109389Y0136987D02*
X0108423Y0136987D01*
X0111891Y0136595D02*
X0114849Y0136595D01*
X0115153Y0136203D02*
X0111860Y0136203D01*
X0112613Y0136987D02*
X0114100Y0136987D01*
X0114174Y0135810D02*
X0115278Y0135810D01*
X0115310Y0135418D02*
X0114320Y0135418D01*
X0114303Y0135026D02*
X0115318Y0135026D01*
X0115318Y0134634D02*
X0111866Y0134634D01*
X0112326Y0140125D02*
X0114724Y0140125D01*
X0110375Y0143655D02*
X0108984Y0143655D01*
X0108086Y0143655D02*
X0106613Y0143655D01*
X0106613Y0144047D02*
X0110214Y0144047D01*
X0109863Y0144439D02*
X0107798Y0144439D01*
X0107526Y0144439D02*
X0106640Y0144439D01*
X0106613Y0143262D02*
X0107722Y0143262D01*
X0107650Y0142870D02*
X0106613Y0142870D01*
X0106613Y0142478D02*
X0107605Y0142478D01*
X0107604Y0142086D02*
X0106613Y0142086D01*
X0106613Y0141694D02*
X0107648Y0141694D01*
X0107729Y0141301D02*
X0106613Y0141301D01*
X0105940Y0141547D02*
X0105781Y0140911D01*
X0105410Y0140371D01*
X0104884Y0139983D01*
X0104254Y0139803D01*
X0103598Y0139814D01*
X0102977Y0140021D01*
X0102467Y0140432D01*
X0102122Y0140987D01*
X0101985Y0141629D01*
X0101957Y0142286D01*
X0101959Y0142432D01*
X0102003Y0143088D01*
X0102183Y0143718D01*
X0102575Y0144243D01*
X0103117Y0144610D01*
X0103753Y0144767D01*
X0104408Y0144736D01*
X0105020Y0144505D01*
X0105514Y0144075D01*
X0105837Y0143506D01*
X0105956Y0142861D01*
X0105975Y0142252D01*
X0104993Y0142327D01*
X0104961Y0142934D01*
X0104687Y0143521D01*
X0104099Y0143789D01*
X0103461Y0143675D01*
X0103038Y0143190D01*
X0102942Y0142543D01*
X0102948Y0141885D01*
X0103097Y0141251D01*
X0103587Y0140835D01*
X0104234Y0140801D01*
X0104774Y0141151D01*
X0104978Y0141767D01*
X0104994Y0142229D01*
X0105973Y0142154D01*
X0105940Y0141547D01*
X0105948Y0141694D02*
X0104953Y0141694D01*
X0104989Y0142086D02*
X0105970Y0142086D01*
X0105968Y0142478D02*
X0104985Y0142478D01*
X0104965Y0142870D02*
X0105954Y0142870D01*
X0105882Y0143262D02*
X0104808Y0143262D01*
X0104394Y0143655D02*
X0105752Y0143655D01*
X0105530Y0144047D02*
X0102429Y0144047D01*
X0102165Y0143655D02*
X0103443Y0143655D01*
X0103101Y0143262D02*
X0102053Y0143262D01*
X0101988Y0142870D02*
X0102991Y0142870D01*
X0102942Y0142478D02*
X0101962Y0142478D01*
X0101966Y0142086D02*
X0102946Y0142086D01*
X0102993Y0141694D02*
X0101982Y0141694D01*
X0102055Y0141301D02*
X0103085Y0141301D01*
X0103499Y0140909D02*
X0102170Y0140909D01*
X0102414Y0140517D02*
X0105511Y0140517D01*
X0105780Y0140909D02*
X0104401Y0140909D01*
X0104824Y0141301D02*
X0105879Y0141301D01*
X0105076Y0140125D02*
X0102848Y0140125D01*
X0102865Y0144439D02*
X0105096Y0144439D01*
X0118812Y0150714D02*
X0120308Y0150714D01*
X0120146Y0150322D02*
X0119546Y0150322D01*
X0130368Y0150714D02*
X0131865Y0150714D01*
X0131114Y0150322D02*
X0130607Y0150322D01*
X0125169Y0136987D02*
X0124468Y0136987D01*
X0124258Y0136595D02*
X0125276Y0136595D01*
X0125384Y0136203D02*
X0124383Y0136203D01*
X0124508Y0135810D02*
X0125491Y0135810D01*
X0125598Y0135418D02*
X0124634Y0135418D01*
X0124759Y0135026D02*
X0125705Y0135026D01*
X0125812Y0134634D02*
X0124884Y0134634D01*
X0125010Y0134242D02*
X0125920Y0134242D01*
X0126319Y0134242D02*
X0127172Y0134242D01*
X0127289Y0134634D02*
X0126446Y0134634D01*
X0126035Y0133849D02*
X0127055Y0133849D01*
X0126937Y0133457D02*
X0125260Y0133457D01*
X0125135Y0133849D02*
X0126027Y0133849D01*
X0125386Y0133065D02*
X0126820Y0133065D01*
X0126703Y0132673D02*
X0125511Y0132673D01*
X0125800Y0132280D02*
X0126435Y0132280D01*
X0128445Y0132673D02*
X0129638Y0132673D01*
X0129763Y0133065D02*
X0128328Y0133065D01*
X0128211Y0133457D02*
X0129888Y0133457D01*
X0130014Y0133849D02*
X0128094Y0133849D01*
X0128745Y0132280D02*
X0129512Y0132280D01*
X0123598Y0132673D02*
X0120128Y0132673D01*
X0119882Y0133065D02*
X0123598Y0133065D01*
X0123598Y0133457D02*
X0122352Y0133457D01*
X0122545Y0133849D02*
X0123598Y0133849D01*
X0123598Y0134242D02*
X0122601Y0134242D01*
X0122610Y0134634D02*
X0123598Y0134634D01*
X0123598Y0135026D02*
X0122598Y0135026D01*
X0122513Y0135418D02*
X0123598Y0135418D01*
X0123598Y0135810D02*
X0122261Y0135810D01*
X0120984Y0135810D02*
X0119798Y0135810D01*
X0119729Y0135418D02*
X0120780Y0135418D01*
X0120712Y0135026D02*
X0119713Y0135026D01*
X0119706Y0134634D02*
X0120686Y0134634D01*
X0120700Y0134242D02*
X0119707Y0134242D01*
X0119727Y0133849D02*
X0120761Y0133849D01*
X0120889Y0133457D02*
X0119765Y0133457D01*
X0120634Y0132280D02*
X0122077Y0132280D01*
X0122617Y0132280D02*
X0123406Y0132280D01*
X0144956Y0140909D02*
X0146154Y0140909D01*
X0145658Y0140125D02*
X0148056Y0140125D01*
X0148389Y0140517D02*
X0145216Y0140517D01*
X0147544Y0140909D02*
X0148230Y0140909D01*
X0148696Y0142870D02*
X0147629Y0142870D01*
X0147616Y0143262D02*
X0148648Y0143262D01*
X0148498Y0143655D02*
X0147282Y0143655D01*
X0137683Y0168756D02*
X0112994Y0168756D01*
X0113162Y0169148D02*
X0137515Y0169148D01*
X0137356Y0169541D02*
X0113331Y0169541D01*
X0113220Y0169933D02*
X0137211Y0169933D01*
X0137373Y0170325D02*
X0112886Y0170325D01*
X0112553Y0170717D02*
X0137611Y0170717D01*
X0137880Y0171109D02*
X0112219Y0171109D01*
X0111886Y0171502D02*
X0138150Y0171502D01*
X0138419Y0171894D02*
X0111552Y0171894D01*
X0111218Y0172286D02*
X0138688Y0172286D01*
X0138957Y0172678D02*
X0110885Y0172678D01*
X0110551Y0173071D02*
X0139226Y0173071D01*
X0139495Y0173463D02*
X0110471Y0173463D01*
X0110821Y0173855D02*
X0139731Y0173855D01*
X0139726Y0174247D02*
X0111172Y0174247D01*
X0111522Y0174639D02*
X0139453Y0174639D01*
X0139061Y0175032D02*
X0132518Y0175032D01*
X0133155Y0175424D02*
X0138669Y0175424D01*
X0138276Y0175816D02*
X0133727Y0175816D01*
X0134298Y0176208D02*
X0137884Y0176208D01*
X0137492Y0176600D02*
X0134870Y0176600D01*
X0135441Y0176993D02*
X0137100Y0176993D01*
X0136680Y0177385D02*
X0136057Y0177385D01*
X0131693Y0175032D02*
X0118985Y0175032D01*
X0118106Y0175032D02*
X0111872Y0175032D01*
X0112222Y0175424D02*
X0117523Y0175424D01*
X0116951Y0175816D02*
X0112572Y0175816D01*
X0112922Y0176208D02*
X0116380Y0176208D01*
X0115808Y0176600D02*
X0113273Y0176600D01*
X0113623Y0176993D02*
X0115237Y0176993D01*
X0114665Y0177385D02*
X0113973Y0177385D01*
X0119943Y0175424D02*
X0130735Y0175424D01*
X0129777Y0175816D02*
X0120902Y0175816D01*
X0121688Y0176208D02*
X0128959Y0176208D01*
X0128721Y0176600D02*
X0121976Y0176600D01*
X0122049Y0176993D02*
X0128625Y0176993D01*
X0128552Y0177385D02*
X0122123Y0177385D01*
X0122196Y0177777D02*
X0128479Y0177777D01*
X0128406Y0178169D02*
X0122270Y0178169D01*
X0122343Y0178561D02*
X0128333Y0178561D01*
X0128260Y0178954D02*
X0122416Y0178954D01*
X0122490Y0179346D02*
X0128187Y0179346D01*
X0128114Y0179738D02*
X0122563Y0179738D01*
X0122636Y0180130D02*
X0128041Y0180130D01*
X0127968Y0180523D02*
X0122710Y0180523D01*
X0122815Y0180915D02*
X0127865Y0180915D01*
X0126630Y0198780D02*
X0125979Y0198749D01*
X0125340Y0198889D01*
X0124783Y0199226D01*
X0124381Y0199741D01*
X0124126Y0200343D01*
X0124026Y0200988D01*
X0124037Y0201276D01*
X0124143Y0201922D01*
X0124351Y0202542D01*
X0124688Y0203103D01*
X0125187Y0203519D01*
X0125762Y0203702D01*
X0126005Y0203048D01*
X0125475Y0202769D01*
X0125082Y0202251D01*
X0124892Y0201626D01*
X0127225Y0201626D01*
X0127454Y0201995D01*
X0127192Y0202590D01*
X0126689Y0203000D01*
X0126097Y0203066D01*
X0125858Y0203719D01*
X0126463Y0203740D01*
X0127103Y0203610D01*
X0127646Y0203254D01*
X0128002Y0202707D01*
X0128236Y0202096D01*
X0128344Y0201450D01*
X0128241Y0200916D01*
X0124964Y0200916D01*
X0124967Y0200339D01*
X0125264Y0199762D01*
X0125816Y0199424D01*
X0126463Y0199442D01*
X0127031Y0199758D01*
X0127410Y0200286D01*
X0128022Y0200350D01*
X0128130Y0199900D01*
X0127790Y0199346D01*
X0127254Y0198975D01*
X0126630Y0198780D01*
X0127195Y0198957D02*
X0125229Y0198957D01*
X0124688Y0199349D02*
X0127792Y0199349D01*
X0128032Y0199741D02*
X0127000Y0199741D01*
X0127301Y0200133D02*
X0128074Y0200133D01*
X0128241Y0200918D02*
X0124037Y0200918D01*
X0124043Y0201310D02*
X0128317Y0201310D01*
X0128302Y0201702D02*
X0127272Y0201702D01*
X0127411Y0202094D02*
X0128236Y0202094D01*
X0128087Y0202486D02*
X0127238Y0202486D01*
X0126838Y0202879D02*
X0127890Y0202879D01*
X0127621Y0203271D02*
X0126022Y0203271D01*
X0125922Y0203271D02*
X0124889Y0203271D01*
X0124553Y0202879D02*
X0125683Y0202879D01*
X0125260Y0202486D02*
X0124332Y0202486D01*
X0124201Y0202094D02*
X0125034Y0202094D01*
X0124915Y0201702D02*
X0124107Y0201702D01*
X0123052Y0201702D02*
X0122279Y0201702D01*
X0122279Y0202003D02*
X0122169Y0202639D01*
X0121634Y0202988D01*
X0120989Y0202939D01*
X0120446Y0202582D01*
X0120130Y0202018D01*
X0120076Y0201367D01*
X0120076Y0199403D01*
X0119955Y0198869D01*
X0119303Y0198866D01*
X0119303Y0203450D01*
X0119795Y0203613D01*
X0120076Y0203239D01*
X0120293Y0203293D01*
X0120864Y0203606D01*
X0121504Y0203735D01*
X0122153Y0203679D01*
X0122731Y0203381D01*
X0123032Y0202814D01*
X0123052Y0202160D01*
X0123052Y0198886D01*
X0122417Y0198866D01*
X0122279Y0199384D01*
X0122279Y0202003D01*
X0122263Y0202094D02*
X0123052Y0202094D01*
X0123042Y0202486D02*
X0122195Y0202486D01*
X0121802Y0202879D02*
X0122997Y0202879D01*
X0122790Y0203271D02*
X0120204Y0203271D01*
X0120052Y0203271D02*
X0119303Y0203271D01*
X0119303Y0202879D02*
X0120898Y0202879D01*
X0120392Y0202486D02*
X0119303Y0202486D01*
X0119303Y0202094D02*
X0120172Y0202094D01*
X0120104Y0201702D02*
X0119303Y0201702D01*
X0119303Y0201310D02*
X0120076Y0201310D01*
X0120076Y0200918D02*
X0119303Y0200918D01*
X0119303Y0200525D02*
X0120076Y0200525D01*
X0120076Y0200133D02*
X0119303Y0200133D01*
X0119303Y0199741D02*
X0120076Y0199741D01*
X0120064Y0199349D02*
X0119303Y0199349D01*
X0119303Y0198957D02*
X0119975Y0198957D01*
X0118029Y0199187D02*
X0118029Y0203169D01*
X0117809Y0203613D01*
X0117247Y0203512D01*
X0117247Y0198866D01*
X0117687Y0198866D01*
X0118029Y0199187D01*
X0118029Y0199349D02*
X0117247Y0199349D01*
X0117247Y0199741D02*
X0118029Y0199741D01*
X0118029Y0200133D02*
X0117247Y0200133D01*
X0117247Y0200525D02*
X0118029Y0200525D01*
X0118029Y0200918D02*
X0117247Y0200918D01*
X0117247Y0201310D02*
X0118029Y0201310D01*
X0118029Y0201702D02*
X0117247Y0201702D01*
X0117247Y0202094D02*
X0118029Y0202094D01*
X0118029Y0202486D02*
X0117247Y0202486D01*
X0117247Y0202879D02*
X0118029Y0202879D01*
X0117979Y0203271D02*
X0117247Y0203271D01*
X0117247Y0204458D02*
X0117911Y0204458D01*
X0118029Y0205003D01*
X0117809Y0205447D01*
X0117247Y0205346D01*
X0117247Y0204458D01*
X0117247Y0204840D02*
X0117994Y0204840D01*
X0117916Y0205232D02*
X0117247Y0205232D01*
X0117797Y0206801D02*
X0119679Y0206801D01*
X0119545Y0206730D02*
X0118896Y0206623D01*
X0118239Y0206653D01*
X0117617Y0206861D01*
X0117112Y0207279D01*
X0116813Y0207862D01*
X0116687Y0208508D01*
X0117466Y0208807D01*
X0117607Y0208164D01*
X0117963Y0207617D01*
X0118526Y0207288D01*
X0119173Y0207331D01*
X0119706Y0207709D01*
X0120044Y0208269D01*
X0120145Y0208917D01*
X0120098Y0209574D01*
X0119887Y0210195D01*
X0119442Y0210675D01*
X0118831Y0210897D01*
X0118202Y0210738D01*
X0117727Y0210288D01*
X0117494Y0209676D01*
X0117449Y0209020D01*
X0116667Y0208948D01*
X0116719Y0209604D01*
X0116884Y0210242D01*
X0117169Y0210835D01*
X0117641Y0211287D01*
X0118257Y0211511D01*
X0118913Y0211563D01*
X0119559Y0211453D01*
X0120131Y0211130D01*
X0120590Y0210661D01*
X0120859Y0210062D01*
X0120972Y0209414D01*
X0120982Y0208756D01*
X0120858Y0208109D01*
X0120566Y0207521D01*
X0120124Y0207035D01*
X0119545Y0206730D01*
X0119531Y0207585D02*
X0120598Y0207585D01*
X0120793Y0207977D02*
X0119867Y0207977D01*
X0120059Y0208370D02*
X0120908Y0208370D01*
X0120982Y0208762D02*
X0120121Y0208762D01*
X0120128Y0209154D02*
X0120976Y0209154D01*
X0120949Y0209546D02*
X0120100Y0209546D01*
X0119974Y0209938D02*
X0120881Y0209938D01*
X0120739Y0210331D02*
X0119761Y0210331D01*
X0119311Y0210723D02*
X0120530Y0210723D01*
X0120146Y0211115D02*
X0117462Y0211115D01*
X0117115Y0210723D02*
X0118185Y0210723D01*
X0117772Y0210331D02*
X0116926Y0210331D01*
X0116805Y0209938D02*
X0117594Y0209938D01*
X0117485Y0209546D02*
X0116714Y0209546D01*
X0116684Y0209154D02*
X0117459Y0209154D01*
X0117476Y0208762D02*
X0117349Y0208762D01*
X0117562Y0208370D02*
X0116714Y0208370D01*
X0116791Y0207977D02*
X0117728Y0207977D01*
X0118018Y0207585D02*
X0116955Y0207585D01*
X0117216Y0207193D02*
X0120268Y0207193D01*
X0121977Y0207193D02*
X0122728Y0207193D01*
X0122750Y0207291D02*
X0122629Y0206757D01*
X0121977Y0206754D01*
X0121977Y0211339D01*
X0122469Y0211501D01*
X0122750Y0211127D01*
X0122967Y0211181D01*
X0123538Y0211494D01*
X0124178Y0211624D01*
X0124827Y0211567D01*
X0125405Y0211269D01*
X0125705Y0210702D01*
X0125726Y0210049D01*
X0125726Y0206774D01*
X0125090Y0206755D01*
X0124953Y0207272D01*
X0124953Y0209892D01*
X0124843Y0210527D01*
X0124308Y0210876D01*
X0123663Y0210827D01*
X0123120Y0210471D01*
X0122804Y0209906D01*
X0122750Y0209256D01*
X0122750Y0207291D01*
X0122750Y0207585D02*
X0121977Y0207585D01*
X0121977Y0207977D02*
X0122750Y0207977D01*
X0122750Y0208370D02*
X0121977Y0208370D01*
X0121977Y0208762D02*
X0122750Y0208762D01*
X0122750Y0209154D02*
X0121977Y0209154D01*
X0121977Y0209546D02*
X0122774Y0209546D01*
X0122822Y0209938D02*
X0121977Y0209938D01*
X0121977Y0210331D02*
X0123041Y0210331D01*
X0123504Y0210723D02*
X0121977Y0210723D01*
X0121977Y0211115D02*
X0125487Y0211115D01*
X0125694Y0210723D02*
X0124543Y0210723D01*
X0124877Y0210331D02*
X0125717Y0210331D01*
X0125726Y0209938D02*
X0124945Y0209938D01*
X0124953Y0209546D02*
X0125726Y0209546D01*
X0125726Y0209154D02*
X0124953Y0209154D01*
X0124953Y0208762D02*
X0125726Y0208762D01*
X0125726Y0208370D02*
X0124953Y0208370D01*
X0124953Y0207977D02*
X0125726Y0207977D01*
X0125726Y0207585D02*
X0124953Y0207585D01*
X0124974Y0207193D02*
X0125726Y0207193D01*
X0125726Y0206801D02*
X0125078Y0206801D01*
X0126781Y0207545D02*
X0126711Y0208031D01*
X0126897Y0208652D01*
X0127320Y0209134D01*
X0127928Y0209363D01*
X0128571Y0209463D01*
X0129218Y0209541D01*
X0129808Y0209770D01*
X0129903Y0210405D01*
X0129428Y0210795D01*
X0128793Y0210926D01*
X0128157Y0210810D01*
X0127739Y0210347D01*
X0127326Y0210080D01*
X0127004Y0210402D01*
X0127252Y0210997D01*
X0127734Y0211428D01*
X0128356Y0211611D01*
X0129006Y0211623D01*
X0129645Y0211501D01*
X0130238Y0211235D01*
X0130652Y0210755D01*
X0130676Y0210105D01*
X0130676Y0208150D01*
X0130697Y0207500D01*
X0131170Y0207210D01*
X0131048Y0206664D01*
X0130402Y0206607D01*
X0129966Y0207058D01*
X0129587Y0206997D01*
X0129184Y0207478D01*
X0129666Y0207832D01*
X0129831Y0208440D01*
X0129831Y0209092D01*
X0129708Y0209003D01*
X0129070Y0208882D01*
X0128427Y0208777D01*
X0127826Y0208530D01*
X0127566Y0207962D01*
X0127894Y0207420D01*
X0128519Y0207275D01*
X0129096Y0207436D01*
X0129494Y0206967D01*
X0128954Y0206705D01*
X0128318Y0206570D01*
X0127676Y0206655D01*
X0127132Y0207002D01*
X0126781Y0207545D01*
X0126775Y0207585D02*
X0127794Y0207585D01*
X0127573Y0207977D02*
X0126719Y0207977D01*
X0126812Y0208370D02*
X0127753Y0208370D01*
X0128391Y0208762D02*
X0126993Y0208762D01*
X0127375Y0209154D02*
X0130676Y0209154D01*
X0130676Y0208762D02*
X0129831Y0208762D01*
X0129812Y0208370D02*
X0130676Y0208370D01*
X0130681Y0207977D02*
X0129706Y0207977D01*
X0129330Y0207585D02*
X0130694Y0207585D01*
X0131167Y0207193D02*
X0129423Y0207193D01*
X0129303Y0207193D02*
X0127008Y0207193D01*
X0127447Y0206801D02*
X0129152Y0206801D01*
X0130214Y0206801D02*
X0131078Y0206801D01*
X0132021Y0206801D02*
X0132683Y0206801D01*
X0132673Y0206757D02*
X0132021Y0206754D01*
X0132021Y0211339D01*
X0132513Y0211501D01*
X0132794Y0211127D01*
X0133011Y0211181D01*
X0133582Y0211494D01*
X0134222Y0211624D01*
X0134871Y0211567D01*
X0135449Y0211269D01*
X0135749Y0210702D01*
X0135770Y0210049D01*
X0135770Y0206774D01*
X0135134Y0206755D01*
X0134997Y0207272D01*
X0134997Y0209892D01*
X0134887Y0210527D01*
X0134352Y0210876D01*
X0133707Y0210827D01*
X0133164Y0210471D01*
X0132848Y0209906D01*
X0132794Y0209256D01*
X0132794Y0207291D01*
X0132673Y0206757D01*
X0132772Y0207193D02*
X0132021Y0207193D01*
X0132021Y0207585D02*
X0132794Y0207585D01*
X0132794Y0207977D02*
X0132021Y0207977D01*
X0132021Y0208370D02*
X0132794Y0208370D01*
X0132794Y0208762D02*
X0132021Y0208762D01*
X0132021Y0209154D02*
X0132794Y0209154D01*
X0132818Y0209546D02*
X0132021Y0209546D01*
X0132021Y0209938D02*
X0132866Y0209938D01*
X0133085Y0210331D02*
X0132021Y0210331D01*
X0132021Y0210723D02*
X0133548Y0210723D01*
X0133648Y0211507D02*
X0134987Y0211507D01*
X0135531Y0211115D02*
X0132021Y0211115D01*
X0130654Y0210723D02*
X0129516Y0210723D01*
X0129892Y0210331D02*
X0130668Y0210331D01*
X0130676Y0209938D02*
X0129833Y0209938D01*
X0129231Y0209546D02*
X0130676Y0209546D01*
X0130342Y0211115D02*
X0127384Y0211115D01*
X0127138Y0210723D02*
X0128078Y0210723D01*
X0127713Y0210331D02*
X0127075Y0210331D01*
X0128005Y0211507D02*
X0129615Y0211507D01*
X0130749Y0214445D02*
X0130192Y0214781D01*
X0129790Y0215297D01*
X0129535Y0215898D01*
X0129434Y0216544D01*
X0129446Y0216831D01*
X0129552Y0217478D01*
X0129759Y0218098D01*
X0130096Y0218659D01*
X0130596Y0219075D01*
X0131171Y0219258D01*
X0131414Y0218604D01*
X0130884Y0218325D01*
X0130490Y0217807D01*
X0130300Y0217182D01*
X0132634Y0217182D01*
X0132863Y0217551D01*
X0132601Y0218146D01*
X0132098Y0218556D01*
X0131506Y0218622D01*
X0131267Y0219275D01*
X0131871Y0219296D01*
X0132511Y0219166D01*
X0133054Y0218810D01*
X0133411Y0218262D01*
X0133645Y0217651D01*
X0133752Y0217006D01*
X0133649Y0216472D01*
X0130372Y0216472D01*
X0130376Y0215895D01*
X0130672Y0215318D01*
X0131224Y0214979D01*
X0131871Y0214997D01*
X0132440Y0215313D01*
X0132819Y0215841D01*
X0133430Y0215905D01*
X0133538Y0215456D01*
X0133199Y0214901D01*
X0132663Y0214530D01*
X0132039Y0214335D01*
X0131387Y0214304D01*
X0130749Y0214445D01*
X0130418Y0214645D02*
X0132828Y0214645D01*
X0133282Y0215037D02*
X0131943Y0215037D01*
X0132523Y0215429D02*
X0133522Y0215429D01*
X0133451Y0215822D02*
X0132805Y0215822D01*
X0133675Y0216606D02*
X0129437Y0216606D01*
X0129473Y0216998D02*
X0133751Y0216998D01*
X0133688Y0217390D02*
X0132763Y0217390D01*
X0132761Y0217783D02*
X0133594Y0217783D01*
X0133444Y0218175D02*
X0132566Y0218175D01*
X0131999Y0218567D02*
X0133213Y0218567D01*
X0132827Y0218959D02*
X0131382Y0218959D01*
X0131282Y0218959D02*
X0130457Y0218959D01*
X0130041Y0218567D02*
X0131343Y0218567D01*
X0130769Y0218175D02*
X0129805Y0218175D01*
X0129654Y0217783D02*
X0130483Y0217783D01*
X0130364Y0217390D02*
X0129537Y0217390D01*
X0128461Y0217390D02*
X0127688Y0217390D01*
X0127688Y0217559D02*
X0127578Y0218195D01*
X0127042Y0218544D01*
X0126398Y0218495D01*
X0125854Y0218138D01*
X0125538Y0217574D01*
X0125485Y0216923D01*
X0125485Y0214959D01*
X0125364Y0214425D01*
X0124712Y0214422D01*
X0124712Y0219006D01*
X0125204Y0219169D01*
X0125485Y0218795D01*
X0125701Y0218849D01*
X0126273Y0219162D01*
X0126913Y0219291D01*
X0127562Y0219235D01*
X0128140Y0218937D01*
X0128440Y0218370D01*
X0128461Y0217716D01*
X0128461Y0214442D01*
X0127825Y0214422D01*
X0127688Y0214940D01*
X0127688Y0217559D01*
X0127649Y0217783D02*
X0128459Y0217783D01*
X0128446Y0218175D02*
X0127581Y0218175D01*
X0128336Y0218567D02*
X0124712Y0218567D01*
X0124712Y0218175D02*
X0125910Y0218175D01*
X0125655Y0217783D02*
X0124712Y0217783D01*
X0124712Y0217390D02*
X0125523Y0217390D01*
X0125491Y0216998D02*
X0124712Y0216998D01*
X0124712Y0216606D02*
X0125485Y0216606D01*
X0125485Y0216214D02*
X0124712Y0216214D01*
X0124712Y0215822D02*
X0125485Y0215822D01*
X0125485Y0215429D02*
X0124712Y0215429D01*
X0124712Y0215037D02*
X0125485Y0215037D01*
X0125414Y0214645D02*
X0124712Y0214645D01*
X0123439Y0214641D02*
X0123439Y0218598D01*
X0123350Y0219169D01*
X0122690Y0219169D01*
X0122621Y0218654D01*
X0122131Y0219090D01*
X0121516Y0219303D01*
X0120861Y0219237D01*
X0120260Y0218975D01*
X0119800Y0218509D01*
X0119513Y0217917D01*
X0119370Y0217274D01*
X0119330Y0216616D01*
X0120184Y0216831D01*
X0120288Y0217481D01*
X0120622Y0218042D01*
X0121172Y0218394D01*
X0121820Y0218381D01*
X0122344Y0217993D01*
X0122613Y0217398D01*
X0122667Y0216742D01*
X0122623Y0216086D01*
X0122367Y0215482D01*
X0121897Y0215026D01*
X0121268Y0214880D01*
X0120700Y0215192D01*
X0120354Y0215747D01*
X0120214Y0216390D01*
X0119324Y0216399D01*
X0119401Y0215745D01*
X0119651Y0215138D01*
X0120075Y0214635D01*
X0120636Y0214296D01*
X0121284Y0214199D01*
X0121924Y0214344D01*
X0122487Y0214683D01*
X0122669Y0214428D01*
X0122513Y0213792D01*
X0122063Y0213320D01*
X0121447Y0213106D01*
X0120799Y0213196D01*
X0120297Y0213600D01*
X0119860Y0213861D01*
X0119492Y0213592D01*
X0119746Y0212994D01*
X0120273Y0212602D01*
X0120903Y0212417D01*
X0121560Y0212393D01*
X0122201Y0212540D01*
X0122779Y0212853D01*
X0123197Y0213355D01*
X0123389Y0213984D01*
X0123439Y0214641D01*
X0123439Y0214645D02*
X0122514Y0214645D01*
X0122424Y0214645D02*
X0120067Y0214645D01*
X0119736Y0215037D02*
X0120982Y0215037D01*
X0120552Y0215429D02*
X0119531Y0215429D01*
X0119392Y0215822D02*
X0120338Y0215822D01*
X0120253Y0216214D02*
X0119346Y0216214D01*
X0119354Y0216998D02*
X0120211Y0216998D01*
X0120274Y0217390D02*
X0119396Y0217390D01*
X0119484Y0217783D02*
X0120468Y0217783D01*
X0120829Y0218175D02*
X0119638Y0218175D01*
X0119857Y0218567D02*
X0123439Y0218567D01*
X0123439Y0218175D02*
X0122098Y0218175D01*
X0122439Y0217783D02*
X0123439Y0217783D01*
X0123439Y0217390D02*
X0122614Y0217390D01*
X0122646Y0216998D02*
X0123439Y0216998D01*
X0123439Y0216606D02*
X0122658Y0216606D01*
X0122632Y0216214D02*
X0123439Y0216214D01*
X0123439Y0215822D02*
X0122511Y0215822D01*
X0122313Y0215429D02*
X0123439Y0215429D01*
X0123439Y0215037D02*
X0121909Y0215037D01*
X0121522Y0214253D02*
X0120926Y0214253D01*
X0120461Y0213468D02*
X0119545Y0213468D01*
X0119711Y0213076D02*
X0122965Y0213076D01*
X0123231Y0213468D02*
X0122205Y0213468D01*
X0122530Y0213861D02*
X0123352Y0213861D01*
X0123410Y0214253D02*
X0122626Y0214253D01*
X0122466Y0212684D02*
X0120163Y0212684D01*
X0119859Y0213861D02*
X0119861Y0213861D01*
X0118716Y0214331D02*
X0118070Y0214274D01*
X0117635Y0214726D01*
X0117256Y0214664D01*
X0116853Y0215146D01*
X0117335Y0215499D01*
X0117500Y0216108D01*
X0117500Y0216760D01*
X0117376Y0216670D01*
X0116738Y0216549D01*
X0116096Y0216444D01*
X0115495Y0216197D01*
X0115234Y0215629D01*
X0115563Y0215087D01*
X0116188Y0214942D01*
X0116765Y0215103D01*
X0117163Y0214634D01*
X0116622Y0214372D01*
X0115987Y0214237D01*
X0115345Y0214322D01*
X0114800Y0214669D01*
X0114449Y0215213D01*
X0114380Y0215699D01*
X0114565Y0216320D01*
X0114989Y0216801D01*
X0115597Y0217030D01*
X0116240Y0217131D01*
X0116887Y0217209D01*
X0117477Y0217438D01*
X0117572Y0218072D01*
X0117097Y0218462D01*
X0116461Y0218593D01*
X0115826Y0218478D01*
X0115407Y0218014D01*
X0114995Y0217747D01*
X0114673Y0218070D01*
X0114921Y0218665D01*
X0115403Y0219095D01*
X0116025Y0219278D01*
X0116676Y0219290D01*
X0117314Y0219169D01*
X0117907Y0218902D01*
X0118322Y0218422D01*
X0118345Y0217772D01*
X0118345Y0215817D01*
X0118366Y0215167D01*
X0118839Y0214877D01*
X0118716Y0214331D01*
X0118787Y0214645D02*
X0117712Y0214645D01*
X0117154Y0214645D02*
X0114839Y0214645D01*
X0114563Y0215037D02*
X0115777Y0215037D01*
X0115355Y0215429D02*
X0114418Y0215429D01*
X0114417Y0215822D02*
X0115323Y0215822D01*
X0115535Y0216214D02*
X0114534Y0216214D01*
X0114817Y0216606D02*
X0117039Y0216606D01*
X0117500Y0216606D02*
X0118345Y0216606D01*
X0118345Y0216214D02*
X0117500Y0216214D01*
X0117422Y0215822D02*
X0118345Y0215822D01*
X0118357Y0215429D02*
X0117240Y0215429D01*
X0116943Y0215037D02*
X0118577Y0215037D01*
X0116821Y0215037D02*
X0116529Y0215037D01*
X0116061Y0214253D02*
X0115869Y0214253D01*
X0113383Y0214871D02*
X0113384Y0218140D01*
X0113211Y0218761D01*
X0112704Y0219160D01*
X0112072Y0219310D01*
X0111427Y0219222D01*
X0110852Y0218922D01*
X0110456Y0218794D01*
X0109927Y0219173D01*
X0109297Y0219330D01*
X0108658Y0219216D01*
X0108120Y0218852D01*
X0107925Y0218805D01*
X0107635Y0219169D01*
X0107152Y0218998D01*
X0107152Y0214422D01*
X0107804Y0214424D01*
X0107925Y0214956D01*
X0107925Y0216918D01*
X0107934Y0217571D01*
X0108184Y0218162D01*
X0108730Y0218508D01*
X0109372Y0218486D01*
X0109813Y0218036D01*
X0109840Y0217385D01*
X0109840Y0214770D01*
X0110147Y0214423D01*
X0110623Y0214601D01*
X0110623Y0217216D01*
X0110708Y0217859D01*
X0111127Y0218349D01*
X0111735Y0218563D01*
X0112335Y0218345D01*
X0112594Y0217764D01*
X0112600Y0217110D01*
X0112600Y0214495D01*
X0113179Y0214420D01*
X0113383Y0214871D01*
X0113383Y0215037D02*
X0112600Y0215037D01*
X0112600Y0214645D02*
X0113281Y0214645D01*
X0113383Y0215429D02*
X0112600Y0215429D01*
X0112600Y0215822D02*
X0113383Y0215822D01*
X0113383Y0216214D02*
X0112600Y0216214D01*
X0112600Y0216606D02*
X0113383Y0216606D01*
X0113383Y0216998D02*
X0112600Y0216998D01*
X0112598Y0217390D02*
X0113383Y0217390D01*
X0113384Y0217783D02*
X0112586Y0217783D01*
X0112411Y0218175D02*
X0113374Y0218175D01*
X0113265Y0218567D02*
X0107152Y0218567D01*
X0107152Y0218175D02*
X0108204Y0218175D01*
X0108024Y0217783D02*
X0107152Y0217783D01*
X0107152Y0217390D02*
X0107932Y0217390D01*
X0107927Y0216998D02*
X0107152Y0216998D01*
X0107152Y0216606D02*
X0107925Y0216606D01*
X0107925Y0216214D02*
X0107152Y0216214D01*
X0107152Y0215822D02*
X0107925Y0215822D01*
X0107925Y0215429D02*
X0107152Y0215429D01*
X0107152Y0215037D02*
X0107925Y0215037D01*
X0107854Y0214645D02*
X0107152Y0214645D01*
X0109840Y0215037D02*
X0110623Y0215037D01*
X0110623Y0214645D02*
X0109951Y0214645D01*
X0109840Y0215429D02*
X0110623Y0215429D01*
X0110623Y0215822D02*
X0109840Y0215822D01*
X0109840Y0216214D02*
X0110623Y0216214D01*
X0110623Y0216606D02*
X0109840Y0216606D01*
X0109840Y0216998D02*
X0110623Y0216998D01*
X0110646Y0217390D02*
X0109840Y0217390D01*
X0109824Y0217783D02*
X0110698Y0217783D01*
X0110978Y0218175D02*
X0109677Y0218175D01*
X0110225Y0218959D02*
X0108279Y0218959D01*
X0107803Y0218959D02*
X0107152Y0218959D01*
X0110923Y0218959D02*
X0112959Y0218959D01*
X0114716Y0218175D02*
X0115552Y0218175D01*
X0115049Y0217783D02*
X0114960Y0217783D01*
X0114881Y0218567D02*
X0116320Y0218567D01*
X0116587Y0218567D02*
X0118196Y0218567D01*
X0118330Y0218175D02*
X0117447Y0218175D01*
X0117529Y0217783D02*
X0118344Y0217783D01*
X0118345Y0217390D02*
X0117356Y0217390D01*
X0118345Y0216998D02*
X0115512Y0216998D01*
X0115251Y0218959D02*
X0117780Y0218959D01*
X0120244Y0218959D02*
X0122278Y0218959D01*
X0122662Y0218959D02*
X0123383Y0218959D01*
X0124712Y0218959D02*
X0125362Y0218959D01*
X0125903Y0218959D02*
X0128097Y0218959D01*
X0128461Y0216998D02*
X0127688Y0216998D01*
X0127688Y0216606D02*
X0128461Y0216606D01*
X0128461Y0216214D02*
X0127688Y0216214D01*
X0127688Y0215822D02*
X0128461Y0215822D01*
X0128461Y0215429D02*
X0127688Y0215429D01*
X0127688Y0215037D02*
X0128461Y0215037D01*
X0128461Y0214645D02*
X0127766Y0214645D01*
X0129733Y0215429D02*
X0130615Y0215429D01*
X0130413Y0215822D02*
X0129567Y0215822D01*
X0129485Y0216214D02*
X0130374Y0216214D01*
X0129992Y0215037D02*
X0131130Y0215037D01*
X0134828Y0215037D02*
X0135763Y0215037D01*
X0135768Y0215017D02*
X0136383Y0214959D01*
X0136383Y0214298D01*
X0135745Y0214241D01*
X0135118Y0214420D01*
X0134828Y0214988D01*
X0134828Y0218291D01*
X0134264Y0218387D01*
X0134189Y0218973D01*
X0134654Y0219169D01*
X0134828Y0219656D01*
X0134828Y0220316D01*
X0135367Y0220437D01*
X0135601Y0220010D01*
X0135601Y0219349D01*
X0136081Y0219169D01*
X0136383Y0218811D01*
X0136147Y0218387D01*
X0135601Y0218272D01*
X0135601Y0215630D01*
X0135768Y0215017D01*
X0135656Y0215429D02*
X0134828Y0215429D01*
X0134828Y0215822D02*
X0135601Y0215822D01*
X0135601Y0216214D02*
X0134828Y0216214D01*
X0134828Y0216606D02*
X0135601Y0216606D01*
X0135601Y0216998D02*
X0134828Y0216998D01*
X0134828Y0217390D02*
X0135601Y0217390D01*
X0135601Y0217783D02*
X0134828Y0217783D01*
X0134828Y0218175D02*
X0135601Y0218175D01*
X0136247Y0218567D02*
X0134241Y0218567D01*
X0134191Y0218959D02*
X0136258Y0218959D01*
X0135601Y0219352D02*
X0134719Y0219352D01*
X0134828Y0219744D02*
X0135601Y0219744D01*
X0135532Y0220136D02*
X0134828Y0220136D01*
X0137160Y0220136D02*
X0137850Y0220136D01*
X0137823Y0220014D02*
X0137160Y0220014D01*
X0137160Y0220902D01*
X0137722Y0221003D01*
X0137942Y0220559D01*
X0137823Y0220014D01*
X0137935Y0220528D02*
X0137160Y0220528D01*
X0137263Y0220920D02*
X0137763Y0220920D01*
X0137722Y0219169D02*
X0137942Y0218725D01*
X0137942Y0214743D01*
X0137599Y0214422D01*
X0137160Y0214422D01*
X0137160Y0219068D01*
X0137722Y0219169D01*
X0137826Y0218959D02*
X0137160Y0218959D01*
X0137160Y0218567D02*
X0137942Y0218567D01*
X0137942Y0218175D02*
X0137160Y0218175D01*
X0137160Y0217783D02*
X0137942Y0217783D01*
X0137942Y0217390D02*
X0137160Y0217390D01*
X0137160Y0216998D02*
X0137942Y0216998D01*
X0137942Y0216606D02*
X0137160Y0216606D01*
X0137160Y0216214D02*
X0137942Y0216214D01*
X0137942Y0215822D02*
X0137160Y0215822D01*
X0137160Y0215429D02*
X0137942Y0215429D01*
X0137942Y0215037D02*
X0137160Y0215037D01*
X0137160Y0214645D02*
X0137837Y0214645D01*
X0139090Y0215261D02*
X0138906Y0215885D01*
X0138846Y0216535D01*
X0138856Y0217182D01*
X0139018Y0217814D01*
X0139309Y0218396D01*
X0139751Y0218873D01*
X0140324Y0219179D01*
X0140963Y0219302D01*
X0141608Y0219217D01*
X0142186Y0218923D01*
X0142627Y0218446D01*
X0142849Y0217836D01*
X0142547Y0217532D01*
X0142078Y0217754D01*
X0141744Y0218302D01*
X0141150Y0218545D01*
X0140521Y0218406D01*
X0140025Y0217987D01*
X0139724Y0217414D01*
X0139637Y0216769D01*
X0139687Y0216119D01*
X0139900Y0215506D01*
X0140362Y0215053D01*
X0140987Y0214903D01*
X0141595Y0215116D01*
X0142017Y0215603D01*
X0142311Y0216051D01*
X0142892Y0215981D01*
X0142772Y0215342D01*
X0142423Y0214795D01*
X0141902Y0214407D01*
X0141286Y0214198D01*
X0140637Y0214181D01*
X0140016Y0214372D01*
X0139484Y0214746D01*
X0139090Y0215261D01*
X0139040Y0215429D02*
X0139978Y0215429D01*
X0139790Y0215822D02*
X0138925Y0215822D01*
X0138876Y0216214D02*
X0139680Y0216214D01*
X0139650Y0216606D02*
X0138847Y0216606D01*
X0138853Y0216998D02*
X0139668Y0216998D01*
X0139721Y0217390D02*
X0138910Y0217390D01*
X0139010Y0217783D02*
X0139917Y0217783D01*
X0140247Y0218175D02*
X0139198Y0218175D01*
X0139467Y0218567D02*
X0142515Y0218567D01*
X0142726Y0218175D02*
X0141822Y0218175D01*
X0142060Y0217783D02*
X0142796Y0217783D01*
X0142114Y0218959D02*
X0139911Y0218959D01*
X0142160Y0215822D02*
X0142862Y0215822D01*
X0142788Y0215429D02*
X0141867Y0215429D01*
X0141370Y0215037D02*
X0142578Y0215037D01*
X0142221Y0214645D02*
X0139628Y0214645D01*
X0139261Y0215037D02*
X0140430Y0215037D01*
X0140403Y0214253D02*
X0141447Y0214253D01*
X0142436Y0211408D02*
X0143010Y0211591D01*
X0143253Y0210937D01*
X0142723Y0210658D01*
X0142330Y0210140D01*
X0142140Y0209515D01*
X0144473Y0209515D01*
X0144703Y0209883D01*
X0144441Y0210478D01*
X0143937Y0210888D01*
X0143346Y0210954D01*
X0143106Y0211607D01*
X0143711Y0211628D01*
X0144351Y0211499D01*
X0144894Y0211143D01*
X0145251Y0210595D01*
X0145484Y0209984D01*
X0145592Y0209338D01*
X0145489Y0208804D01*
X0142212Y0208804D01*
X0142215Y0208227D01*
X0142512Y0207651D01*
X0143064Y0207312D01*
X0143711Y0207330D01*
X0144279Y0207646D01*
X0144658Y0208174D01*
X0145270Y0208238D01*
X0145378Y0207788D01*
X0145039Y0207234D01*
X0144502Y0206863D01*
X0143879Y0206668D01*
X0143227Y0206637D01*
X0142589Y0206777D01*
X0142032Y0207114D01*
X0141629Y0207629D01*
X0141374Y0208231D01*
X0141274Y0208876D01*
X0141286Y0209164D01*
X0141391Y0209810D01*
X0141599Y0210431D01*
X0141936Y0210991D01*
X0142436Y0211408D01*
X0142749Y0211507D02*
X0143041Y0211507D01*
X0143143Y0211507D02*
X0144308Y0211507D01*
X0144912Y0211115D02*
X0143287Y0211115D01*
X0143187Y0211115D02*
X0142085Y0211115D01*
X0141775Y0210723D02*
X0142847Y0210723D01*
X0142475Y0210331D02*
X0141566Y0210331D01*
X0141434Y0209938D02*
X0142269Y0209938D01*
X0142149Y0209546D02*
X0141348Y0209546D01*
X0141285Y0209154D02*
X0145556Y0209154D01*
X0145557Y0209546D02*
X0144493Y0209546D01*
X0144678Y0209938D02*
X0145492Y0209938D01*
X0145352Y0210331D02*
X0144506Y0210331D01*
X0144141Y0210723D02*
X0145167Y0210723D01*
X0145333Y0207977D02*
X0144517Y0207977D01*
X0144170Y0207585D02*
X0145254Y0207585D01*
X0144979Y0207193D02*
X0141970Y0207193D01*
X0141664Y0207585D02*
X0142619Y0207585D01*
X0142344Y0207977D02*
X0141482Y0207977D01*
X0141353Y0208370D02*
X0142215Y0208370D01*
X0142212Y0208762D02*
X0141292Y0208762D01*
X0140719Y0208313D02*
X0140599Y0207674D01*
X0140250Y0207127D01*
X0139729Y0206739D01*
X0139113Y0206530D01*
X0138464Y0206513D01*
X0137843Y0206704D01*
X0137311Y0207079D01*
X0136917Y0207593D01*
X0136734Y0208218D01*
X0136674Y0208867D01*
X0136683Y0209514D01*
X0136845Y0210146D01*
X0137136Y0210729D01*
X0137578Y0211206D01*
X0138151Y0211512D01*
X0138790Y0211635D01*
X0139435Y0211549D01*
X0140013Y0211255D01*
X0140454Y0210778D01*
X0140676Y0210168D01*
X0140374Y0209865D01*
X0139905Y0210086D01*
X0139571Y0210634D01*
X0138977Y0210877D01*
X0138348Y0210738D01*
X0137852Y0210320D01*
X0137551Y0209746D01*
X0137465Y0209101D01*
X0137514Y0208451D01*
X0137727Y0207838D01*
X0138190Y0207386D01*
X0138814Y0207235D01*
X0139422Y0207448D01*
X0139844Y0207935D01*
X0140138Y0208383D01*
X0140719Y0208313D01*
X0140656Y0207977D02*
X0139872Y0207977D01*
X0140129Y0208370D02*
X0140249Y0208370D01*
X0140542Y0207585D02*
X0139541Y0207585D01*
X0139811Y0206801D02*
X0137705Y0206801D01*
X0137224Y0207193D02*
X0140292Y0207193D01*
X0142550Y0206801D02*
X0144303Y0206801D01*
X0145514Y0203681D02*
X0146169Y0203747D01*
X0146784Y0203534D01*
X0147274Y0203098D01*
X0147344Y0203613D01*
X0148003Y0203613D01*
X0148092Y0203042D01*
X0148092Y0199085D01*
X0148043Y0198428D01*
X0147850Y0197799D01*
X0147433Y0197297D01*
X0146854Y0196984D01*
X0146213Y0196837D01*
X0145556Y0196861D01*
X0144926Y0197046D01*
X0144400Y0197438D01*
X0144146Y0198036D01*
X0144513Y0198305D01*
X0144950Y0198044D01*
X0145452Y0197640D01*
X0146100Y0197550D01*
X0146717Y0197764D01*
X0147166Y0198236D01*
X0147323Y0198872D01*
X0147141Y0199127D01*
X0146578Y0198788D01*
X0145937Y0198643D01*
X0145289Y0198740D01*
X0144728Y0199080D01*
X0144304Y0199582D01*
X0144054Y0200189D01*
X0143977Y0200843D01*
X0144867Y0200834D01*
X0145008Y0200191D01*
X0145353Y0199636D01*
X0145921Y0199324D01*
X0146551Y0199470D01*
X0147020Y0199926D01*
X0147276Y0200530D01*
X0147320Y0201186D01*
X0147266Y0201842D01*
X0146997Y0202437D01*
X0146473Y0202825D01*
X0145825Y0202838D01*
X0145275Y0202486D01*
X0144942Y0201925D01*
X0144837Y0201275D01*
X0143983Y0201060D01*
X0144024Y0201718D01*
X0144167Y0202361D01*
X0144453Y0202952D01*
X0144913Y0203419D01*
X0145514Y0203681D01*
X0145473Y0203663D02*
X0146411Y0203663D01*
X0147080Y0203271D02*
X0144767Y0203271D01*
X0144417Y0202879D02*
X0148092Y0202879D01*
X0148092Y0202486D02*
X0146931Y0202486D01*
X0147152Y0202094D02*
X0148092Y0202094D01*
X0148092Y0201702D02*
X0147278Y0201702D01*
X0147310Y0201310D02*
X0148092Y0201310D01*
X0148092Y0200918D02*
X0147302Y0200918D01*
X0147275Y0200525D02*
X0148092Y0200525D01*
X0148092Y0200133D02*
X0147108Y0200133D01*
X0146830Y0199741D02*
X0148092Y0199741D01*
X0148092Y0199349D02*
X0146027Y0199349D01*
X0145876Y0199349D02*
X0144501Y0199349D01*
X0144239Y0199741D02*
X0145288Y0199741D01*
X0145044Y0200133D02*
X0144077Y0200133D01*
X0144015Y0200525D02*
X0144935Y0200525D01*
X0144843Y0201310D02*
X0143999Y0201310D01*
X0144023Y0201702D02*
X0144906Y0201702D01*
X0145042Y0202094D02*
X0144107Y0202094D01*
X0144227Y0202486D02*
X0145275Y0202486D01*
X0147297Y0203271D02*
X0148056Y0203271D01*
X0148082Y0198957D02*
X0147262Y0198957D01*
X0147247Y0198564D02*
X0148053Y0198564D01*
X0147964Y0198172D02*
X0147106Y0198172D01*
X0146732Y0197780D02*
X0147834Y0197780D01*
X0147508Y0197388D02*
X0144467Y0197388D01*
X0144255Y0197780D02*
X0145279Y0197780D01*
X0144736Y0198172D02*
X0144331Y0198172D01*
X0144932Y0198957D02*
X0146857Y0198957D01*
X0146874Y0196995D02*
X0145099Y0196995D01*
X0143070Y0198886D02*
X0142434Y0198866D01*
X0142297Y0199384D01*
X0142297Y0202003D01*
X0142187Y0202639D01*
X0141652Y0202988D01*
X0141007Y0202939D01*
X0140464Y0202582D01*
X0140148Y0202018D01*
X0140094Y0201367D01*
X0140094Y0199403D01*
X0139973Y0198869D01*
X0139321Y0198866D01*
X0139321Y0203450D01*
X0139813Y0203613D01*
X0140094Y0203239D01*
X0140311Y0203293D01*
X0140882Y0203606D01*
X0141522Y0203735D01*
X0142171Y0203679D01*
X0142749Y0203381D01*
X0143049Y0202814D01*
X0143070Y0202160D01*
X0143070Y0198886D01*
X0143070Y0198957D02*
X0142410Y0198957D01*
X0142306Y0199349D02*
X0143070Y0199349D01*
X0143070Y0199741D02*
X0142297Y0199741D01*
X0142297Y0200133D02*
X0143070Y0200133D01*
X0143070Y0200525D02*
X0142297Y0200525D01*
X0142297Y0200918D02*
X0143070Y0200918D01*
X0143070Y0201310D02*
X0142297Y0201310D01*
X0142297Y0201702D02*
X0143070Y0201702D01*
X0143070Y0202094D02*
X0142281Y0202094D01*
X0142213Y0202486D02*
X0143060Y0202486D01*
X0143015Y0202879D02*
X0141819Y0202879D01*
X0142201Y0203663D02*
X0141165Y0203663D01*
X0140915Y0202879D02*
X0139321Y0202879D01*
X0139321Y0203271D02*
X0140070Y0203271D01*
X0140222Y0203271D02*
X0142807Y0203271D01*
X0140410Y0202486D02*
X0139321Y0202486D01*
X0139321Y0202094D02*
X0140190Y0202094D01*
X0140122Y0201702D02*
X0139321Y0201702D01*
X0139321Y0201310D02*
X0140094Y0201310D01*
X0140094Y0200918D02*
X0139321Y0200918D01*
X0139321Y0200525D02*
X0140094Y0200525D01*
X0140094Y0200133D02*
X0139321Y0200133D01*
X0139321Y0199741D02*
X0140094Y0199741D01*
X0140082Y0199349D02*
X0139321Y0199349D01*
X0139321Y0198957D02*
X0139993Y0198957D01*
X0138047Y0199187D02*
X0138047Y0203169D01*
X0137827Y0203613D01*
X0137265Y0203512D01*
X0137265Y0198866D01*
X0137704Y0198866D01*
X0138047Y0199187D01*
X0138047Y0199349D02*
X0137265Y0199349D01*
X0137265Y0199741D02*
X0138047Y0199741D01*
X0138047Y0200133D02*
X0137265Y0200133D01*
X0137265Y0200525D02*
X0138047Y0200525D01*
X0138047Y0200918D02*
X0137265Y0200918D01*
X0137265Y0201310D02*
X0138047Y0201310D01*
X0138047Y0201702D02*
X0137265Y0201702D01*
X0137265Y0202094D02*
X0138047Y0202094D01*
X0138047Y0202486D02*
X0137265Y0202486D01*
X0137265Y0202879D02*
X0138047Y0202879D01*
X0137997Y0203271D02*
X0137265Y0203271D01*
X0136633Y0203271D02*
X0135315Y0203271D01*
X0135430Y0203334D02*
X0135973Y0203701D01*
X0136630Y0203748D01*
X0136635Y0203091D01*
X0136163Y0202862D01*
X0135561Y0202604D01*
X0135206Y0202059D01*
X0135142Y0201402D01*
X0135142Y0199416D01*
X0135031Y0198866D01*
X0134369Y0198866D01*
X0134369Y0203500D01*
X0134918Y0203613D01*
X0135142Y0203176D01*
X0135430Y0203334D01*
X0135093Y0203271D02*
X0134369Y0203271D01*
X0134369Y0202879D02*
X0136198Y0202879D01*
X0135484Y0202486D02*
X0134369Y0202486D01*
X0134369Y0202094D02*
X0135229Y0202094D01*
X0135171Y0201702D02*
X0134369Y0201702D01*
X0134369Y0201310D02*
X0135142Y0201310D01*
X0135142Y0200918D02*
X0134369Y0200918D01*
X0134369Y0200525D02*
X0135142Y0200525D01*
X0135142Y0200133D02*
X0134369Y0200133D01*
X0134369Y0199741D02*
X0135142Y0199741D01*
X0135129Y0199349D02*
X0134369Y0199349D01*
X0134369Y0198957D02*
X0135049Y0198957D01*
X0133152Y0199900D02*
X0132812Y0199346D01*
X0132276Y0198975D01*
X0131652Y0198780D01*
X0131001Y0198749D01*
X0130362Y0198889D01*
X0129806Y0199226D01*
X0129403Y0199741D01*
X0129148Y0200343D01*
X0129048Y0200988D01*
X0129059Y0201276D01*
X0129165Y0201922D01*
X0129373Y0202542D01*
X0129710Y0203103D01*
X0130209Y0203519D01*
X0130784Y0203702D01*
X0131027Y0203048D01*
X0130497Y0202769D01*
X0130104Y0202251D01*
X0129914Y0201626D01*
X0132247Y0201626D01*
X0132476Y0201995D01*
X0132214Y0202590D01*
X0131711Y0203000D01*
X0131119Y0203066D01*
X0130880Y0203719D01*
X0131485Y0203740D01*
X0132125Y0203610D01*
X0132668Y0203254D01*
X0133024Y0202707D01*
X0133258Y0202096D01*
X0133366Y0201450D01*
X0133263Y0200916D01*
X0129986Y0200916D01*
X0129989Y0200339D01*
X0130286Y0199762D01*
X0130838Y0199424D01*
X0131485Y0199442D01*
X0132053Y0199758D01*
X0132432Y0200286D01*
X0133044Y0200350D01*
X0133152Y0199900D01*
X0133054Y0199741D02*
X0132023Y0199741D01*
X0132323Y0200133D02*
X0133096Y0200133D01*
X0133263Y0200918D02*
X0129059Y0200918D01*
X0129065Y0201310D02*
X0133339Y0201310D01*
X0133324Y0201702D02*
X0132294Y0201702D01*
X0132433Y0202094D02*
X0133258Y0202094D01*
X0133109Y0202486D02*
X0132260Y0202486D01*
X0131860Y0202879D02*
X0132912Y0202879D01*
X0132643Y0203271D02*
X0131044Y0203271D01*
X0130944Y0203271D02*
X0129911Y0203271D01*
X0129575Y0202879D02*
X0130705Y0202879D01*
X0130282Y0202486D02*
X0129354Y0202486D01*
X0129223Y0202094D02*
X0130056Y0202094D01*
X0129937Y0201702D02*
X0129129Y0201702D01*
X0129120Y0200525D02*
X0129988Y0200525D01*
X0130095Y0200133D02*
X0129237Y0200133D01*
X0129403Y0199741D02*
X0130321Y0199741D01*
X0129710Y0199349D02*
X0132814Y0199349D01*
X0132217Y0198957D02*
X0130251Y0198957D01*
X0130660Y0203663D02*
X0130799Y0203663D01*
X0130901Y0203663D02*
X0131864Y0203663D01*
X0135918Y0203663D02*
X0136631Y0203663D01*
X0137265Y0204458D02*
X0137265Y0205346D01*
X0137827Y0205447D01*
X0138047Y0205003D01*
X0137928Y0204458D01*
X0137265Y0204458D01*
X0137265Y0204840D02*
X0138011Y0204840D01*
X0137934Y0205232D02*
X0137265Y0205232D01*
X0135770Y0206801D02*
X0135122Y0206801D01*
X0135018Y0207193D02*
X0135770Y0207193D01*
X0135770Y0207585D02*
X0134997Y0207585D01*
X0134997Y0207977D02*
X0135770Y0207977D01*
X0135770Y0208370D02*
X0134997Y0208370D01*
X0134997Y0208762D02*
X0135770Y0208762D01*
X0135770Y0209154D02*
X0134997Y0209154D01*
X0134997Y0209546D02*
X0135770Y0209546D01*
X0135770Y0209938D02*
X0134989Y0209938D01*
X0134921Y0210331D02*
X0135761Y0210331D01*
X0135738Y0210723D02*
X0134587Y0210723D01*
X0136792Y0209938D02*
X0137652Y0209938D01*
X0137524Y0209546D02*
X0136692Y0209546D01*
X0136678Y0209154D02*
X0137472Y0209154D01*
X0137491Y0208762D02*
X0136683Y0208762D01*
X0136720Y0208370D02*
X0137543Y0208370D01*
X0137679Y0207977D02*
X0136804Y0207977D01*
X0136923Y0207585D02*
X0137986Y0207585D01*
X0137865Y0210331D02*
X0136937Y0210331D01*
X0137133Y0210723D02*
X0138330Y0210723D01*
X0138143Y0211507D02*
X0139517Y0211507D01*
X0140142Y0211115D02*
X0137494Y0211115D01*
X0139355Y0210723D02*
X0140474Y0210723D01*
X0140617Y0210331D02*
X0139756Y0210331D01*
X0140218Y0209938D02*
X0140448Y0209938D01*
X0136383Y0214645D02*
X0135003Y0214645D01*
X0135702Y0214253D02*
X0135880Y0214253D01*
X0133939Y0227546D02*
X0133420Y0227561D01*
X0131456Y0230191D01*
X0130996Y0230477D01*
X0130379Y0230251D01*
X0129754Y0230051D01*
X0129121Y0229877D01*
X0128482Y0229729D01*
X0127885Y0229617D01*
X0127195Y0233887D01*
X0127791Y0234006D01*
X0128426Y0234170D01*
X0129051Y0234370D01*
X0129664Y0234606D01*
X0130262Y0234875D01*
X0130844Y0235178D01*
X0131409Y0235513D01*
X0131954Y0235879D01*
X0132477Y0236275D01*
X0132978Y0236700D01*
X0133453Y0237152D01*
X0133904Y0237629D01*
X0134327Y0238131D01*
X0134721Y0238656D01*
X0135085Y0239202D01*
X0135418Y0239768D01*
X0135719Y0240351D01*
X0135986Y0240950D01*
X0136219Y0241564D01*
X0136418Y0242190D01*
X0136580Y0242826D01*
X0136706Y0243470D01*
X0136795Y0244120D01*
X0136848Y0244774D01*
X0136864Y0245430D01*
X0136843Y0246086D01*
X0136786Y0246740D01*
X0136693Y0247390D01*
X0136562Y0248033D01*
X0136396Y0248668D01*
X0136193Y0249292D01*
X0135956Y0249904D01*
X0135685Y0250502D01*
X0135380Y0251083D01*
X0135043Y0251647D01*
X0134675Y0252190D01*
X0134277Y0252712D01*
X0133851Y0253211D01*
X0133397Y0253686D01*
X0132919Y0254134D01*
X0132415Y0254555D01*
X0131889Y0254948D01*
X0131342Y0255311D01*
X0130775Y0255642D01*
X0130191Y0255941D01*
X0129590Y0256206D01*
X0128976Y0256437D01*
X0128350Y0256633D01*
X0127713Y0256793D01*
X0127069Y0256916D01*
X0126418Y0257003D01*
X0125764Y0257054D01*
X0125107Y0257068D01*
X0124451Y0257045D01*
X0123798Y0256986D01*
X0123148Y0256890D01*
X0122506Y0256757D01*
X0121871Y0256589D01*
X0121248Y0256384D01*
X0120636Y0256145D01*
X0120040Y0255872D01*
X0119460Y0255565D01*
X0118897Y0255226D01*
X0118355Y0254856D01*
X0117834Y0254457D01*
X0117337Y0254029D01*
X0116864Y0253574D01*
X0116416Y0253094D01*
X0115997Y0252589D01*
X0115606Y0252061D01*
X0115246Y0251513D01*
X0110084Y0251513D01*
X0110031Y0251627D02*
X0107401Y0253591D01*
X0107316Y0254092D01*
X0107614Y0254677D01*
X0107931Y0255252D01*
X0108267Y0255816D01*
X0108621Y0256368D01*
X0109034Y0256762D01*
X0112050Y0255466D01*
X0112627Y0255307D01*
X0113045Y0255814D01*
X0113483Y0256303D01*
X0113940Y0256773D01*
X0114416Y0257225D01*
X0114911Y0257657D01*
X0115293Y0258102D01*
X0113997Y0261117D01*
X0113825Y0261696D01*
X0114370Y0262062D01*
X0114926Y0262411D01*
X0115493Y0262741D01*
X0116071Y0263053D01*
X0116659Y0263344D01*
X0117102Y0263022D01*
X0119066Y0260392D01*
X0119611Y0260394D01*
X0120231Y0260610D01*
X0120859Y0260801D01*
X0121494Y0260965D01*
X0122136Y0261102D01*
X0122783Y0261213D01*
X0123018Y0261712D01*
X0123404Y0264971D01*
X0123869Y0265219D01*
X0124524Y0265254D01*
X0125181Y0265267D01*
X0125837Y0265255D01*
X0126493Y0265220D01*
X0126967Y0264982D01*
X0127353Y0261722D01*
X0127578Y0261215D01*
X0128225Y0261104D01*
X0128867Y0260967D01*
X0129503Y0260804D01*
X0130131Y0260614D01*
X0130751Y0260398D01*
X0131300Y0260384D01*
X0133264Y0263013D01*
X0133704Y0263349D01*
X0134292Y0263058D01*
X0134870Y0262747D01*
X0135438Y0262417D01*
X0135994Y0262069D01*
X0136538Y0261702D01*
X0136379Y0261127D01*
X0135083Y0258112D01*
X0135454Y0257665D01*
X0135948Y0257233D01*
X0136425Y0256782D01*
X0136883Y0256311D01*
X0137321Y0255822D01*
X0137738Y0255316D01*
X0138313Y0255462D01*
X0141328Y0256758D01*
X0141746Y0256378D01*
X0142100Y0255826D01*
X0142437Y0255262D01*
X0142754Y0254687D01*
X0143052Y0254102D01*
X0142981Y0253598D01*
X0140351Y0251633D01*
X0140118Y0251157D01*
X0140342Y0250540D01*
X0140540Y0249915D01*
X0140712Y0249281D01*
X0140858Y0248641D01*
X0140978Y0247996D01*
X0141306Y0247584D01*
X0144565Y0247198D01*
X0145000Y0246912D01*
X0145042Y0246257D01*
X0145062Y0245601D01*
X0145057Y0244944D01*
X0145029Y0244288D01*
X0144981Y0243634D01*
X0144826Y0243615D01*
X0141566Y0243229D01*
X0141018Y0243046D01*
X0140909Y0242398D01*
X0140774Y0241756D01*
X0140612Y0241120D01*
X0140424Y0240491D01*
X0140210Y0239871D01*
X0140141Y0239306D01*
X0142771Y0237342D01*
X0143167Y0236918D01*
X0142877Y0236329D01*
X0142567Y0235750D01*
X0142238Y0235182D01*
X0141891Y0234625D01*
X0141525Y0234080D01*
X0140968Y0234179D01*
X0137952Y0235475D01*
X0137491Y0235160D01*
X0137061Y0234664D01*
X0136611Y0234186D01*
X0136141Y0233727D01*
X0135654Y0233288D01*
X0135149Y0232868D01*
X0135240Y0232307D01*
X0136535Y0229292D01*
X0136212Y0228858D01*
X0135660Y0228502D01*
X0135097Y0228164D01*
X0134523Y0227846D01*
X0133939Y0227546D01*
X0134021Y0227588D02*
X0133400Y0227588D01*
X0133107Y0227980D02*
X0134766Y0227980D01*
X0135444Y0228372D02*
X0132814Y0228372D01*
X0132521Y0228765D02*
X0136068Y0228765D01*
X0136435Y0229157D02*
X0132229Y0229157D01*
X0131936Y0229549D02*
X0136425Y0229549D01*
X0136256Y0229941D02*
X0131643Y0229941D01*
X0131226Y0230333D02*
X0136088Y0230333D01*
X0135919Y0230726D02*
X0127706Y0230726D01*
X0127609Y0230726D02*
X0114454Y0230726D01*
X0114623Y0231118D02*
X0127545Y0231118D01*
X0127642Y0231118D02*
X0135751Y0231118D01*
X0135583Y0231510D02*
X0127579Y0231510D01*
X0127482Y0231510D02*
X0114791Y0231510D01*
X0114959Y0231902D02*
X0127418Y0231902D01*
X0127516Y0231902D02*
X0135414Y0231902D01*
X0135246Y0232295D02*
X0127452Y0232295D01*
X0127354Y0232295D02*
X0115128Y0232295D01*
X0115191Y0232440D02*
X0115112Y0232959D01*
X0114611Y0233383D01*
X0114127Y0233827D01*
X0113662Y0234290D01*
X0113216Y0234772D01*
X0112791Y0235272D01*
X0112289Y0235417D01*
X0109273Y0234122D01*
X0108766Y0234199D01*
X0108405Y0234747D01*
X0108062Y0235307D01*
X0107738Y0235877D01*
X0107432Y0236458D01*
X0107195Y0237037D01*
X0110346Y0239395D01*
X0110113Y0240008D01*
X0109905Y0240631D01*
X0109723Y0241262D01*
X0109568Y0241899D01*
X0109314Y0243169D01*
X0105402Y0243633D01*
X0105345Y0244279D01*
X0105317Y0244934D01*
X0105312Y0245591D01*
X0105332Y0246247D01*
X0105372Y0246902D01*
X0105799Y0247197D01*
X0109058Y0247583D01*
X0109394Y0247986D01*
X0109513Y0248632D01*
X0109658Y0249272D01*
X0109830Y0249905D01*
X0110028Y0250531D01*
X0110252Y0251148D01*
X0110031Y0251627D01*
X0109659Y0251905D02*
X0115503Y0251905D01*
X0115246Y0251513D02*
X0114916Y0250945D01*
X0114619Y0250360D01*
X0114356Y0249759D01*
X0114127Y0249144D01*
X0113933Y0248516D01*
X0113775Y0247879D01*
X0113654Y0247234D01*
X0113569Y0246584D01*
X0113521Y0245929D01*
X0113509Y0245273D01*
X0113534Y0244617D01*
X0113595Y0243963D01*
X0113694Y0243314D01*
X0113828Y0242672D01*
X0113999Y0242038D01*
X0114206Y0241415D01*
X0114447Y0240805D01*
X0114723Y0240209D01*
X0115031Y0239630D01*
X0115372Y0239069D01*
X0115744Y0238528D01*
X0116145Y0238009D01*
X0116574Y0237512D01*
X0117031Y0237041D01*
X0117513Y0236595D01*
X0118019Y0236178D01*
X0118548Y0235788D01*
X0119097Y0235430D01*
X0119666Y0235102D01*
X0120253Y0234807D01*
X0120855Y0234546D01*
X0121470Y0234319D01*
X0122098Y0234128D01*
X0122736Y0233972D01*
X0123381Y0233852D01*
X0124032Y0233769D01*
X0124687Y0233724D01*
X0125187Y0233713D01*
X0125843Y0233731D01*
X0126497Y0233786D01*
X0127098Y0233871D01*
X0127795Y0229581D01*
X0127385Y0229318D01*
X0126999Y0226058D01*
X0126753Y0225581D01*
X0126098Y0225539D01*
X0125442Y0225517D01*
X0124786Y0225520D01*
X0124130Y0225546D01*
X0123475Y0225593D01*
X0123358Y0226204D01*
X0122973Y0229463D01*
X0122394Y0229632D01*
X0121750Y0229759D01*
X0121112Y0229913D01*
X0120481Y0230093D01*
X0119857Y0230299D01*
X0119243Y0230530D01*
X0118831Y0230074D01*
X0116867Y0227444D01*
X0116305Y0227611D01*
X0115723Y0227914D01*
X0115152Y0228237D01*
X0114591Y0228578D01*
X0114042Y0228938D01*
X0113895Y0229424D01*
X0115191Y0232440D01*
X0115153Y0232687D02*
X0127290Y0232687D01*
X0127389Y0232687D02*
X0135179Y0232687D01*
X0135403Y0233079D02*
X0127326Y0233079D01*
X0127227Y0233079D02*
X0114970Y0233079D01*
X0114515Y0233471D02*
X0127163Y0233471D01*
X0127262Y0233471D02*
X0135857Y0233471D01*
X0136280Y0233863D02*
X0127199Y0233863D01*
X0127099Y0233863D02*
X0127047Y0233863D01*
X0128693Y0234256D02*
X0136676Y0234256D01*
X0137045Y0234648D02*
X0129758Y0234648D01*
X0130580Y0235040D02*
X0137387Y0235040D01*
X0137890Y0235432D02*
X0131273Y0235432D01*
X0131872Y0235824D02*
X0142607Y0235824D01*
X0142817Y0236217D02*
X0132400Y0236217D01*
X0132870Y0236609D02*
X0143015Y0236609D01*
X0143089Y0237001D02*
X0133295Y0237001D01*
X0133681Y0237393D02*
X0142703Y0237393D01*
X0142177Y0237786D02*
X0134035Y0237786D01*
X0134362Y0238178D02*
X0141652Y0238178D01*
X0141127Y0238570D02*
X0134656Y0238570D01*
X0134925Y0238962D02*
X0140601Y0238962D01*
X0140147Y0239354D02*
X0135175Y0239354D01*
X0135406Y0239747D02*
X0140195Y0239747D01*
X0140303Y0240139D02*
X0135610Y0240139D01*
X0135799Y0240531D02*
X0140436Y0240531D01*
X0140553Y0240923D02*
X0135974Y0240923D01*
X0136125Y0241315D02*
X0140662Y0241315D01*
X0140761Y0241708D02*
X0136265Y0241708D01*
X0136389Y0242100D02*
X0140846Y0242100D01*
X0140925Y0242492D02*
X0136495Y0242492D01*
X0136591Y0242884D02*
X0140991Y0242884D01*
X0141964Y0243276D02*
X0136668Y0243276D01*
X0136733Y0243669D02*
X0144984Y0243669D01*
X0145012Y0244061D02*
X0136787Y0244061D01*
X0136822Y0244453D02*
X0145036Y0244453D01*
X0145053Y0244845D02*
X0136849Y0244845D01*
X0136859Y0245238D02*
X0145059Y0245238D01*
X0145061Y0245630D02*
X0136858Y0245630D01*
X0136845Y0246022D02*
X0145049Y0246022D01*
X0145032Y0246414D02*
X0136815Y0246414D01*
X0136777Y0246806D02*
X0145007Y0246806D01*
X0144559Y0247199D02*
X0136720Y0247199D01*
X0136652Y0247591D02*
X0141300Y0247591D01*
X0140988Y0247983D02*
X0136572Y0247983D01*
X0136472Y0248375D02*
X0140907Y0248375D01*
X0140829Y0248767D02*
X0136364Y0248767D01*
X0136236Y0249160D02*
X0140740Y0249160D01*
X0140639Y0249552D02*
X0136093Y0249552D01*
X0135938Y0249944D02*
X0140531Y0249944D01*
X0140406Y0250336D02*
X0135760Y0250336D01*
X0135566Y0250729D02*
X0140273Y0250729D01*
X0140131Y0251121D02*
X0135357Y0251121D01*
X0135123Y0251513D02*
X0140292Y0251513D01*
X0140715Y0251905D02*
X0134868Y0251905D01*
X0134593Y0252297D02*
X0141240Y0252297D01*
X0141765Y0252690D02*
X0134294Y0252690D01*
X0133962Y0253082D02*
X0142290Y0253082D01*
X0142815Y0253474D02*
X0133600Y0253474D01*
X0133149Y0253474D02*
X0131986Y0253474D01*
X0132770Y0254258D02*
X0142972Y0254258D01*
X0143019Y0253866D02*
X0133205Y0253866D01*
X0133267Y0253866D02*
X0133059Y0253866D01*
X0133293Y0253952D02*
X0127755Y0251929D01*
X0127608Y0251866D01*
X0129120Y0250437D01*
X0129114Y0250316D01*
X0128626Y0249824D01*
X0128497Y0249789D01*
X0128357Y0249892D01*
X0128068Y0250083D01*
X0127919Y0250171D01*
X0127613Y0250334D01*
X0127297Y0250478D01*
X0126973Y0250601D01*
X0126808Y0250655D01*
X0126474Y0250747D01*
X0126134Y0250818D01*
X0125963Y0250845D01*
X0125791Y0250868D01*
X0125445Y0250895D01*
X0125099Y0250901D01*
X0124752Y0250885D01*
X0124580Y0250869D01*
X0124236Y0250820D01*
X0124066Y0250788D01*
X0123897Y0250750D01*
X0123562Y0250659D01*
X0123234Y0250546D01*
X0122914Y0250413D01*
X0122757Y0250339D01*
X0122451Y0250176D01*
X0122302Y0250087D01*
X0122155Y0249994D01*
X0121872Y0249794D01*
X0121602Y0249577D01*
X0121472Y0249462D01*
X0121346Y0249343D01*
X0121105Y0249094D01*
X0120990Y0248963D01*
X0120774Y0248692D01*
X0120575Y0248409D01*
X0120394Y0248113D01*
X0120310Y0247961D01*
X0120158Y0247649D01*
X0120090Y0247490D01*
X0120026Y0247328D01*
X0119915Y0247000D01*
X0119824Y0246665D01*
X0119787Y0246496D01*
X0119729Y0246154D01*
X0119692Y0245809D01*
X0119682Y0245636D01*
X0119677Y0245463D01*
X0119683Y0245116D01*
X0119712Y0244770D01*
X0119762Y0244427D01*
X0119795Y0244257D01*
X0119878Y0243920D01*
X0119927Y0243754D01*
X0119981Y0243589D01*
X0120105Y0243265D01*
X0120249Y0242950D01*
X0120328Y0242796D01*
X0120502Y0242495D01*
X0120693Y0242206D01*
X0120796Y0242066D01*
X0120799Y0241935D01*
X0119701Y0240827D01*
X0119801Y0240706D01*
X0120675Y0239863D01*
X0120799Y0239755D01*
X0121874Y0240887D01*
X0122003Y0240901D01*
X0122292Y0240709D01*
X0122441Y0240620D01*
X0122592Y0240536D01*
X0122903Y0240382D01*
X0123223Y0240247D01*
X0123386Y0240188D01*
X0123716Y0240084D01*
X0124053Y0240001D01*
X0124395Y0239940D01*
X0124567Y0239917D01*
X0124739Y0239900D01*
X0125085Y0239882D01*
X0125432Y0239886D01*
X0125778Y0239912D01*
X0125950Y0239933D01*
X0126292Y0239992D01*
X0126629Y0240072D01*
X0126961Y0240173D01*
X0127124Y0240231D01*
X0127445Y0240363D01*
X0127757Y0240516D01*
X0127909Y0240599D01*
X0128058Y0240687D01*
X0128348Y0240877D01*
X0128626Y0241085D01*
X0128889Y0241310D01*
X0129016Y0241429D01*
X0129258Y0241677D01*
X0129483Y0241941D01*
X0129590Y0242078D01*
X0129692Y0242218D01*
X0129883Y0242507D01*
X0130055Y0242808D01*
X0130134Y0242963D01*
X0130278Y0243278D01*
X0130400Y0243603D01*
X0130502Y0243934D01*
X0130546Y0244102D01*
X0130616Y0244442D01*
X0130643Y0244613D01*
X0130664Y0244785D01*
X0130691Y0245131D01*
X0130696Y0245478D01*
X0130691Y0245651D01*
X0130680Y0245824D01*
X0130641Y0246169D01*
X0130581Y0246510D01*
X0130500Y0246847D01*
X0130451Y0247014D01*
X0130338Y0247342D01*
X0130274Y0247503D01*
X0130205Y0247662D01*
X0130052Y0247973D01*
X0129879Y0248274D01*
X0129786Y0248420D01*
X0129586Y0248703D01*
X0129479Y0248840D01*
X0129546Y0248968D01*
X0130024Y0249471D01*
X0130147Y0249468D01*
X0131534Y0248159D01*
X0131589Y0248307D01*
X0133293Y0253952D01*
X0133031Y0253082D02*
X0130912Y0253082D01*
X0129838Y0252690D02*
X0132912Y0252690D01*
X0132794Y0252297D02*
X0128764Y0252297D01*
X0127981Y0251513D02*
X0132557Y0251513D01*
X0132675Y0251905D02*
X0127700Y0251905D01*
X0128396Y0251121D02*
X0132438Y0251121D01*
X0132320Y0250729D02*
X0128812Y0250729D01*
X0129115Y0250336D02*
X0132201Y0250336D01*
X0132083Y0249944D02*
X0128745Y0249944D01*
X0128278Y0249944D02*
X0122085Y0249944D01*
X0121574Y0249552D02*
X0131964Y0249552D01*
X0131846Y0249160D02*
X0130474Y0249160D01*
X0130889Y0248767D02*
X0131728Y0248767D01*
X0131609Y0248375D02*
X0131304Y0248375D01*
X0130046Y0247983D02*
X0120323Y0247983D01*
X0120133Y0247591D02*
X0130236Y0247591D01*
X0130387Y0247199D02*
X0119982Y0247199D01*
X0119862Y0246806D02*
X0130510Y0246806D01*
X0130598Y0246414D02*
X0119773Y0246414D01*
X0119715Y0246022D02*
X0130658Y0246022D01*
X0130691Y0245630D02*
X0119681Y0245630D01*
X0119681Y0245238D02*
X0130693Y0245238D01*
X0130669Y0244845D02*
X0119706Y0244845D01*
X0119758Y0244453D02*
X0130617Y0244453D01*
X0130535Y0244061D02*
X0119843Y0244061D01*
X0119955Y0243669D02*
X0130421Y0243669D01*
X0130277Y0243276D02*
X0120101Y0243276D01*
X0120283Y0242884D02*
X0130094Y0242884D01*
X0129873Y0242492D02*
X0120504Y0242492D01*
X0120771Y0242100D02*
X0129606Y0242100D01*
X0129284Y0241708D02*
X0120574Y0241708D01*
X0120185Y0241315D02*
X0128895Y0241315D01*
X0128409Y0240923D02*
X0119796Y0240923D01*
X0119983Y0240531D02*
X0121536Y0240531D01*
X0121163Y0240139D02*
X0120389Y0240139D01*
X0122602Y0240531D02*
X0127785Y0240531D01*
X0126849Y0240139D02*
X0123541Y0240139D01*
X0121678Y0234256D02*
X0113697Y0234256D01*
X0113331Y0234648D02*
X0120620Y0234648D01*
X0119790Y0235040D02*
X0112988Y0235040D01*
X0111410Y0235040D02*
X0108226Y0235040D01*
X0107991Y0235432D02*
X0119094Y0235432D01*
X0118499Y0235824D02*
X0107768Y0235824D01*
X0107559Y0236217D02*
X0117972Y0236217D01*
X0117498Y0236609D02*
X0107370Y0236609D01*
X0107209Y0237001D02*
X0117074Y0237001D01*
X0116690Y0237393D02*
X0107671Y0237393D01*
X0108196Y0237786D02*
X0116338Y0237786D01*
X0116014Y0238178D02*
X0108720Y0238178D01*
X0109244Y0238570D02*
X0115715Y0238570D01*
X0115445Y0238962D02*
X0109768Y0238962D01*
X0110292Y0239354D02*
X0115199Y0239354D01*
X0114969Y0239747D02*
X0110213Y0239747D01*
X0110070Y0240139D02*
X0114760Y0240139D01*
X0114574Y0240531D02*
X0109939Y0240531D01*
X0109821Y0240923D02*
X0114400Y0240923D01*
X0114245Y0241315D02*
X0109710Y0241315D01*
X0109614Y0241708D02*
X0114109Y0241708D01*
X0113982Y0242100D02*
X0109527Y0242100D01*
X0109449Y0242492D02*
X0113877Y0242492D01*
X0113784Y0242884D02*
X0109371Y0242884D01*
X0108409Y0243276D02*
X0113702Y0243276D01*
X0113640Y0243669D02*
X0105399Y0243669D01*
X0105365Y0244061D02*
X0113586Y0244061D01*
X0113549Y0244453D02*
X0105338Y0244453D01*
X0105321Y0244845D02*
X0113525Y0244845D01*
X0113510Y0245238D02*
X0105314Y0245238D01*
X0105313Y0245630D02*
X0113515Y0245630D01*
X0113528Y0246022D02*
X0105325Y0246022D01*
X0105342Y0246414D02*
X0113557Y0246414D01*
X0113598Y0246806D02*
X0105366Y0246806D01*
X0105815Y0247199D02*
X0113649Y0247199D01*
X0113721Y0247591D02*
X0109065Y0247591D01*
X0109392Y0247983D02*
X0113801Y0247983D01*
X0113898Y0248375D02*
X0109466Y0248375D01*
X0109544Y0248767D02*
X0114011Y0248767D01*
X0114133Y0249160D02*
X0109633Y0249160D01*
X0109734Y0249552D02*
X0114279Y0249552D01*
X0114437Y0249944D02*
X0109842Y0249944D01*
X0109967Y0250336D02*
X0114609Y0250336D01*
X0114806Y0250729D02*
X0110100Y0250729D01*
X0110242Y0251121D02*
X0115018Y0251121D01*
X0115781Y0252297D02*
X0109133Y0252297D01*
X0108608Y0252690D02*
X0116081Y0252690D01*
X0116407Y0253082D02*
X0108083Y0253082D01*
X0107557Y0253474D02*
X0116770Y0253474D01*
X0117167Y0253866D02*
X0107354Y0253866D01*
X0107400Y0254258D02*
X0117603Y0254258D01*
X0118087Y0254651D02*
X0107600Y0254651D01*
X0107816Y0255043D02*
X0118628Y0255043D01*
X0119244Y0255435D02*
X0112733Y0255435D01*
X0113057Y0255827D02*
X0119956Y0255827D01*
X0120826Y0256219D02*
X0113408Y0256219D01*
X0113783Y0256612D02*
X0121957Y0256612D01*
X0123997Y0257004D02*
X0114183Y0257004D01*
X0114612Y0257396D02*
X0135762Y0257396D01*
X0135351Y0257788D02*
X0115023Y0257788D01*
X0115260Y0258181D02*
X0135112Y0258181D01*
X0135281Y0258573D02*
X0115091Y0258573D01*
X0114923Y0258965D02*
X0135450Y0258965D01*
X0135618Y0259357D02*
X0114754Y0259357D01*
X0114585Y0259749D02*
X0135787Y0259749D01*
X0135955Y0260142D02*
X0114417Y0260142D01*
X0114248Y0260534D02*
X0118960Y0260534D01*
X0118668Y0260926D02*
X0114080Y0260926D01*
X0113937Y0261318D02*
X0118375Y0261318D01*
X0118082Y0261710D02*
X0113847Y0261710D01*
X0114434Y0262103D02*
X0117789Y0262103D01*
X0117496Y0262495D02*
X0115070Y0262495D01*
X0115763Y0262887D02*
X0117203Y0262887D01*
X0116748Y0263279D02*
X0116528Y0263279D01*
X0120011Y0260534D02*
X0130362Y0260534D01*
X0131412Y0260534D02*
X0136124Y0260534D01*
X0136293Y0260926D02*
X0131705Y0260926D01*
X0131998Y0261318D02*
X0136432Y0261318D01*
X0136525Y0261710D02*
X0132291Y0261710D01*
X0132583Y0262103D02*
X0135939Y0262103D01*
X0135303Y0262495D02*
X0132876Y0262495D01*
X0133169Y0262887D02*
X0134610Y0262887D01*
X0133845Y0263279D02*
X0133612Y0263279D01*
X0129028Y0260926D02*
X0121345Y0260926D01*
X0122832Y0261318D02*
X0127533Y0261318D01*
X0127358Y0261710D02*
X0123017Y0261710D01*
X0123064Y0262103D02*
X0127308Y0262103D01*
X0127261Y0262495D02*
X0123111Y0262495D01*
X0123157Y0262887D02*
X0127215Y0262887D01*
X0127169Y0263279D02*
X0123204Y0263279D01*
X0123250Y0263672D02*
X0127122Y0263672D01*
X0127076Y0264064D02*
X0123297Y0264064D01*
X0123343Y0264456D02*
X0127029Y0264456D01*
X0126983Y0264848D02*
X0123389Y0264848D01*
X0124262Y0265240D02*
X0126111Y0265240D01*
X0126412Y0257004D02*
X0136190Y0257004D01*
X0136590Y0256612D02*
X0128417Y0256612D01*
X0129554Y0256219D02*
X0136965Y0256219D01*
X0137316Y0255827D02*
X0130412Y0255827D01*
X0131129Y0255435D02*
X0137640Y0255435D01*
X0138208Y0255435D02*
X0142333Y0255435D01*
X0142558Y0255043D02*
X0131746Y0255043D01*
X0132288Y0254651D02*
X0142773Y0254651D01*
X0142099Y0255827D02*
X0139164Y0255827D01*
X0140076Y0256219D02*
X0141848Y0256219D01*
X0141489Y0256612D02*
X0140989Y0256612D01*
X0129728Y0249160D02*
X0121169Y0249160D01*
X0120834Y0248767D02*
X0129536Y0248767D01*
X0129815Y0248375D02*
X0120554Y0248375D01*
X0122752Y0250336D02*
X0127609Y0250336D01*
X0126541Y0250729D02*
X0123818Y0250729D01*
X0112163Y0255435D02*
X0108040Y0255435D01*
X0108275Y0255827D02*
X0111210Y0255827D01*
X0110297Y0256219D02*
X0108526Y0256219D01*
X0108876Y0256612D02*
X0109385Y0256612D01*
X0108470Y0234648D02*
X0110496Y0234648D01*
X0109583Y0234256D02*
X0108729Y0234256D01*
X0114090Y0233863D02*
X0123322Y0233863D01*
X0122679Y0229549D02*
X0127745Y0229549D01*
X0127737Y0229941D02*
X0121013Y0229941D01*
X0119765Y0230333D02*
X0127673Y0230333D01*
X0127769Y0230333D02*
X0130604Y0230333D01*
X0129355Y0229941D02*
X0127832Y0229941D01*
X0127366Y0229157D02*
X0123009Y0229157D01*
X0123055Y0228765D02*
X0127319Y0228765D01*
X0127273Y0228372D02*
X0123102Y0228372D01*
X0123148Y0227980D02*
X0127226Y0227980D01*
X0127180Y0227588D02*
X0123194Y0227588D01*
X0123241Y0227196D02*
X0127134Y0227196D01*
X0127087Y0226804D02*
X0123287Y0226804D01*
X0123333Y0226411D02*
X0127041Y0226411D01*
X0126979Y0226019D02*
X0123393Y0226019D01*
X0123468Y0225627D02*
X0126776Y0225627D01*
X0119065Y0230333D02*
X0114286Y0230333D01*
X0114117Y0229941D02*
X0118731Y0229941D01*
X0118439Y0229549D02*
X0113949Y0229549D01*
X0113976Y0229157D02*
X0118146Y0229157D01*
X0117853Y0228765D02*
X0114307Y0228765D01*
X0114929Y0228372D02*
X0117560Y0228372D01*
X0117268Y0227980D02*
X0115606Y0227980D01*
X0116382Y0227588D02*
X0116975Y0227588D01*
X0118248Y0211507D02*
X0119241Y0211507D01*
X0123604Y0211507D02*
X0124943Y0211507D01*
X0122639Y0206801D02*
X0121977Y0206801D01*
X0122184Y0203663D02*
X0121148Y0203663D01*
X0122279Y0201310D02*
X0123052Y0201310D01*
X0123052Y0200918D02*
X0122279Y0200918D01*
X0122279Y0200525D02*
X0123052Y0200525D01*
X0123052Y0200133D02*
X0122279Y0200133D01*
X0122279Y0199741D02*
X0123052Y0199741D01*
X0123052Y0199349D02*
X0122288Y0199349D01*
X0122393Y0198957D02*
X0123052Y0198957D01*
X0124381Y0199741D02*
X0125299Y0199741D01*
X0125073Y0200133D02*
X0124215Y0200133D01*
X0124098Y0200525D02*
X0124966Y0200525D01*
X0125638Y0203663D02*
X0125777Y0203663D01*
X0125879Y0203663D02*
X0126842Y0203663D01*
X0117783Y0198957D02*
X0117247Y0198957D01*
X0116046Y0199085D02*
X0116046Y0203042D01*
X0115957Y0203613D01*
X0115298Y0203613D01*
X0115228Y0203098D01*
X0114738Y0203534D01*
X0114123Y0203747D01*
X0113468Y0203681D01*
X0112867Y0203419D01*
X0112407Y0202952D01*
X0112121Y0202361D01*
X0111978Y0201718D01*
X0111937Y0201060D01*
X0112791Y0201275D01*
X0112896Y0201925D01*
X0113229Y0202486D01*
X0113779Y0202838D01*
X0114427Y0202825D01*
X0114951Y0202437D01*
X0115220Y0201842D01*
X0115274Y0201186D01*
X0115230Y0200530D01*
X0114974Y0199926D01*
X0114505Y0199470D01*
X0113875Y0199324D01*
X0113307Y0199636D01*
X0112961Y0200191D01*
X0112821Y0200834D01*
X0111931Y0200843D01*
X0112008Y0200189D01*
X0112258Y0199582D01*
X0112682Y0199080D01*
X0113243Y0198740D01*
X0113891Y0198643D01*
X0114532Y0198788D01*
X0115095Y0199127D01*
X0115277Y0198872D01*
X0115120Y0198236D01*
X0114671Y0197764D01*
X0114054Y0197550D01*
X0113406Y0197640D01*
X0112904Y0198044D01*
X0112467Y0198305D01*
X0112100Y0198036D01*
X0112354Y0197438D01*
X0112880Y0197046D01*
X0113510Y0196861D01*
X0114167Y0196837D01*
X0114808Y0196984D01*
X0115387Y0197297D01*
X0115804Y0197799D01*
X0115997Y0198428D01*
X0116046Y0199085D01*
X0116036Y0198957D02*
X0115216Y0198957D01*
X0115201Y0198564D02*
X0116007Y0198564D01*
X0115918Y0198172D02*
X0115060Y0198172D01*
X0114686Y0197780D02*
X0115788Y0197780D01*
X0115462Y0197388D02*
X0112421Y0197388D01*
X0112208Y0197780D02*
X0113233Y0197780D01*
X0112690Y0198172D02*
X0112285Y0198172D01*
X0112886Y0198957D02*
X0114811Y0198957D01*
X0114784Y0199741D02*
X0116046Y0199741D01*
X0116046Y0200133D02*
X0115062Y0200133D01*
X0115228Y0200525D02*
X0116046Y0200525D01*
X0116046Y0200918D02*
X0115256Y0200918D01*
X0115264Y0201310D02*
X0116046Y0201310D01*
X0116046Y0201702D02*
X0115232Y0201702D01*
X0115106Y0202094D02*
X0116046Y0202094D01*
X0116046Y0202486D02*
X0114884Y0202486D01*
X0115034Y0203271D02*
X0112721Y0203271D01*
X0112371Y0202879D02*
X0116046Y0202879D01*
X0116010Y0203271D02*
X0115251Y0203271D01*
X0114365Y0203663D02*
X0113427Y0203663D01*
X0113229Y0202486D02*
X0112181Y0202486D01*
X0112061Y0202094D02*
X0112996Y0202094D01*
X0112860Y0201702D02*
X0111977Y0201702D01*
X0111953Y0201310D02*
X0112797Y0201310D01*
X0112889Y0200525D02*
X0111968Y0200525D01*
X0112031Y0200133D02*
X0112997Y0200133D01*
X0113242Y0199741D02*
X0112193Y0199741D01*
X0112455Y0199349D02*
X0113830Y0199349D01*
X0113981Y0199349D02*
X0116046Y0199349D01*
X0114828Y0196995D02*
X0113053Y0196995D01*
X0111024Y0198886D02*
X0110388Y0198866D01*
X0110251Y0199384D01*
X0110251Y0202003D01*
X0110141Y0202639D01*
X0109605Y0202988D01*
X0108961Y0202939D01*
X0108418Y0202582D01*
X0108102Y0202018D01*
X0108048Y0201367D01*
X0108048Y0199403D01*
X0107927Y0198869D01*
X0107275Y0198866D01*
X0107275Y0203450D01*
X0107767Y0203613D01*
X0108048Y0203239D01*
X0108265Y0203293D01*
X0108836Y0203606D01*
X0109476Y0203735D01*
X0110125Y0203679D01*
X0110703Y0203381D01*
X0111003Y0202814D01*
X0111024Y0202160D01*
X0111024Y0198886D01*
X0111024Y0198957D02*
X0110364Y0198957D01*
X0110260Y0199349D02*
X0111024Y0199349D01*
X0111024Y0199741D02*
X0110251Y0199741D01*
X0110251Y0200133D02*
X0111024Y0200133D01*
X0111024Y0200525D02*
X0110251Y0200525D01*
X0110251Y0200918D02*
X0111024Y0200918D01*
X0111024Y0201310D02*
X0110251Y0201310D01*
X0110251Y0201702D02*
X0111024Y0201702D01*
X0111024Y0202094D02*
X0110235Y0202094D01*
X0110167Y0202486D02*
X0111014Y0202486D01*
X0110969Y0202879D02*
X0109773Y0202879D01*
X0110155Y0203663D02*
X0109119Y0203663D01*
X0108869Y0202879D02*
X0107275Y0202879D01*
X0107275Y0203271D02*
X0108024Y0203271D01*
X0108176Y0203271D02*
X0110761Y0203271D01*
X0108364Y0202486D02*
X0107275Y0202486D01*
X0107275Y0202094D02*
X0108144Y0202094D01*
X0108076Y0201702D02*
X0107275Y0201702D01*
X0107275Y0201310D02*
X0108048Y0201310D01*
X0108048Y0200918D02*
X0107275Y0200918D01*
X0107275Y0200525D02*
X0108048Y0200525D01*
X0108048Y0200133D02*
X0107275Y0200133D01*
X0107275Y0199741D02*
X0108048Y0199741D01*
X0108036Y0199349D02*
X0107275Y0199349D01*
X0107275Y0198957D02*
X0107947Y0198957D01*
X0106057Y0199900D02*
X0105718Y0199346D01*
X0105182Y0198975D01*
X0104558Y0198780D01*
X0103906Y0198749D01*
X0103268Y0198889D01*
X0102711Y0199226D01*
X0102309Y0199741D01*
X0103226Y0199741D01*
X0103191Y0199762D02*
X0103744Y0199424D01*
X0104390Y0199442D01*
X0104959Y0199758D01*
X0105338Y0200286D01*
X0105950Y0200350D01*
X0106057Y0199900D01*
X0105960Y0199741D02*
X0104928Y0199741D01*
X0105228Y0200133D02*
X0106002Y0200133D01*
X0106169Y0200916D02*
X0102891Y0200916D01*
X0102895Y0200339D01*
X0103191Y0199762D01*
X0103001Y0200133D02*
X0102143Y0200133D01*
X0102054Y0200343D02*
X0101953Y0200988D01*
X0101965Y0201276D01*
X0102071Y0201922D01*
X0102278Y0202542D01*
X0102615Y0203103D01*
X0103115Y0203519D01*
X0103690Y0203702D01*
X0103933Y0203048D01*
X0103403Y0202769D01*
X0103010Y0202251D01*
X0102819Y0201626D01*
X0105153Y0201626D01*
X0105382Y0201995D01*
X0105120Y0202590D01*
X0104617Y0203000D01*
X0104025Y0203066D01*
X0103786Y0203719D01*
X0104390Y0203740D01*
X0105030Y0203610D01*
X0105574Y0203254D01*
X0105930Y0202707D01*
X0106164Y0202096D01*
X0106271Y0201450D01*
X0106169Y0200916D01*
X0106169Y0200918D02*
X0101964Y0200918D01*
X0101971Y0201310D02*
X0106244Y0201310D01*
X0106229Y0201702D02*
X0105200Y0201702D01*
X0105338Y0202094D02*
X0106164Y0202094D01*
X0106014Y0202486D02*
X0105166Y0202486D01*
X0104766Y0202879D02*
X0105818Y0202879D01*
X0105548Y0203271D02*
X0103950Y0203271D01*
X0103850Y0203271D02*
X0102817Y0203271D01*
X0102481Y0202879D02*
X0103610Y0202879D01*
X0103188Y0202486D02*
X0102260Y0202486D01*
X0102128Y0202094D02*
X0102962Y0202094D01*
X0102842Y0201702D02*
X0102035Y0201702D01*
X0102025Y0200525D02*
X0102894Y0200525D01*
X0102054Y0200343D02*
X0102309Y0199741D01*
X0102615Y0199349D02*
X0105720Y0199349D01*
X0105123Y0198957D02*
X0103157Y0198957D01*
X0103566Y0203663D02*
X0103704Y0203663D01*
X0103806Y0203663D02*
X0104770Y0203663D01*
X0105097Y0206754D02*
X0104435Y0206754D01*
X0104435Y0211388D01*
X0104984Y0211501D01*
X0105208Y0211064D01*
X0105496Y0211222D01*
X0106039Y0211589D01*
X0106696Y0211636D01*
X0106701Y0210979D01*
X0106229Y0210750D01*
X0105627Y0210492D01*
X0105272Y0209947D01*
X0105208Y0209291D01*
X0105208Y0207305D01*
X0105097Y0206754D01*
X0105106Y0206801D02*
X0104435Y0206801D01*
X0104435Y0207193D02*
X0105186Y0207193D01*
X0105208Y0207585D02*
X0104435Y0207585D01*
X0104435Y0207977D02*
X0105208Y0207977D01*
X0105208Y0208370D02*
X0104435Y0208370D01*
X0104435Y0208762D02*
X0105208Y0208762D01*
X0105208Y0209154D02*
X0104435Y0209154D01*
X0104435Y0209546D02*
X0105233Y0209546D01*
X0105271Y0209938D02*
X0104435Y0209938D01*
X0104435Y0210331D02*
X0105522Y0210331D01*
X0106166Y0210723D02*
X0104435Y0210723D01*
X0104435Y0211115D02*
X0105182Y0211115D01*
X0105301Y0211115D02*
X0106700Y0211115D01*
X0106697Y0211507D02*
X0105918Y0211507D01*
X0107428Y0210431D02*
X0107765Y0210991D01*
X0108265Y0211408D01*
X0108840Y0211591D01*
X0109082Y0210937D01*
X0108552Y0210658D01*
X0108159Y0210140D01*
X0107969Y0209515D01*
X0110303Y0209515D01*
X0110532Y0209883D01*
X0110270Y0210478D01*
X0109767Y0210888D01*
X0109175Y0210954D01*
X0108936Y0211607D01*
X0109540Y0211628D01*
X0110180Y0211499D01*
X0110723Y0211143D01*
X0111080Y0210595D01*
X0111314Y0209984D01*
X0111421Y0209338D01*
X0111318Y0208804D01*
X0108041Y0208804D01*
X0108045Y0208227D01*
X0108341Y0207651D01*
X0108893Y0207312D01*
X0109540Y0207330D01*
X0110109Y0207646D01*
X0110488Y0208174D01*
X0111099Y0208238D01*
X0111207Y0207788D01*
X0110868Y0207234D01*
X0110332Y0206863D01*
X0109708Y0206668D01*
X0109056Y0206637D01*
X0108418Y0206777D01*
X0107861Y0207114D01*
X0107459Y0207629D01*
X0107204Y0208231D01*
X0107103Y0208876D01*
X0107115Y0209164D01*
X0107220Y0209810D01*
X0107428Y0210431D01*
X0107395Y0210331D02*
X0108304Y0210331D01*
X0108098Y0209938D02*
X0107263Y0209938D01*
X0107177Y0209546D02*
X0107979Y0209546D01*
X0108041Y0208762D02*
X0107121Y0208762D01*
X0107115Y0209154D02*
X0111386Y0209154D01*
X0111386Y0209546D02*
X0110322Y0209546D01*
X0110507Y0209938D02*
X0111321Y0209938D01*
X0111181Y0210331D02*
X0110335Y0210331D01*
X0109970Y0210723D02*
X0110997Y0210723D01*
X0110741Y0211115D02*
X0109116Y0211115D01*
X0109016Y0211115D02*
X0107914Y0211115D01*
X0107604Y0210723D02*
X0108677Y0210723D01*
X0108578Y0211507D02*
X0108870Y0211507D01*
X0108972Y0211507D02*
X0110137Y0211507D01*
X0112240Y0210433D02*
X0112511Y0211017D01*
X0113042Y0211380D01*
X0113671Y0211541D01*
X0114319Y0211544D01*
X0114948Y0211392D01*
X0115478Y0211024D01*
X0115722Y0210429D01*
X0115378Y0210154D01*
X0114905Y0210386D01*
X0114442Y0210815D01*
X0113802Y0210876D01*
X0113200Y0210645D01*
X0112922Y0210103D01*
X0113354Y0209667D01*
X0113974Y0209470D01*
X0114606Y0209318D01*
X0115215Y0209092D01*
X0115752Y0208736D01*
X0115964Y0208132D01*
X0115880Y0207495D01*
X0115495Y0206976D01*
X0114941Y0206645D01*
X0114308Y0206503D01*
X0113661Y0206514D01*
X0113026Y0206648D01*
X0112467Y0206974D01*
X0112137Y0207522D01*
X0112065Y0208166D01*
X0112715Y0208166D01*
X0112992Y0207672D01*
X0113485Y0207265D01*
X0114119Y0207152D01*
X0114744Y0207313D01*
X0115173Y0207772D01*
X0114979Y0208352D01*
X0114376Y0208590D01*
X0113745Y0208744D01*
X0113124Y0208936D01*
X0112549Y0209238D01*
X0112229Y0209787D01*
X0112240Y0210433D01*
X0112238Y0210331D02*
X0113039Y0210331D01*
X0113085Y0209938D02*
X0112232Y0209938D01*
X0112369Y0209546D02*
X0113735Y0209546D01*
X0113688Y0208762D02*
X0115712Y0208762D01*
X0115880Y0208370D02*
X0114935Y0208370D01*
X0115104Y0207977D02*
X0115944Y0207977D01*
X0115892Y0207585D02*
X0114998Y0207585D01*
X0115656Y0207193D02*
X0114279Y0207193D01*
X0113889Y0207193D02*
X0112335Y0207193D01*
X0112130Y0207585D02*
X0113097Y0207585D01*
X0112821Y0207977D02*
X0112086Y0207977D01*
X0111162Y0207977D02*
X0110346Y0207977D01*
X0109999Y0207585D02*
X0111083Y0207585D01*
X0110808Y0207193D02*
X0107799Y0207193D01*
X0107493Y0207585D02*
X0108448Y0207585D01*
X0108173Y0207977D02*
X0107311Y0207977D01*
X0107182Y0208370D02*
X0108044Y0208370D01*
X0108379Y0206801D02*
X0110132Y0206801D01*
X0112764Y0206801D02*
X0115201Y0206801D01*
X0115047Y0209154D02*
X0112709Y0209154D01*
X0112375Y0210723D02*
X0113403Y0210723D01*
X0113539Y0211507D02*
X0114471Y0211507D01*
X0114541Y0210723D02*
X0115602Y0210723D01*
X0115599Y0210331D02*
X0115019Y0210331D01*
X0115347Y0211115D02*
X0112655Y0211115D01*
X0137265Y0198957D02*
X0137801Y0198957D01*
X0140790Y0234256D02*
X0141643Y0234256D01*
X0141905Y0234648D02*
X0139877Y0234648D01*
X0138964Y0235040D02*
X0142149Y0235040D01*
X0142383Y0235432D02*
X0138051Y0235432D01*
D13*
X0168834Y0214832D03*
X0172164Y0208832D03*
X0170834Y0266832D03*
X0168834Y0285832D03*
X0170494Y0287832D03*
X0208834Y0314832D03*
X0213164Y0255832D03*
X0213164Y0251832D03*
X0212834Y0206832D03*
X0168834Y0136832D03*
X0169494Y0132832D03*
X0172494Y0129832D03*
X0172164Y0120832D03*
X0173164Y0117832D03*
X0170834Y0110832D03*
X0168494Y0113832D03*
X0169494Y0079832D03*
X0169494Y0076832D03*
X0168834Y0072832D03*
X0169494Y0065832D03*
X0170834Y0064832D03*
X0173828Y0038166D03*
X0173498Y0036166D03*
X0170498Y0034166D03*
X0177498Y0032166D03*
X0179168Y0033166D03*
X0179498Y0035166D03*
X0185168Y0033166D03*
X0187828Y0033166D03*
X0190828Y0033166D03*
X0193498Y0033166D03*
X0190498Y0036166D03*
X0190498Y0038166D03*
X0164828Y0033166D03*
X0162498Y0035166D03*
X0157828Y0036166D03*
X0157168Y0037166D03*
X0157498Y0033166D03*
X0154498Y0033166D03*
X0151828Y0033166D03*
X0151498Y0035166D03*
X0151828Y0037166D03*
X0151828Y0038166D03*
X0099830Y0070499D03*
X0074160Y0092165D03*
X0052830Y0070499D03*
X0068830Y0302832D03*
X0069500Y0307832D03*
X0120830Y0303832D03*
X0125160Y0304832D03*
X0124830Y0307832D03*
X0212494Y0092832D03*
D14*
X0211999Y0091832D03*
X0212999Y0091832D03*
X0213329Y0090832D03*
X0213999Y0088832D03*
X0210999Y0088832D03*
X0214329Y0109832D03*
X0213999Y0110832D03*
X0213329Y0112832D03*
X0211999Y0113832D03*
X0211329Y0111832D03*
X0210999Y0110832D03*
X0217999Y0110832D03*
X0173329Y0106832D03*
X0173329Y0105832D03*
X0172999Y0107832D03*
X0168329Y0110832D03*
X0173329Y0121832D03*
X0172999Y0125832D03*
X0171329Y0125832D03*
X0173329Y0127832D03*
X0173329Y0131832D03*
X0172999Y0136832D03*
X0168329Y0135832D03*
X0169329Y0129832D03*
X0168329Y0126832D03*
X0168329Y0122832D03*
X0173329Y0087832D03*
X0172999Y0083832D03*
X0171329Y0083832D03*
X0173329Y0081832D03*
X0173329Y0078832D03*
X0173329Y0077832D03*
X0172999Y0072832D03*
X0169999Y0072832D03*
X0168329Y0073832D03*
X0168329Y0064832D03*
X0173329Y0065832D03*
X0173329Y0057832D03*
X0173329Y0056832D03*
X0168329Y0058832D03*
X0170333Y0038166D03*
X0175663Y0034166D03*
X0179663Y0034166D03*
X0181333Y0033166D03*
X0184663Y0034166D03*
X0184663Y0035166D03*
X0184663Y0036166D03*
X0184663Y0037166D03*
X0188333Y0037166D03*
X0188333Y0036166D03*
X0188333Y0035166D03*
X0188333Y0034166D03*
X0186333Y0032166D03*
X0190333Y0037166D03*
X0194333Y0035166D03*
X0179333Y0037166D03*
X0179333Y0038166D03*
X0163333Y0037166D03*
X0160333Y0035166D03*
X0160663Y0034166D03*
X0159663Y0037166D03*
X0154333Y0036166D03*
X0151663Y0034166D03*
X0114665Y0066499D03*
X0114665Y0067499D03*
X0114665Y0068499D03*
X0111665Y0069499D03*
X0108665Y0066499D03*
X0107995Y0067499D03*
X0107995Y0068499D03*
X0106665Y0068499D03*
X0105995Y0066499D03*
X0100665Y0068499D03*
X0087665Y0089165D03*
X0085665Y0089165D03*
X0084995Y0088165D03*
X0085665Y0092165D03*
X0087665Y0092165D03*
X0068665Y0066499D03*
X0064665Y0069499D03*
X0061665Y0066499D03*
X0059665Y0067499D03*
X0059665Y0068499D03*
X0059665Y0069499D03*
X0054665Y0066499D03*
X0051995Y0068499D03*
X0064995Y0088165D03*
X0064995Y0089165D03*
X0064995Y0090165D03*
X0064995Y0091165D03*
X0064995Y0092165D03*
X0168329Y0086832D03*
X0173329Y0189832D03*
X0173329Y0190832D03*
X0168329Y0191832D03*
X0168329Y0197832D03*
X0168329Y0206832D03*
X0172329Y0209832D03*
X0173329Y0210832D03*
X0173329Y0207832D03*
X0168329Y0211832D03*
X0168329Y0215832D03*
X0168329Y0219832D03*
X0168329Y0220832D03*
X0168329Y0221832D03*
X0170329Y0220832D03*
X0173329Y0219832D03*
X0173329Y0216832D03*
X0172999Y0214832D03*
X0173329Y0258832D03*
X0173329Y0259832D03*
X0168329Y0260832D03*
X0168329Y0266832D03*
X0171329Y0274832D03*
X0172999Y0274832D03*
X0173329Y0276832D03*
X0173329Y0279832D03*
X0173329Y0280832D03*
X0173329Y0283832D03*
X0172999Y0285832D03*
X0173329Y0289832D03*
X0170329Y0289832D03*
X0170329Y0288832D03*
X0168329Y0288832D03*
X0168329Y0289832D03*
X0168329Y0284832D03*
X0168329Y0280832D03*
X0168329Y0275832D03*
X0208329Y0315832D03*
X0207999Y0316832D03*
X0207329Y0318832D03*
X0212329Y0317832D03*
X0212329Y0315832D03*
X0218329Y0315832D03*
X0218329Y0316832D03*
X0218329Y0317832D03*
X0218329Y0314832D03*
X0217999Y0265832D03*
X0215329Y0264832D03*
X0213999Y0264832D03*
X0213999Y0265832D03*
X0213999Y0253832D03*
X0217999Y0205832D03*
X0216329Y0203832D03*
X0215329Y0202832D03*
X0213329Y0202832D03*
X0213999Y0204832D03*
X0126665Y0305832D03*
X0126665Y0307832D03*
X0122665Y0307832D03*
X0121995Y0305832D03*
X0118995Y0307832D03*
X0069995Y0303832D03*
X0067995Y0307832D03*
X0064665Y0306832D03*
X0064995Y0305832D03*
X0062995Y0305832D03*
X0060665Y0306832D03*
X0060995Y0307832D03*
X0059995Y0304832D03*
X0057665Y0306832D03*
X0065665Y0303832D03*
D15*
X0067330Y0304832D03*
X0067330Y0305832D03*
X0070330Y0305832D03*
X0073330Y0306832D03*
X0073330Y0307832D03*
X0063330Y0306832D03*
X0060330Y0305832D03*
X0062330Y0303832D03*
X0057330Y0307832D03*
X0119330Y0306832D03*
X0122330Y0306832D03*
X0124330Y0306832D03*
X0124330Y0303832D03*
X0168664Y0283832D03*
X0170664Y0280832D03*
X0170664Y0279832D03*
X0168664Y0276832D03*
X0170664Y0275832D03*
X0172664Y0287832D03*
X0207664Y0317832D03*
X0212664Y0318832D03*
X0214664Y0318832D03*
X0214664Y0314832D03*
X0212664Y0314832D03*
X0213664Y0266832D03*
X0215664Y0266832D03*
X0217664Y0266832D03*
X0213664Y0263832D03*
X0210664Y0251832D03*
X0210664Y0206832D03*
X0213664Y0205832D03*
X0217664Y0204832D03*
X0170664Y0206832D03*
X0170664Y0207832D03*
X0170664Y0210832D03*
X0170664Y0211832D03*
X0168664Y0216832D03*
X0172664Y0218832D03*
X0170664Y0135832D03*
X0168664Y0134832D03*
X0170664Y0131832D03*
X0168664Y0127832D03*
X0170664Y0126832D03*
X0170664Y0122832D03*
X0170664Y0121832D03*
X0168664Y0107832D03*
X0170664Y0087832D03*
X0170664Y0086832D03*
X0168664Y0081832D03*
X0170664Y0078832D03*
X0170664Y0077832D03*
X0168664Y0074832D03*
X0170664Y0073832D03*
X0175998Y0038166D03*
X0173998Y0037166D03*
X0175998Y0033166D03*
X0169998Y0033166D03*
X0169998Y0037166D03*
X0162998Y0036166D03*
X0161998Y0034166D03*
X0159998Y0036166D03*
X0153998Y0034166D03*
X0146998Y0034166D03*
X0146998Y0035166D03*
X0146998Y0037166D03*
X0146998Y0038166D03*
X0146998Y0033166D03*
X0111330Y0066499D03*
X0108330Y0069499D03*
X0106330Y0069499D03*
X0101330Y0066499D03*
X0100330Y0069499D03*
X0099330Y0069499D03*
X0088330Y0088165D03*
X0082330Y0091165D03*
X0079330Y0091165D03*
X0079330Y0090165D03*
X0079330Y0092165D03*
X0071330Y0092165D03*
X0071330Y0089165D03*
X0068330Y0092165D03*
X0061330Y0069499D03*
X0064330Y0066499D03*
X0066330Y0067499D03*
X0056330Y0067499D03*
X0056330Y0068499D03*
X0056330Y0069499D03*
X0056330Y0066499D03*
X0052330Y0069499D03*
X0051330Y0066499D03*
X0184998Y0038166D03*
X0187998Y0038166D03*
X0191998Y0032166D03*
X0193998Y0034166D03*
X0193998Y0037166D03*
X0193998Y0038166D03*
X0211664Y0090832D03*
X0210664Y0109832D03*
X0211664Y0112832D03*
X0213664Y0111832D03*
X0215664Y0110832D03*
D16*
X0217664Y0110165D03*
X0215664Y0113165D03*
X0211664Y0112498D03*
X0211664Y0091165D03*
X0213664Y0090165D03*
X0210664Y0088165D03*
X0193998Y0037832D03*
X0193998Y0037499D03*
X0193998Y0034499D03*
X0193998Y0033832D03*
X0187998Y0033499D03*
X0184998Y0033499D03*
X0181998Y0035499D03*
X0182998Y0038499D03*
X0175998Y0037832D03*
X0175998Y0037499D03*
X0173998Y0037499D03*
X0173998Y0037832D03*
X0169998Y0033499D03*
X0162998Y0036499D03*
X0162998Y0036832D03*
X0159998Y0036499D03*
X0159998Y0035832D03*
X0157998Y0035832D03*
X0157998Y0035499D03*
X0160998Y0033499D03*
X0161998Y0033499D03*
X0161998Y0033832D03*
X0153998Y0034499D03*
X0153998Y0035499D03*
X0153998Y0035832D03*
X0151998Y0037832D03*
X0146998Y0037832D03*
X0146998Y0037499D03*
X0146998Y0036832D03*
X0146998Y0036499D03*
X0146998Y0035499D03*
X0146998Y0034832D03*
X0146998Y0034499D03*
X0146998Y0033832D03*
X0146998Y0033499D03*
X0146998Y0032832D03*
X0146998Y0032499D03*
X0146998Y0038499D03*
X0146998Y0038832D03*
X0168664Y0059165D03*
X0170664Y0073165D03*
X0170664Y0073498D03*
X0170664Y0074165D03*
X0170664Y0074498D03*
X0168664Y0077498D03*
X0168664Y0079165D03*
X0170664Y0078498D03*
X0170664Y0078165D03*
X0170664Y0083165D03*
X0168664Y0083498D03*
X0168664Y0086165D03*
X0170664Y0086498D03*
X0170664Y0087165D03*
X0170664Y0087498D03*
X0170664Y0122165D03*
X0170664Y0122498D03*
X0170664Y0123165D03*
X0168664Y0123498D03*
X0168664Y0126165D03*
X0170664Y0126498D03*
X0170664Y0127165D03*
X0170664Y0127498D03*
X0168664Y0130498D03*
X0168664Y0132165D03*
X0170664Y0135165D03*
X0170664Y0135498D03*
X0170664Y0136165D03*
X0170664Y0136498D03*
X0168664Y0192498D03*
X0170664Y0195498D03*
X0168664Y0198498D03*
X0168664Y0206165D03*
X0170664Y0206498D03*
X0170664Y0207165D03*
X0170664Y0207498D03*
X0170664Y0211165D03*
X0170664Y0211498D03*
X0170664Y0212165D03*
X0168664Y0212498D03*
X0168664Y0215165D03*
X0170664Y0216498D03*
X0169664Y0217498D03*
X0170664Y0219498D03*
X0170664Y0221498D03*
X0168664Y0261165D03*
X0168664Y0275165D03*
X0170664Y0275498D03*
X0170664Y0276165D03*
X0170664Y0276498D03*
X0168664Y0279498D03*
X0170664Y0280165D03*
X0170664Y0280498D03*
X0170664Y0281165D03*
X0170664Y0285165D03*
X0170664Y0285498D03*
X0170664Y0290165D03*
X0207664Y0317498D03*
X0209664Y0316498D03*
X0209664Y0316165D03*
X0210664Y0319165D03*
X0210664Y0319498D03*
X0213664Y0314165D03*
X0216664Y0267498D03*
X0213664Y0266498D03*
X0210664Y0263165D03*
X0213664Y0255498D03*
X0213664Y0255165D03*
X0213664Y0252498D03*
X0216664Y0255498D03*
X0217664Y0206498D03*
X0216664Y0204165D03*
X0215664Y0203498D03*
X0213664Y0203498D03*
X0213664Y0203165D03*
X0213664Y0206165D03*
X0124330Y0303498D03*
X0124330Y0304165D03*
X0126330Y0305498D03*
X0124330Y0307165D03*
X0122330Y0307165D03*
X0119330Y0307165D03*
X0120330Y0304498D03*
X0120330Y0304165D03*
X0121330Y0304165D03*
X0070330Y0305165D03*
X0070330Y0305498D03*
X0070330Y0306165D03*
X0067330Y0306165D03*
X0067330Y0306498D03*
X0067330Y0305498D03*
X0067330Y0305165D03*
X0065330Y0304498D03*
X0062330Y0304498D03*
X0062330Y0304165D03*
X0060330Y0306165D03*
X0058330Y0305498D03*
X0058330Y0305165D03*
X0057330Y0308165D03*
X0063330Y0307165D03*
X0064330Y0307498D03*
X0077330Y0092499D03*
X0077330Y0088499D03*
X0081330Y0088499D03*
X0083330Y0090499D03*
X0085330Y0088832D03*
X0085330Y0088499D03*
X0087330Y0089832D03*
X0087330Y0091499D03*
X0085330Y0092832D03*
X0071330Y0091832D03*
X0068330Y0088832D03*
X0068330Y0070165D03*
X0066330Y0068832D03*
X0066330Y0067832D03*
X0068330Y0066165D03*
X0064330Y0070165D03*
X0061330Y0069165D03*
X0061330Y0067165D03*
X0059330Y0066832D03*
X0056330Y0066832D03*
X0056330Y0067165D03*
X0056330Y0067832D03*
X0056330Y0068165D03*
X0056330Y0068832D03*
X0056330Y0069165D03*
X0056330Y0069832D03*
X0056330Y0070165D03*
X0053330Y0069832D03*
X0052330Y0069165D03*
X0054330Y0067165D03*
X0059330Y0069832D03*
X0098330Y0067165D03*
X0098330Y0066832D03*
X0101330Y0066832D03*
X0100330Y0069832D03*
X0099330Y0069832D03*
X0106330Y0069832D03*
X0106330Y0067165D03*
X0106330Y0066832D03*
X0108330Y0066832D03*
X0111330Y0069832D03*
X0111330Y0070165D03*
D17*
X0110830Y0066165D03*
X0099830Y0070165D03*
X0083160Y0088499D03*
X0079160Y0088499D03*
X0062160Y0066165D03*
X0151498Y0038832D03*
X0151828Y0038499D03*
X0151828Y0037499D03*
X0151498Y0036499D03*
X0151828Y0033832D03*
X0151828Y0033499D03*
X0151828Y0032832D03*
X0152168Y0032499D03*
X0154168Y0033832D03*
X0154828Y0032832D03*
X0154498Y0036832D03*
X0157498Y0036832D03*
X0164828Y0032832D03*
X0164828Y0032499D03*
X0170168Y0037499D03*
X0170498Y0038499D03*
X0173498Y0038499D03*
X0173828Y0036832D03*
X0173828Y0036499D03*
X0172498Y0035499D03*
X0175828Y0033499D03*
X0179498Y0033499D03*
X0179168Y0035499D03*
X0178828Y0036499D03*
X0179498Y0037832D03*
X0179168Y0038499D03*
X0176168Y0038499D03*
X0184828Y0037832D03*
X0185168Y0038499D03*
X0186498Y0039499D03*
X0187828Y0038499D03*
X0188168Y0037832D03*
X0190828Y0035832D03*
X0190498Y0033499D03*
X0188168Y0033832D03*
X0184498Y0035832D03*
X0192168Y0039499D03*
X0193168Y0038832D03*
X0194168Y0036832D03*
X0194168Y0036499D03*
X0173164Y0069165D03*
X0169494Y0072498D03*
X0168494Y0067165D03*
X0168494Y0065165D03*
X0169164Y0059498D03*
X0172494Y0059498D03*
X0172834Y0079498D03*
X0172494Y0081165D03*
X0170834Y0083498D03*
X0169494Y0084165D03*
X0169164Y0081498D03*
X0172164Y0085498D03*
X0168834Y0088165D03*
X0169164Y0108165D03*
X0170834Y0113498D03*
X0169494Y0114498D03*
X0168834Y0121498D03*
X0169494Y0125498D03*
X0170834Y0126165D03*
X0172834Y0128165D03*
X0172834Y0132498D03*
X0170834Y0132165D03*
X0172164Y0137498D03*
X0172834Y0192498D03*
X0170834Y0198165D03*
X0173164Y0202165D03*
X0173164Y0202498D03*
X0172164Y0205498D03*
X0168834Y0208165D03*
X0169494Y0210165D03*
X0168834Y0210498D03*
X0172834Y0217165D03*
X0172834Y0219165D03*
X0172494Y0261498D03*
X0168834Y0261498D03*
X0168494Y0269165D03*
X0169494Y0274498D03*
X0169494Y0277498D03*
X0171494Y0279165D03*
X0172834Y0279165D03*
X0172834Y0277165D03*
X0171164Y0281498D03*
X0172494Y0283165D03*
X0172834Y0283498D03*
X0169164Y0283498D03*
X0170834Y0290498D03*
X0172834Y0290498D03*
X0173164Y0271165D03*
X0208834Y0314498D03*
X0208834Y0315165D03*
X0212834Y0319165D03*
X0214494Y0319165D03*
X0213164Y0267165D03*
X0213164Y0263165D03*
X0125830Y0305165D03*
X0120830Y0303498D03*
X0120830Y0303165D03*
X0073160Y0307498D03*
X0065160Y0305165D03*
X0063830Y0308165D03*
X0059160Y0303498D03*
X0059160Y0303165D03*
X0212494Y0114498D03*
X0212494Y0114165D03*
X0216834Y0114498D03*
X0216834Y0092165D03*
X0212494Y0092498D03*
D18*
X0191998Y0032499D03*
X0155998Y0032499D03*
X0155998Y0037499D03*
X0082330Y0092499D03*
X0170664Y0262165D03*
X0211664Y0267498D03*
X0211664Y0256165D03*
X0211664Y0251498D03*
D19*
X0213999Y0253165D03*
X0213999Y0253498D03*
X0213999Y0254165D03*
X0213999Y0254498D03*
X0217999Y0264165D03*
X0217999Y0264498D03*
X0217999Y0265498D03*
X0215329Y0265165D03*
X0213999Y0265165D03*
X0213999Y0265498D03*
X0218329Y0314498D03*
X0218329Y0315165D03*
X0218329Y0315498D03*
X0218329Y0316165D03*
X0218329Y0316498D03*
X0218329Y0317165D03*
X0218329Y0317498D03*
X0218329Y0318165D03*
X0218329Y0319165D03*
X0214999Y0318498D03*
X0212329Y0318165D03*
X0212329Y0316165D03*
X0209999Y0317165D03*
X0209999Y0317498D03*
X0210329Y0318165D03*
X0210329Y0318498D03*
X0207329Y0318498D03*
X0207329Y0318165D03*
X0206999Y0319165D03*
X0206999Y0319498D03*
X0207999Y0316498D03*
X0208329Y0315498D03*
X0209329Y0315498D03*
X0214999Y0315498D03*
X0173329Y0290165D03*
X0173329Y0288498D03*
X0172999Y0288165D03*
X0171999Y0286498D03*
X0173329Y0285498D03*
X0171999Y0282165D03*
X0172999Y0281498D03*
X0173329Y0281165D03*
X0173329Y0279498D03*
X0173329Y0276498D03*
X0173329Y0275498D03*
X0173329Y0275165D03*
X0171329Y0277165D03*
X0168329Y0276165D03*
X0168329Y0273165D03*
X0168329Y0267165D03*
X0172999Y0261165D03*
X0173329Y0260498D03*
X0173329Y0260165D03*
X0173329Y0259498D03*
X0173329Y0259165D03*
X0168329Y0280165D03*
X0168329Y0280498D03*
X0168329Y0288498D03*
X0168329Y0289165D03*
X0168329Y0289498D03*
X0168329Y0290165D03*
X0168329Y0290498D03*
X0170329Y0289498D03*
X0170329Y0289165D03*
X0126995Y0306165D03*
X0126995Y0307498D03*
X0124665Y0304498D03*
X0121665Y0305165D03*
X0121995Y0306165D03*
X0119995Y0305498D03*
X0119995Y0305165D03*
X0119665Y0306165D03*
X0118995Y0308165D03*
X0122665Y0308165D03*
X0069995Y0307498D03*
X0069995Y0307165D03*
X0067665Y0307498D03*
X0064995Y0306165D03*
X0064665Y0306498D03*
X0064665Y0307165D03*
X0063995Y0308498D03*
X0062995Y0306165D03*
X0062665Y0305498D03*
X0062665Y0305165D03*
X0061995Y0303498D03*
X0061995Y0303165D03*
X0059665Y0304165D03*
X0058665Y0304165D03*
X0058665Y0304498D03*
X0059995Y0305165D03*
X0060665Y0307165D03*
X0060995Y0308165D03*
X0057995Y0306498D03*
X0057995Y0306165D03*
X0057665Y0307165D03*
X0064995Y0305498D03*
X0065665Y0304165D03*
X0065995Y0303498D03*
X0065995Y0303165D03*
X0067665Y0303498D03*
X0069665Y0303498D03*
X0168329Y0221498D03*
X0168329Y0221165D03*
X0168329Y0220498D03*
X0168329Y0220165D03*
X0170329Y0220165D03*
X0170329Y0220498D03*
X0172999Y0221498D03*
X0173329Y0221165D03*
X0173329Y0219498D03*
X0173329Y0216498D03*
X0173329Y0215165D03*
X0171329Y0217165D03*
X0169329Y0214498D03*
X0168329Y0211498D03*
X0168329Y0211165D03*
X0169999Y0210498D03*
X0168329Y0207498D03*
X0168329Y0207165D03*
X0172999Y0208165D03*
X0173329Y0206498D03*
X0172999Y0210498D03*
X0173329Y0212165D03*
X0170329Y0198498D03*
X0168329Y0198165D03*
X0168329Y0195498D03*
X0168329Y0192165D03*
X0172999Y0192165D03*
X0173329Y0191498D03*
X0173329Y0191165D03*
X0173329Y0190498D03*
X0173329Y0190165D03*
X0173329Y0136498D03*
X0173329Y0135165D03*
X0173329Y0132165D03*
X0173329Y0130498D03*
X0172999Y0130165D03*
X0171329Y0128165D03*
X0169329Y0128498D03*
X0168329Y0127165D03*
X0168329Y0126498D03*
X0168329Y0122498D03*
X0168329Y0122165D03*
X0172999Y0121498D03*
X0173329Y0123165D03*
X0172999Y0123498D03*
X0173329Y0126165D03*
X0173329Y0126498D03*
X0173329Y0127498D03*
X0171329Y0132498D03*
X0168329Y0131165D03*
X0168329Y0135498D03*
X0168329Y0136165D03*
X0173329Y0114498D03*
X0168329Y0113498D03*
X0168329Y0113165D03*
X0168329Y0107498D03*
X0168329Y0107165D03*
X0168329Y0105165D03*
X0173329Y0105165D03*
X0173329Y0105498D03*
X0173329Y0106165D03*
X0173329Y0106498D03*
X0172999Y0088165D03*
X0173329Y0086498D03*
X0172999Y0086165D03*
X0173329Y0083498D03*
X0173329Y0083165D03*
X0172999Y0081498D03*
X0173329Y0079165D03*
X0173329Y0077498D03*
X0172999Y0077165D03*
X0171329Y0077165D03*
X0171329Y0079498D03*
X0169329Y0081165D03*
X0168329Y0082498D03*
X0168329Y0078498D03*
X0168329Y0078165D03*
X0168329Y0074165D03*
X0168329Y0073498D03*
X0168329Y0071165D03*
X0172329Y0072165D03*
X0173329Y0073165D03*
X0173329Y0074498D03*
X0172999Y0059165D03*
X0173329Y0058498D03*
X0173329Y0058165D03*
X0173329Y0057498D03*
X0173329Y0057165D03*
X0173329Y0056498D03*
X0168329Y0056498D03*
X0168329Y0058498D03*
X0170333Y0037832D03*
X0170333Y0033832D03*
X0175663Y0033832D03*
X0179663Y0033832D03*
X0179663Y0034499D03*
X0179663Y0034832D03*
X0179333Y0036832D03*
X0179333Y0037499D03*
X0182333Y0036499D03*
X0182663Y0037499D03*
X0184663Y0037499D03*
X0184663Y0036832D03*
X0184663Y0036499D03*
X0184663Y0035499D03*
X0184663Y0034832D03*
X0184663Y0034499D03*
X0184663Y0033832D03*
X0188333Y0034499D03*
X0188333Y0034832D03*
X0188333Y0035499D03*
X0188333Y0035832D03*
X0188333Y0036499D03*
X0188333Y0036832D03*
X0188333Y0037499D03*
X0190333Y0037499D03*
X0190333Y0037832D03*
X0190663Y0038499D03*
X0190333Y0036832D03*
X0190333Y0036499D03*
X0190333Y0033832D03*
X0193663Y0033499D03*
X0194333Y0034832D03*
X0194333Y0035499D03*
X0193663Y0038499D03*
X0183333Y0039499D03*
X0163333Y0037499D03*
X0162663Y0035832D03*
X0162663Y0035499D03*
X0162333Y0034832D03*
X0162333Y0034499D03*
X0160663Y0034499D03*
X0160333Y0034832D03*
X0160333Y0035499D03*
X0159663Y0036832D03*
X0159663Y0037499D03*
X0157663Y0036499D03*
X0157663Y0033832D03*
X0157663Y0033499D03*
X0160663Y0033832D03*
X0161333Y0032499D03*
X0154333Y0033499D03*
X0151663Y0034499D03*
X0151663Y0034832D03*
X0151663Y0036832D03*
X0154333Y0036499D03*
X0168329Y0087165D03*
X0168329Y0087498D03*
X0210999Y0089165D03*
X0211329Y0090165D03*
X0211999Y0092165D03*
X0212999Y0092165D03*
X0213329Y0091165D03*
X0213999Y0089165D03*
X0214329Y0088498D03*
X0214329Y0088165D03*
X0216999Y0091498D03*
X0216999Y0092498D03*
X0215999Y0110165D03*
X0213999Y0110498D03*
X0213329Y0112498D03*
X0212999Y0113498D03*
X0211999Y0113498D03*
X0210999Y0110498D03*
X0217999Y0113498D03*
X0213999Y0204165D03*
X0213999Y0204498D03*
X0213999Y0205165D03*
X0213999Y0205498D03*
X0213329Y0206498D03*
X0217329Y0204498D03*
X0217999Y0205165D03*
X0217999Y0205498D03*
X0217999Y0206165D03*
X0114665Y0070165D03*
X0114665Y0069165D03*
X0114665Y0068832D03*
X0114665Y0068165D03*
X0114665Y0067832D03*
X0114665Y0067165D03*
X0114665Y0066832D03*
X0114665Y0066165D03*
X0111665Y0067165D03*
X0108995Y0066165D03*
X0107995Y0067832D03*
X0107995Y0068165D03*
X0107995Y0068832D03*
X0106665Y0068832D03*
X0106665Y0068165D03*
X0106665Y0067832D03*
X0105995Y0070165D03*
X0108665Y0070165D03*
X0109995Y0070832D03*
X0100995Y0067832D03*
X0100665Y0068832D03*
X0098995Y0068832D03*
X0098665Y0067832D03*
X0097995Y0066165D03*
X0097995Y0065832D03*
X0101665Y0065832D03*
X0101665Y0066165D03*
X0087995Y0088832D03*
X0085995Y0089499D03*
X0085995Y0089832D03*
X0086665Y0090499D03*
X0086665Y0090832D03*
X0085995Y0091499D03*
X0085995Y0091832D03*
X0087995Y0092499D03*
X0083665Y0089832D03*
X0083665Y0089499D03*
X0080995Y0088832D03*
X0079665Y0089499D03*
X0076995Y0089832D03*
X0076995Y0088832D03*
X0078995Y0092499D03*
X0070995Y0092499D03*
X0068665Y0092499D03*
X0067995Y0091499D03*
X0067995Y0089499D03*
X0068665Y0088499D03*
X0070665Y0088499D03*
X0064995Y0088499D03*
X0064995Y0088832D03*
X0064995Y0089499D03*
X0064995Y0089832D03*
X0064995Y0090499D03*
X0064995Y0090832D03*
X0064995Y0091499D03*
X0064995Y0091832D03*
X0064995Y0092499D03*
X0062995Y0070832D03*
X0061995Y0070165D03*
X0061665Y0069832D03*
X0059665Y0069165D03*
X0059665Y0068832D03*
X0059665Y0068165D03*
X0059665Y0067832D03*
X0058995Y0070165D03*
X0054665Y0066165D03*
X0053995Y0067832D03*
X0053995Y0068165D03*
X0053665Y0068832D03*
X0053665Y0069165D03*
X0063995Y0066165D03*
X0064665Y0066832D03*
X0066995Y0066165D03*
X0068995Y0068165D03*
X0068665Y0069832D03*
X0066995Y0070165D03*
X0066665Y0069832D03*
X0064665Y0069832D03*
D20*
X0148998Y0039499D03*
X0148998Y0035832D03*
X0155998Y0034832D03*
X0171998Y0032832D03*
X0171998Y0032499D03*
D21*
X0177498Y0032499D03*
X0186498Y0038832D03*
X0212494Y0111498D03*
X0211834Y0202498D03*
X0169494Y0288165D03*
X0061500Y0088499D03*
X0104500Y0066165D03*
D22*
X0103165Y0066832D03*
X0103165Y0067165D03*
X0103165Y0067832D03*
X0103165Y0068165D03*
X0103165Y0068832D03*
X0103165Y0069165D03*
X0103165Y0069832D03*
X0103165Y0070165D03*
X0100495Y0069165D03*
X0099165Y0069165D03*
X0101165Y0067165D03*
X0106495Y0069165D03*
X0108165Y0069165D03*
X0108495Y0069832D03*
X0108165Y0067165D03*
X0111495Y0066832D03*
X0088165Y0088499D03*
X0087495Y0089499D03*
X0087495Y0091832D03*
X0088165Y0092832D03*
X0085495Y0092499D03*
X0083495Y0088832D03*
X0081165Y0090499D03*
X0081165Y0091499D03*
X0081165Y0091832D03*
X0079495Y0091832D03*
X0079495Y0091499D03*
X0079495Y0089832D03*
X0079495Y0088832D03*
X0077165Y0091499D03*
X0077165Y0091832D03*
X0074495Y0091499D03*
X0074495Y0090832D03*
X0074495Y0090499D03*
X0074495Y0089832D03*
X0074495Y0089499D03*
X0074495Y0088832D03*
X0074495Y0088499D03*
X0071495Y0089499D03*
X0071165Y0088832D03*
X0068165Y0091832D03*
X0074495Y0092499D03*
X0074495Y0092832D03*
X0060165Y0092832D03*
X0060165Y0092499D03*
X0060165Y0091832D03*
X0060165Y0091499D03*
X0060165Y0090832D03*
X0060165Y0090499D03*
X0060165Y0089832D03*
X0060165Y0089499D03*
X0060165Y0088832D03*
X0061165Y0068832D03*
X0061165Y0068165D03*
X0061165Y0067832D03*
X0061495Y0066832D03*
X0059495Y0067165D03*
X0054495Y0066832D03*
X0052165Y0068832D03*
X0052495Y0069832D03*
X0051495Y0067165D03*
X0051495Y0066832D03*
X0051165Y0066165D03*
X0051165Y0065832D03*
X0066165Y0068165D03*
X0066495Y0067165D03*
X0066495Y0066832D03*
X0066495Y0069165D03*
X0168499Y0073165D03*
X0168499Y0074498D03*
X0169499Y0075498D03*
X0168499Y0082165D03*
X0168499Y0083165D03*
X0170829Y0082498D03*
X0173499Y0082498D03*
X0173499Y0082165D03*
X0173499Y0078498D03*
X0173499Y0078165D03*
X0173499Y0074165D03*
X0173499Y0073498D03*
X0170829Y0064498D03*
X0170829Y0064165D03*
X0170829Y0063498D03*
X0170829Y0063165D03*
X0170829Y0062498D03*
X0172163Y0039499D03*
X0182163Y0035832D03*
X0181833Y0034832D03*
X0181833Y0034499D03*
X0181163Y0032832D03*
X0181163Y0032499D03*
X0182833Y0037832D03*
X0183163Y0038832D03*
X0168499Y0086498D03*
X0173499Y0087165D03*
X0173499Y0087498D03*
X0170829Y0111165D03*
X0170829Y0111498D03*
X0170829Y0112165D03*
X0170829Y0112498D03*
X0170829Y0113165D03*
X0173499Y0122165D03*
X0173499Y0122498D03*
X0173499Y0127165D03*
X0173499Y0131165D03*
X0173499Y0131498D03*
X0170829Y0131498D03*
X0170829Y0131165D03*
X0168499Y0131498D03*
X0168499Y0135165D03*
X0168499Y0136498D03*
X0173499Y0136165D03*
X0173499Y0135498D03*
X0168499Y0127498D03*
X0168499Y0123165D03*
X0210829Y0110165D03*
X0211499Y0112165D03*
X0211829Y0113165D03*
X0213499Y0112165D03*
X0213829Y0111165D03*
X0215499Y0111165D03*
X0215499Y0111498D03*
X0215499Y0112165D03*
X0215499Y0112498D03*
X0215829Y0113498D03*
X0215829Y0110498D03*
X0217829Y0110498D03*
X0211829Y0091498D03*
X0211499Y0090498D03*
X0213499Y0090498D03*
X0213829Y0089498D03*
X0210829Y0088498D03*
X0170829Y0196165D03*
X0170829Y0196498D03*
X0170829Y0197165D03*
X0170829Y0197498D03*
X0169499Y0199165D03*
X0173499Y0199165D03*
X0173499Y0207165D03*
X0173499Y0207498D03*
X0173499Y0211165D03*
X0173499Y0211498D03*
X0173499Y0215498D03*
X0173499Y0216165D03*
X0170829Y0216165D03*
X0168499Y0216165D03*
X0168499Y0216498D03*
X0168499Y0215498D03*
X0169499Y0213165D03*
X0168499Y0212165D03*
X0168499Y0206498D03*
X0173499Y0220165D03*
X0173499Y0220498D03*
X0170499Y0221165D03*
X0170829Y0264498D03*
X0170829Y0265165D03*
X0170829Y0265498D03*
X0170829Y0266165D03*
X0170829Y0266498D03*
X0168499Y0275498D03*
X0168499Y0276498D03*
X0168499Y0281165D03*
X0169499Y0283165D03*
X0168499Y0284165D03*
X0168499Y0284498D03*
X0168499Y0285165D03*
X0168499Y0285498D03*
X0170499Y0288498D03*
X0173499Y0289165D03*
X0173499Y0289498D03*
X0173499Y0285165D03*
X0173499Y0284498D03*
X0173499Y0284165D03*
X0173499Y0280498D03*
X0173499Y0280165D03*
X0173499Y0276165D03*
X0207829Y0317165D03*
X0212499Y0318498D03*
X0212499Y0315498D03*
X0212499Y0315165D03*
X0214829Y0315165D03*
X0218499Y0319498D03*
X0210499Y0267165D03*
X0210499Y0266498D03*
X0210499Y0266165D03*
X0210499Y0265498D03*
X0210499Y0265165D03*
X0210499Y0264498D03*
X0210499Y0264165D03*
X0210499Y0263498D03*
X0213499Y0263498D03*
X0213829Y0264165D03*
X0213829Y0264498D03*
X0213829Y0266165D03*
X0215499Y0266165D03*
X0215499Y0266498D03*
X0215499Y0265498D03*
X0215499Y0264498D03*
X0215499Y0264165D03*
X0215499Y0263498D03*
X0215829Y0263165D03*
X0217499Y0263165D03*
X0217829Y0263498D03*
X0217829Y0266165D03*
X0217829Y0266498D03*
X0216829Y0256165D03*
X0216829Y0254498D03*
X0216829Y0254165D03*
X0216829Y0253498D03*
X0216829Y0253165D03*
X0216829Y0252498D03*
X0216829Y0252165D03*
X0216829Y0251498D03*
X0213499Y0252165D03*
X0210499Y0252165D03*
X0210499Y0252498D03*
X0210499Y0253165D03*
X0210499Y0253498D03*
X0210499Y0254165D03*
X0210499Y0254498D03*
X0210499Y0255165D03*
X0210499Y0255498D03*
X0210499Y0206498D03*
X0210499Y0206165D03*
X0210499Y0205498D03*
X0210499Y0205165D03*
X0210499Y0204498D03*
X0210499Y0204165D03*
X0210499Y0203498D03*
X0210499Y0203165D03*
X0215499Y0203165D03*
X0215499Y0206165D03*
X0215829Y0206498D03*
X0127165Y0306498D03*
X0127165Y0307165D03*
X0124495Y0307498D03*
X0122495Y0307498D03*
X0122165Y0306498D03*
X0121495Y0304498D03*
X0119495Y0306498D03*
X0119165Y0307498D03*
X0073495Y0308165D03*
X0073495Y0306498D03*
X0073495Y0306165D03*
X0073495Y0305498D03*
X0073495Y0305165D03*
X0073495Y0304498D03*
X0073495Y0304165D03*
X0073495Y0303498D03*
X0073495Y0303165D03*
X0070165Y0304165D03*
X0070165Y0304498D03*
X0070165Y0306498D03*
X0067495Y0307165D03*
X0067495Y0304498D03*
X0067495Y0304165D03*
X0063165Y0306498D03*
X0063495Y0307498D03*
X0061165Y0308498D03*
X0060495Y0306498D03*
X0060165Y0305498D03*
X0057495Y0307498D03*
X0057165Y0308498D03*
D23*
X0172329Y0267498D03*
X0172329Y0114165D03*
X0172329Y0065498D03*
X0186333Y0032499D03*
D24*
X0190998Y0032832D03*
X0192998Y0032832D03*
X0192998Y0035499D03*
X0190998Y0038832D03*
X0172998Y0035832D03*
X0170998Y0034499D03*
X0170998Y0038832D03*
X0156998Y0032832D03*
X0169664Y0070498D03*
X0170664Y0070165D03*
X0172664Y0069498D03*
X0170664Y0077498D03*
X0170664Y0079165D03*
X0170664Y0086165D03*
X0168664Y0119498D03*
X0170664Y0123498D03*
X0170664Y0193498D03*
X0171664Y0198498D03*
X0168664Y0200498D03*
X0168664Y0204165D03*
X0170664Y0206165D03*
X0170664Y0212498D03*
X0172664Y0214498D03*
X0171664Y0222165D03*
X0172664Y0271498D03*
X0170664Y0275165D03*
X0170664Y0279498D03*
X0078330Y0092832D03*
X0114330Y0069832D03*
D25*
X0151333Y0035499D03*
X0161333Y0032832D03*
X0171333Y0034832D03*
X0176333Y0032832D03*
X0178663Y0032832D03*
X0178663Y0038832D03*
X0176663Y0038832D03*
X0185663Y0032832D03*
X0187333Y0032832D03*
X0191333Y0035499D03*
X0171999Y0075498D03*
X0172329Y0108165D03*
X0170329Y0116498D03*
X0172329Y0118165D03*
X0172999Y0117498D03*
X0171999Y0124165D03*
X0168999Y0130165D03*
X0172329Y0134165D03*
X0171329Y0201498D03*
X0171329Y0203165D03*
X0170329Y0203498D03*
X0171999Y0213165D03*
X0170999Y0267165D03*
X0168999Y0269498D03*
X0216329Y0255165D03*
X0067665Y0065832D03*
X0052995Y0070165D03*
D26*
X0067665Y0070499D03*
X0086665Y0090165D03*
X0086665Y0091165D03*
X0161333Y0033166D03*
X0172999Y0068832D03*
X0171999Y0088832D03*
X0172329Y0192832D03*
X0169329Y0192832D03*
X0172329Y0201832D03*
X0172329Y0202832D03*
X0169329Y0267832D03*
X0169329Y0281832D03*
X0217999Y0318832D03*
X0063995Y0307832D03*
D27*
X0060830Y0307498D03*
X0059830Y0304498D03*
X0118830Y0308498D03*
X0122830Y0308498D03*
X0121830Y0305498D03*
X0168164Y0266498D03*
X0168164Y0266165D03*
X0168164Y0265498D03*
X0168164Y0265165D03*
X0168164Y0264498D03*
X0168164Y0260498D03*
X0168164Y0260165D03*
X0168164Y0259498D03*
X0168164Y0259165D03*
X0172164Y0214165D03*
X0173164Y0212498D03*
X0171164Y0210498D03*
X0173164Y0206165D03*
X0168164Y0204498D03*
X0168164Y0200165D03*
X0168164Y0197498D03*
X0168164Y0197165D03*
X0168164Y0196498D03*
X0168164Y0196165D03*
X0168164Y0191498D03*
X0168164Y0191165D03*
X0168164Y0190498D03*
X0168164Y0190165D03*
X0168164Y0115498D03*
X0168164Y0112498D03*
X0168164Y0112165D03*
X0168164Y0111498D03*
X0168164Y0111165D03*
X0168164Y0106498D03*
X0168164Y0106165D03*
X0168164Y0105498D03*
X0173164Y0107165D03*
X0173164Y0107498D03*
X0168164Y0064498D03*
X0168164Y0064165D03*
X0168164Y0063498D03*
X0168164Y0063165D03*
X0168164Y0062498D03*
X0168164Y0058165D03*
X0168164Y0057498D03*
X0168164Y0057165D03*
X0177498Y0039499D03*
X0182498Y0036832D03*
X0181498Y0033832D03*
X0181498Y0033499D03*
X0211164Y0089498D03*
X0213164Y0091498D03*
X0217164Y0091165D03*
X0217164Y0090498D03*
X0217164Y0090165D03*
X0217164Y0089498D03*
X0217164Y0089165D03*
X0217164Y0088498D03*
X0217164Y0088165D03*
X0214164Y0110165D03*
X0213164Y0113165D03*
X0211164Y0111165D03*
X0218164Y0111165D03*
X0218164Y0111498D03*
X0218164Y0112165D03*
X0218164Y0112498D03*
X0218164Y0113165D03*
X0218164Y0265165D03*
X0215164Y0316165D03*
X0215164Y0316498D03*
X0215164Y0317165D03*
X0215164Y0317498D03*
X0215164Y0318165D03*
X0212164Y0317498D03*
X0212164Y0317165D03*
X0212164Y0316498D03*
X0208164Y0316165D03*
X0067830Y0090832D03*
X0067830Y0090499D03*
X0067830Y0089832D03*
X0076830Y0089499D03*
X0068830Y0069165D03*
X0068830Y0068832D03*
X0068830Y0067832D03*
X0068830Y0067165D03*
X0068830Y0066832D03*
X0064830Y0067165D03*
X0054830Y0065832D03*
X0051830Y0067832D03*
X0051830Y0068165D03*
X0098830Y0068165D03*
X0100830Y0068165D03*
D28*
X0098830Y0068499D03*
X0111830Y0067499D03*
X0114830Y0070499D03*
X0080830Y0089165D03*
X0076830Y0089165D03*
X0067830Y0090165D03*
X0067830Y0091165D03*
X0068830Y0069499D03*
X0068830Y0068499D03*
X0068830Y0067499D03*
X0064830Y0067499D03*
X0053830Y0068499D03*
X0168164Y0063832D03*
X0168164Y0062832D03*
X0168164Y0057832D03*
X0168164Y0056832D03*
X0173164Y0058832D03*
X0171164Y0072832D03*
X0173164Y0074832D03*
X0168164Y0105832D03*
X0168164Y0106832D03*
X0168164Y0111832D03*
X0168164Y0112832D03*
X0168164Y0119832D03*
X0173164Y0134832D03*
X0168164Y0189832D03*
X0168164Y0190832D03*
X0168164Y0195832D03*
X0168164Y0196832D03*
X0173164Y0191832D03*
X0168164Y0258832D03*
X0168164Y0259832D03*
X0168164Y0264832D03*
X0168164Y0265832D03*
X0173164Y0260832D03*
X0210164Y0317832D03*
X0212164Y0316832D03*
X0215164Y0316832D03*
X0215164Y0317832D03*
X0215164Y0315832D03*
X0218164Y0264832D03*
X0119830Y0305832D03*
X0218164Y0112832D03*
X0218164Y0111832D03*
X0217164Y0092832D03*
X0217164Y0090832D03*
X0217164Y0089832D03*
X0217164Y0088832D03*
X0182498Y0037166D03*
X0181498Y0034166D03*
D29*
X0155998Y0035166D03*
X0148998Y0036166D03*
D30*
X0154998Y0037166D03*
X0171998Y0035166D03*
X0193998Y0036166D03*
X0171664Y0069832D03*
X0170664Y0074832D03*
X0168664Y0115832D03*
X0170664Y0127832D03*
X0170664Y0134832D03*
X0170664Y0216832D03*
X0170664Y0276832D03*
X0059330Y0303832D03*
D31*
X0058495Y0304832D03*
X0058165Y0305832D03*
X0067495Y0306832D03*
X0070165Y0306832D03*
X0070165Y0304832D03*
X0067495Y0303832D03*
X0073495Y0303832D03*
X0073495Y0304832D03*
X0073495Y0305832D03*
X0120165Y0304832D03*
X0121495Y0304832D03*
X0127165Y0306832D03*
X0168499Y0279832D03*
X0169499Y0278832D03*
X0173499Y0275832D03*
X0173499Y0284832D03*
X0170829Y0284832D03*
X0173499Y0288832D03*
X0170829Y0265832D03*
X0170829Y0264832D03*
X0173499Y0220832D03*
X0170499Y0219832D03*
X0170829Y0215832D03*
X0173499Y0215832D03*
X0173499Y0211832D03*
X0173499Y0206832D03*
X0168499Y0207832D03*
X0168499Y0210832D03*
X0170829Y0197832D03*
X0170829Y0196832D03*
X0170829Y0195832D03*
X0210499Y0202832D03*
X0210499Y0203832D03*
X0210499Y0204832D03*
X0210499Y0205832D03*
X0213829Y0203832D03*
X0215499Y0205832D03*
X0216829Y0251832D03*
X0216829Y0252832D03*
X0216829Y0253832D03*
X0216829Y0254832D03*
X0216829Y0255832D03*
X0213829Y0254832D03*
X0213829Y0252832D03*
X0210499Y0252832D03*
X0210499Y0253832D03*
X0210499Y0254832D03*
X0210499Y0255832D03*
X0210499Y0263832D03*
X0210499Y0264832D03*
X0210499Y0265832D03*
X0210499Y0266832D03*
X0215499Y0265832D03*
X0215499Y0263832D03*
X0217829Y0263832D03*
X0209499Y0315832D03*
X0209829Y0316832D03*
X0210499Y0318832D03*
X0210829Y0319832D03*
X0206829Y0319832D03*
X0173499Y0135832D03*
X0173499Y0130832D03*
X0173499Y0126832D03*
X0173499Y0122832D03*
X0168499Y0121832D03*
X0170829Y0112832D03*
X0170829Y0111832D03*
X0168499Y0130832D03*
X0168499Y0131832D03*
X0168499Y0087832D03*
X0168499Y0082832D03*
X0170829Y0082832D03*
X0173499Y0082832D03*
X0173499Y0086832D03*
X0168499Y0078832D03*
X0168499Y0077832D03*
X0173499Y0073832D03*
X0170829Y0063832D03*
X0170829Y0062832D03*
X0183163Y0039166D03*
X0182833Y0038166D03*
X0182163Y0036166D03*
X0181833Y0035166D03*
X0215499Y0111832D03*
X0215499Y0112832D03*
X0215829Y0113832D03*
X0217829Y0113832D03*
X0212829Y0113832D03*
X0106495Y0067499D03*
X0103165Y0067499D03*
X0103165Y0068499D03*
X0103165Y0069499D03*
X0103165Y0066499D03*
X0098165Y0066499D03*
X0083495Y0089165D03*
X0083495Y0090165D03*
X0081165Y0091165D03*
X0081165Y0092165D03*
X0079495Y0089165D03*
X0077165Y0090165D03*
X0077165Y0091165D03*
X0077165Y0092165D03*
X0074495Y0091165D03*
X0074495Y0090165D03*
X0074495Y0089165D03*
X0074495Y0088165D03*
X0068165Y0089165D03*
X0060165Y0089165D03*
X0060165Y0090165D03*
X0060165Y0091165D03*
X0060165Y0092165D03*
X0066495Y0069499D03*
X0066165Y0068499D03*
X0066495Y0066499D03*
X0061165Y0067499D03*
X0061165Y0068499D03*
X0059165Y0066499D03*
X0053495Y0069499D03*
D32*
X0069660Y0088165D03*
X0169334Y0198832D03*
X0172664Y0267832D03*
X0171994Y0281832D03*
X0171664Y0290832D03*
X0216664Y0262832D03*
X0170994Y0113832D03*
X0170664Y0108832D03*
X0191998Y0035166D03*
D33*
X0178328Y0035832D03*
X0170664Y0060165D03*
X0169334Y0065498D03*
X0171994Y0084165D03*
X0169334Y0114165D03*
X0169664Y0132498D03*
X0171994Y0137165D03*
X0171994Y0210165D03*
X0169994Y0219165D03*
X0169334Y0281498D03*
X0171994Y0286165D03*
X0213664Y0314498D03*
X0216664Y0267165D03*
X0125660Y0308165D03*
X0078330Y0090832D03*
X0078330Y0090499D03*
X0063000Y0065832D03*
X0057000Y0065832D03*
X0104000Y0065832D03*
D34*
X0169499Y0075165D03*
X0169499Y0077165D03*
X0169499Y0079498D03*
X0170499Y0088165D03*
X0169499Y0088498D03*
X0170829Y0065165D03*
X0173163Y0038832D03*
X0193833Y0035832D03*
X0169499Y0116165D03*
X0169499Y0119165D03*
X0169499Y0121165D03*
X0170499Y0121498D03*
X0171499Y0118498D03*
X0169499Y0128165D03*
X0169499Y0134498D03*
X0169499Y0137165D03*
X0170499Y0201165D03*
X0170499Y0208165D03*
X0169499Y0208498D03*
X0169499Y0217165D03*
X0168829Y0219498D03*
X0170829Y0270165D03*
X0171829Y0270498D03*
X0170829Y0272165D03*
X0169829Y0272498D03*
X0169499Y0277165D03*
X0169499Y0279165D03*
X0169499Y0286165D03*
X0213829Y0319498D03*
X0217829Y0318498D03*
D35*
X0170499Y0285832D03*
X0169499Y0274832D03*
X0168829Y0272832D03*
X0171829Y0271832D03*
X0172829Y0270832D03*
X0169829Y0269832D03*
X0169499Y0212832D03*
X0169499Y0205832D03*
X0169499Y0203832D03*
X0169499Y0200832D03*
X0170499Y0136832D03*
X0169499Y0125832D03*
X0169499Y0123832D03*
X0170499Y0118832D03*
X0169499Y0085832D03*
X0168829Y0070832D03*
X0178163Y0036166D03*
X0216499Y0091832D03*
X0216829Y0109832D03*
X0216829Y0206832D03*
X0114165Y0069499D03*
X0082165Y0088165D03*
X0078165Y0088165D03*
D36*
X0149168Y0039166D03*
D37*
X0171998Y0039166D03*
X0211664Y0262832D03*
D38*
X0177663Y0039166D03*
D39*
X0186498Y0039166D03*
X0172164Y0085832D03*
X0172164Y0123832D03*
X0172164Y0205832D03*
X0172164Y0212832D03*
X0109830Y0070499D03*
D40*
X0063165Y0070499D03*
X0169499Y0083832D03*
X0192163Y0039166D03*
X0172499Y0198832D03*
X0171829Y0221832D03*
D41*
X0170829Y0195165D03*
X0170829Y0189498D03*
X0170829Y0258165D03*
X0170829Y0258498D03*
X0170829Y0264165D03*
X0170829Y0110498D03*
X0170829Y0062165D03*
X0170829Y0056165D03*
D42*
X0170829Y0059832D03*
D43*
X0170829Y0061832D03*
X0170829Y0104832D03*
X0170829Y0263832D03*
D44*
X0172164Y0274498D03*
X0172164Y0277498D03*
X0172164Y0217498D03*
X0172164Y0128498D03*
X0172164Y0125498D03*
X0172164Y0117165D03*
X0172164Y0068498D03*
X0171164Y0068165D03*
X0169164Y0067498D03*
X0109830Y0065832D03*
X0073830Y0091832D03*
X0072830Y0307165D03*
X0068830Y0308165D03*
D45*
X0125665Y0303165D03*
X0057665Y0066165D03*
D46*
X0057500Y0070499D03*
X0052830Y0067499D03*
X0061500Y0088165D03*
X0099830Y0067499D03*
X0104500Y0070499D03*
X0212494Y0089832D03*
D47*
X0172164Y0079832D03*
X0172164Y0076832D03*
X0170164Y0067832D03*
X0171164Y0116832D03*
X0172164Y0132832D03*
X0172164Y0278832D03*
D48*
X0172164Y0208498D03*
X0172164Y0134498D03*
X0172164Y0121165D03*
X0172164Y0088498D03*
X0172164Y0075165D03*
X0172164Y0072498D03*
X0069830Y0092832D03*
X0068830Y0303165D03*
D49*
X0169499Y0267498D03*
X0211499Y0207165D03*
X0216829Y0114165D03*
X0082495Y0092832D03*
X0082165Y0090832D03*
D50*
X0065000Y0092832D03*
D51*
X0170829Y0108498D03*
D52*
X0170664Y0193165D03*
X0216664Y0202498D03*
D53*
X0170664Y0261832D03*
D54*
X0063995Y0304832D03*
M02*
